<svg xmlns="http://www.w3.org/2000/svg" width="47" height="47" viewBox="0 0 47 47" shape-rendering="geometricPrecision" text-rendering="geometricPrecision" image-rendering="optimizeQuality" fill-rule="evenodd" clip-rule="evenodd"><defs><style>.fil1{fill:#fefefe}.fil0{fill:none}</style></defs><g id="Layer_x0020_1"><path class="fil0" d="M14 0h33v33c0 8-6 14-14 14H0V14C0 6 6 0 14 0z"/><path class="fil1" d="M34 11H13s-1 0-1 1l2 21 1 1 8 2h1l8-2 1-1 2-21c0-1-1-1-1-1zm-4 7l-6 3h6v1l-1 7-5 2h-1l-5-2v-4h1c1 0 1 0 1 1v1l4 2 3-2v-3h-9l-1-1v-2l6-3h-6v-2h14l-1 2z"/></g></svg>