<svg xmlns="http://www.w3.org/2000/svg" width="47" height="47" viewBox="0 0 47 47" shape-rendering="geometricPrecision" text-rendering="geometricPrecision" image-rendering="optimizeQuality" fill-rule="evenodd" clip-rule="evenodd"><defs><style>.fil1{fill:#fefefe}.fil0{fill:none}</style></defs><g id="Layer_x0020_1"><path class="fil0" d="M14 0h33v33c0 8-6 14-14 14H0V14C0 6 6 0 14 0z"/><g id="_1057390432"><path class="fil1" d="M36 14h-2v2h2v18H10V16h3v-2h-2c-2 0-3 1-3 2v18c0 1 1 2 3 2h8v3h-1c-1 0-1 1-1 2 0 0 0 1 1 1h11l1-1c0-1-1-2-1-2h-1v-3h8c2 0 3-1 3-2V16c0-1-1-2-3-2z"/><path class="fil1" d="M18 31h11c2 0 3-1 3-2V12c0-2-1-3-3-3v18H17V9c-1 0-2 1-2 3v17c0 1 1 2 3 2zm5-3c1 0 1 1 1 1 0 1 0 1-1 1 0 0-1 0-1-1l1-1z"/><path class="fil1" d="M20 19h6c1 0 2 0 2-1V7c0-1-1-2-2-2h-6s-1 1-1 2v11c0 1 1 1 1 1zm3-1v-1c1 0 1 1 1 1s0 1-1 1v-1zM21 7h5v10h-5V7z"/></g></g></svg>