<svg xmlns="http://www.w3.org/2000/svg" width="47" height="47" viewBox="0 0 47 47" shape-rendering="geometricPrecision" text-rendering="geometricPrecision" image-rendering="optimizeQuality" fill-rule="evenodd" clip-rule="evenodd"><defs><style>.fil1{fill:#fefefe}.fil0{fill:none}</style></defs><g id="Layer_x0020_1"><path class="fil0" d="M14 0h33v33c0 8-6 14-14 14H0V14C0 6 6 0 14 0z"/><path class="fil1" d="M37 26h-3c-1 0-1-1-1-1v-4h-2v2s-2 3-3 4v-4s0-1-1-1c0 0-1 0-1 1v1c-1 0-2 4-3 5v2h-1v-1c0-1 1-3 1-4h-1s0-2-1-2c-2 0-3 1-4 2 0 0-1 1-2 1-1 1-1 1-2 1-2-2-6-4-6-7 0-1 1-4 8-8 6-3 10-2 11 0 1 3-2 7-8 8-3 0-4-1-4-1h-1c1 1 1 2 3 2 1 0 3 1 7-1 3-1 6-5 5-8-1-4-6-5-11-3-3 1-7 3-9 5-3 3-4 5-3 6 0 4 5 6 7 8-1 0-5 2-6 4-1 3 0 4 1 4 3 1 5 0 7-2 1-2 1-5 0-6h1c0-1 1-1 1-1v2c0 2 0 3 1 4h1c1 0 1 0 1-1 1-1 1-2 1-2s0 3 1 3 1-1 2-1v-1s1-1 1-2c1-2 2-5 2-5v2c1 0 1 1 1 2 0 0 0 1-1 1 0 1-1 2-1 2-1 1-1 1 0 1h2l1-1c1 0 1-1 1-2v-2l2-4s0 1 1 2v1c-1 1-1 2-2 3 0 1 0 2 1 2h1l1-1c1-1 2-1 2-2s-1-1-1-2h4c3 0 4 2 4 3s-1 2-1 2h-1 1l2-2c0-2-2-4-6-4zm-25 8c-1 1-3 2-4 1 0 0 0-2 1-3s2-2 3-2h1v-1c0 2 0 4-1 5zm8-5c-1 1-1 3-2 3 0 0-1-2 0-4 0-1 1-2 1-2 1-1 2-1 2-1 0 1-1 3-1 4zm6 3l1-1c0-1 1-1 1-1 0 1-1 2-2 2zm5-1s0-1 1-2l1-1v1c0 1-1 1-2 2z"/></g></svg>