<svg width="1253" height="365" viewBox="0 0 1253 365" xmlns="http://www.w3.org/2000/svg" xmlns:xlink="http://www.w3.org/1999/xlink"><title>Group 11</title><defs><path d="M246.571 258H205.43a3.439 3.439 0 0 0-3.429 3.429v27.428a3.439 3.439 0 0 0 3.429 3.429h6.857v12l12-12h22.285a3.439 3.439 0 0 0 3.429-3.429V261.43a3.439 3.439 0 0 0-3.429-3.429zm0 30.857h-24l-6.857 6.857v-6.857H205.43V261.43h41.142v27.428z" id="a"/><mask id="v" x="-1" y="-1" width="50" height="48.286"><path fill="#fff" d="M201 257h50v48.286h-50z"/><use xlink:href="#a"/></mask><circle id="b" cx="334" cy="223" r="3"/><mask id="w" x="-7" y="-7" width="20" height="20"><path fill="#fff" d="M324 213h20v20h-20z"/><use xlink:href="#b"/></mask><circle id="c" cx="348" cy="284" r="3"/><mask id="x" x="-7" y="-7" width="20" height="20"><path fill="#fff" d="M338 274h20v20h-20z"/><use xlink:href="#c"/></mask><circle id="d" cx="297" cy="176" r="3"/><mask id="y" x="-7" y="-7" width="20" height="20"><path fill="#fff" d="M287 166h20v20h-20z"/><use xlink:href="#d"/></mask><circle id="e" cx="337" cy="82" r="3"/><mask id="z" x="-7" y="-7" width="20" height="20"><path fill="#fff" d="M327 72h20v20h-20z"/><use xlink:href="#e"/></mask><circle id="f" cx="315" cy="130" r="3"/><mask id="A" x="-7" y="-7" width="20" height="20"><path fill="#fff" d="M305 120h20v20h-20z"/><use xlink:href="#f"/></mask><circle id="g" cx="223.5" cy="17.5" r="3"/><mask id="B" x="-7" y="-7" width="20" height="20"><path fill="#fff" d="M213.5 7.5h20v20h-20z"/><use xlink:href="#g"/></mask><circle id="h" cx="284.5" cy="3.5" r="3"/><mask id="C" x="-7" y="-7" width="20" height="20"><path fill="#fff" d="M274.5-6.5h20v20h-20z"/><use xlink:href="#h"/></mask><circle id="i" cx="176.5" cy="54.5" r="3"/><mask id="D" x="-7" y="-7" width="20" height="20"><path fill="#fff" d="M166.5 44.5h20v20h-20z"/><use xlink:href="#i"/></mask><circle id="j" cx="82.5" cy="14.5" r="3"/><mask id="E" x="-7" y="-7" width="20" height="20"><path fill="#fff" d="M72.5 4.5h20v20h-20z"/><use xlink:href="#j"/></mask><circle id="k" cx="130.5" cy="36.5" r="3"/><mask id="F" x="-7" y="-7" width="20" height="20"><path fill="#fff" d="M120.5 26.5h20v20h-20z"/><use xlink:href="#k"/></mask><circle id="l" cx="128.5" cy="333.5" r="3"/><mask id="G" x="-7" y="-7" width="20" height="20"><path fill="#fff" d="M118.5 323.5h20v20h-20z"/><use xlink:href="#l"/></mask><circle id="m" cx="67.5" cy="347.5" r="3"/><mask id="H" x="-7" y="-7" width="20" height="20"><path fill="#fff" d="M57.5 337.5h20v20h-20z"/><use xlink:href="#m"/></mask><circle id="n" cx="175.5" cy="296.5" r="3"/><mask id="I" x="-7" y="-7" width="20" height="20"><path fill="#fff" d="M165.5 286.5h20v20h-20z"/><use xlink:href="#n"/></mask><circle id="o" cx="269.5" cy="336.5" r="3"/><mask id="J" x="-7" y="-7" width="20" height="20"><path fill="#fff" d="M259.5 326.5h20v20h-20z"/><use xlink:href="#o"/></mask><circle id="p" cx="221.5" cy="314.5" r="3"/><mask id="K" x="-7" y="-7" width="20" height="20"><path fill="#fff" d="M211.5 304.5h20v20h-20z"/><use xlink:href="#p"/></mask><circle id="q" cx="17" cy="129" r="3"/><mask id="L" x="-7" y="-7" width="20" height="20"><path fill="#fff" d="M7 119h20v20H7z"/><use xlink:href="#q"/></mask><circle id="r" cx="3" cy="68" r="3"/><mask id="M" x="-7" y="-7" width="20" height="20"><path fill="#fff" d="M-7 58h20v20H-7z"/><use xlink:href="#r"/></mask><circle id="s" cx="54" cy="176" r="3"/><mask id="N" x="-7" y="-7" width="20" height="20"><path fill="#fff" d="M44 166h20v20H44z"/><use xlink:href="#s"/></mask><circle id="t" cx="14" cy="270" r="3"/><mask id="O" x="-7" y="-7" width="20" height="20"><path fill="#fff" d="M4 260h20v20H4z"/><use xlink:href="#t"/></mask><circle id="u" cx="36" cy="222" r="3"/><mask id="P" x="-7" y="-7" width="20" height="20"><path fill="#fff" d="M26 212h20v20H26z"/><use xlink:href="#u"/></mask><rect id="Q" width="138" height="138" rx="20"/><rect id="T" x="133" y="131" width="89" height="89" rx="10"/><filter x="-50%" y="-50%" width="200%" height="200%" filterUnits="objectBoundingBox" id="S"><feOffset in="SourceAlpha" result="shadowOffsetOuter1"/><feGaussianBlur stdDeviation="3" in="shadowOffsetOuter1" result="shadowBlurOuter1"/><feColorMatrix values="0 0 0 0 0 0 0 0 0 0 0 0 0 0 0 0 0 0 0.39 0" in="shadowBlurOuter1"/></filter></defs><g fill="none" fill-rule="evenodd"><g transform="translate(0 17)"><use fill="#E5E5E5" xlink:href="#a"/><use stroke="#DDDFE0" mask="url(#v)" stroke-width="2" xlink:href="#a"/></g><path d="M310.571 72.429a6.691 6.691 0 0 0-6.714-6.715 6.691 6.691 0 0 0-6.714 6.715c0 2.45 1.376 4.632 3.357 5.774v1.007c-.067 1.746-.772 3.29-2.115 4.633-1.343 1.343-2.887 2.048-4.633 2.115-2.786.067-4.968.537-6.714 1.51v-15.98c1.98-1.14 3.357-3.29 3.357-5.774A6.691 6.691 0 0 0 283.681 59c-3.727 0-6.681 2.988-6.681 6.714 0 2.451 1.376 4.633 3.357 5.775V93.51c-1.98 1.175-3.357 3.324-3.357 5.775a6.691 6.691 0 0 0 6.714 6.714 6.691 6.691 0 0 0 6.715-6.714c0-1.78-.672-3.357-1.78-4.566.302-.201 1.612-1.376 1.981-1.578.84-.37 1.88-.57 3.156-.57 3.525-.168 6.546-1.511 9.232-4.197 2.686-2.686 4.028-6.647 4.196-10.139h-.067c2.048-1.208 3.424-3.357 3.424-5.807zm-26.857-10.743c2.216 0 4.029 1.846 4.029 4.028 0 2.182-1.847 4.029-4.029 4.029s-4.028-1.847-4.028-4.029 1.846-4.028 4.028-4.028zm0 41.662c-2.215 0-4.028-1.847-4.028-4.029s1.846-4.028 4.028-4.028c2.182 0 4.029 1.846 4.029 4.028 0 2.182-1.847 4.029-4.029 4.029zm20.143-26.857c-2.216 0-4.028-1.847-4.028-4.029s1.846-4.028 4.028-4.028c2.182 0 4.029 1.846 4.029 4.028 0 2.182-1.847 4.029-4.029 4.029zM135.77 73.077h-7.078V66h7.077v7.077zm14.153 17.692h-35.385A3.549 3.549 0 0 1 111 87.231v-7.077a3.549 3.549 0 0 1 3.538-3.539h35.385L157 83.692l-7.077 7.077zM135.77 80.154h-7.077v7.077h7.077v-7.077zm-7.077 42.461h7.077V94.308h-7.077v28.307zM120.714 217a7.403 7.403 0 0 0-7.428 7.429c0 2.711 1.523 5.125 3.714 6.388v4.754L109.571 243l-7.428-7.429v-4.754c2.191-1.263 3.714-3.64 3.714-6.388A7.403 7.403 0 0 0 98.43 217a7.403 7.403 0 0 0-7.43 7.429c0 2.711 1.523 5.125 3.714 6.388v6.612l11.143 11.142v6.612c-2.191 1.263-3.714 3.64-3.714 6.388A7.403 7.403 0 0 0 109.57 269a7.403 7.403 0 0 0 7.429-7.429c0-2.711-1.523-5.125-3.714-6.388v-6.612l11.143-11.142v-6.612c2.191-1.263 3.714-3.64 3.714-6.388a7.403 7.403 0 0 0-7.429-7.429zM98.43 228.886c-2.452 0-4.458-2.043-4.458-4.457 0-2.415 2.043-4.458 4.458-4.458 2.414 0 4.457 2.043 4.457 4.458 0 2.414-2.043 4.457-4.457 4.457zm11.142 37.143c-2.451 0-4.457-2.043-4.457-4.458 0-2.414 2.043-4.457 4.457-4.457 2.415 0 4.458 2.043 4.458 4.457 0 2.415-2.043 4.458-4.458 4.458zm11.143-37.143c-2.451 0-4.457-2.043-4.457-4.457 0-2.415 2.043-4.458 4.457-4.458 2.415 0 4.457 2.043 4.457 4.458 0 2.414-2.042 4.457-4.457 4.457zM1253 176.533v-3.2l-3.88-1.28-.9-2.18 1.76-3.68-2.26-2.26-3.62 1.82-2.18-.9-1.38-3.84h-3.2l-1.26 3.88-2.22.9-3.68-1.76-2.26 2.26 1.82 3.62-.9 2.18-3.84 1.36v3.18l3.88 1.28.9 2.18-1.76 3.68 2.26 2.26 3.62-1.82 2.18.9 1.38 3.84h3.18l1.26-3.88 2.22-.9 3.68 1.76 2.26-2.26-1.84-3.62.94-2.18 3.84-1.38v.04zm-14 4.46c-3.32 0-6-2.68-6-6s2.68-6 6-6 6 2.68 6 6-2.68 6-6 6zM1077 176h10v10h-10v-10zm10-30h-10v25h10v-25zm7.5 7.5l-5 5L1102 171l20-22.5-5-5-15 17.5-7.5-7.5zm-12.5 41c-15.7 0-28.5-12.8-28.5-28.5s12.8-28.5 28.5-28.5c9.15 0 17.25 4.4 22.5 11l4.6-4.6c-6.4-7.9-16.15-12.9-27.1-12.9-19.3 0-35 15.7-35 35s15.7 35 35 35 35-15.7 35-35l-7.6 7.6c-3.3 12.05-14.3 20.95-27.4 20.95v-.05zm-745 35.25h-6.75V223H337v6.75zm0-20.25h-6.75v6.75H337v-6.75zm0-13.5h-6.75v6.75H337V196zm0-13.5h-6.75v6.75H337v-6.75zm54-6.75v81c0 3.713-3.038 6.75-6.75 6.75H350.5V277l-10.125-10.125L330.25 277v-13.5h-13.5c-3.712 0-6.75-3.037-6.75-6.75v-81c0-3.713 3.038-6.75 6.75-6.75h67.5c3.712 0 6.75 3.037 6.75 6.75zm-6.75 67.5h-67.5v13.5h13.5V250h20.25v6.75h33.75v-13.5zm0-67.5H323.5v60.75h60.75v-60.75zm-165.016-17.464C217.691 152.389 212.377 148 206 148s-11.691 4.389-13.234 10.286H182v6.857h10.766c1.543 5.897 6.857 10.286 13.234 10.286s11.691-4.389 13.234-10.286H230v-6.857h-10.766zM206 169.257a7.521 7.521 0 0 1-7.543-7.543 7.521 7.521 0 0 1 7.543-7.543 7.521 7.521 0 0 1 7.543 7.543 7.521 7.521 0 0 1-7.543 7.543zm745.143 119.886h-3.429c-.925-.069-1.645-.377-2.365-1.063-.72-.686-1.029-1.44-1.063-2.366v-21.531c2.023-1.166 3.428-3.36 3.428-5.897a6.833 6.833 0 0 0-6.857-6.857 6.833 6.833 0 0 0-6.857 6.857c0 2.503 1.406 4.731 3.429 5.897v21.531c.102 2.675 1.165 5.04 3.222 7.063 2.058 2.023 4.389 3.12 7.063 3.223h3.429v6.857l10.286-10.286-10.286-10.285v6.857zm-10.286-34.972c2.263 0 4.114 1.886 4.114 4.115 0 2.228-1.885 4.114-4.114 4.114-2.228 0-4.114-1.886-4.114-4.114 0-2.229 1.886-4.115 4.114-4.115zm37.714 32.503v-21.531c-.102-2.674-1.165-5.04-3.222-7.063-2.058-2.023-4.389-3.12-7.063-3.223h-3.429V248l-10.286 10.286 10.286 10.285v-6.857h3.429c.925.069 1.645.377 2.365 1.063.72.686 1.029 1.44 1.063 2.366v21.531c-2.023 1.166-3.428 3.36-3.428 5.897a6.833 6.833 0 0 0 6.857 6.858A6.833 6.833 0 0 0 982 292.57c0-2.502-1.406-4.731-3.429-5.897zm-3.428 10.012c-2.263 0-4.114-1.886-4.114-4.115 0-2.228 1.885-4.114 4.114-4.114 2.228 0 4.114 1.886 4.114 4.114 0 2.229-1.886 4.115-4.114 4.115zM1184 63.01c-2.19 0-4.14 1.23-5.19 3.06v-.06c-3.15-.06-6.81-1.08-9.39-3.06-2.25-1.74-4.5-4.83-5.67-7.32a5.965 5.965 0 0 0 2.25-4.65c0-3.33-2.67-6-6-6s-6 2.7-6 6.03c0 2.19 1.23 4.14 3 5.16v19.68c-1.77 1.05-3 2.97-3 5.16 0 3.33 2.67 6 6 6s6-2.67 6-6c0-2.19-1.23-4.14-3-5.16V65.02c2.01 2.1 4.32 3.81 6.9 5.07 2.58 1.26 6.09 1.89 8.91 1.92v-.06c1.08 1.83 3 3.06 5.19 3.06 3.33 0 6-2.67 6-6s-2.67-6-6-6zm-20.4 18c0 1.98-1.65 3.6-3.6 3.6-1.95 0-3.6-1.65-3.6-3.6 0-1.95 1.65-3.6 3.6-3.6 1.95 0 3.6 1.65 3.6 3.6zm-3.6-26.4c-1.98 0-3.6-1.65-3.6-3.6 0-1.95 1.65-3.6 3.6-3.6 1.95 0 3.6 1.65 3.6 3.6 0 1.95-1.65 3.6-3.6 3.6zm24 18c-1.98 0-3.6-1.65-3.6-3.6 0-1.95 1.65-3.6 3.6-3.6 1.95 0 3.6 1.65 3.6 3.6 0 1.95-1.65 3.6-3.6 3.6zM988 50.84V32c-.09-2.34-1.02-4.41-2.82-6.18-1.8-1.77-3.84-2.73-6.18-2.82h-3v-6l-9 9 9 9v-6h3c.81.06 1.44.33 2.07.93.63.6.9 1.26.93 2.07v18.84c-1.77 1.02-3 2.94-3 5.16 0 3.33 2.67 6 6 6s6-2.67 6-6c0-2.19-1.23-4.14-3-5.16zm-3 8.76c-1.98 0-3.6-1.65-3.6-3.6 0-1.95 1.65-3.6 3.6-3.6 1.95 0 3.6 1.65 3.6 3.6 0 1.95-1.65 3.6-3.6 3.6zM967 26c0-3.33-2.67-6-6-6s-6 2.67-6 6c0 2.19 1.23 4.14 3 5.16v19.68c-1.77 1.02-3 2.94-3 5.16 0 3.33 2.67 6 6 6s6-2.67 6-6c0-2.19-1.23-4.14-3-5.16V31.16c1.77-1.02 3-2.94 3-5.16zm-2.4 30c0 1.98-1.65 3.6-3.6 3.6-1.95 0-3.6-1.65-3.6-3.6 0-1.95 1.65-3.6 3.6-3.6 1.95 0 3.6 1.65 3.6 3.6zM961 29.6c-1.98 0-3.6-1.65-3.6-3.6 0-1.95 1.65-3.6 3.6-3.6 1.95 0 3.6 1.65 3.6 3.6 0 1.95-1.65 3.6-3.6 3.6zm-110 79.686v50.285c0 3.458 2.829 6.286 6.286 6.286h75.428c3.457 0 6.286-2.828 6.286-6.286v-50.285c0-3.457-2.829-6.286-6.286-6.286h-75.428c-3.457 0-6.286 2.829-6.286 6.286zm81.714 0L895 140.714l-37.714-31.428h75.428zm-75.428 9.428l25.143 18.857-25.143 18.858v-37.715zm6.285 40.857l22-18.857 9.429 9.429 9.429-9.429 22 18.857H863.57zm69.143-3.142l-25.143-18.858 25.143-18.857v37.715zm179.232 109.625a8.301 8.301 0 0 1-1.653-2.31c-.42-.814-.71-1.733-.893-2.678a41.92 41.92 0 0 0-4.541 2.967c-1.523 1.155-2.993 2.467-4.437 3.885-1.837 1.837-3.49 4.75-4.672 6.43h-7.875L1080 282.25h7.875l5.25-5.25c-.892 2.021-2.678 7.822-2.625 7.875l2.625 2.625c.053.053 5.854-1.68 7.875-2.625l-5.25 5.25V298l7.875-7.875v-7.875c1.68-1.181 4.594-2.861 6.431-4.673a39.7 39.7 0 0 0 3.859-4.462c1.155-1.523 2.126-3.045 2.993-4.515a13.604 13.604 0 0 1-2.704-.892 8.9 8.9 0 0 1-2.258-1.654M1122 256s-.236.998-.787 2.782c-.525 1.838-1.444 4.148-2.783 6.983-1.838-.21-3.334-.866-4.358-1.89-1.023-1.024-1.653-2.468-1.837-4.305 2.835-1.365 5.119-2.31 6.93-2.835 1.838-.525 2.835-.735 2.835-.735M25 167.929l-8.75-1.143L12.5 159l-3.75 7.786L0 167.929l6.429 5.821-1.661 8.464 7.732-4.16 7.732 4.16-1.66-8.464z" fill="#E5E5E5"/><path d="M693 230h93.997" stroke="#E5E5E5" stroke-width="7"/><g transform="rotate(180 560.5 226.5)"><use fill="#F5F5F5" xlink:href="#b"/><use stroke="#E5E5E5" mask="url(#w)" stroke-width="14" xlink:href="#b"/></g><path d="M717 207h40.993a3 3 0 0 1 3.007 3.002v77.996a2.998 2.998 0 0 0 2.998 3.002h27.258" stroke="#E5E5E5" stroke-width="7"/><g transform="rotate(180 574.5 287.5)"><use fill="#F5F5F5" xlink:href="#c"/><use stroke="#E5E5E5" mask="url(#x)" stroke-width="14" xlink:href="#c"/></g><path d="M706 183h42.998" stroke="#E5E5E5" stroke-width="7"/><g transform="rotate(180 523.5 179.5)"><use fill="#F5F5F5" xlink:href="#d"/><use stroke="#E5E5E5" mask="url(#y)" stroke-width="14" xlink:href="#d"/></g><path d="M716 160h71.007a2.999 2.999 0 0 0 2.993-3.006V97.667" stroke="#E5E5E5" stroke-width="7"/><g transform="rotate(180 563.5 85.5)"><use fill="#F5F5F5" xlink:href="#e"/><use stroke="#E5E5E5" mask="url(#z)" stroke-width="14" xlink:href="#e"/></g><path d="M707 137h52.993" stroke="#E5E5E5" stroke-width="7"/><g transform="rotate(180 541.5 133.5)"><use fill="#F5F5F5" xlink:href="#f"/><use stroke="#E5E5E5" mask="url(#A)" stroke-width="14" xlink:href="#f"/></g><path d="M676.5 118.5V24.503" stroke="#E5E5E5" stroke-width="7"/><g transform="rotate(90 446.5 247.5)"><use fill="#F5F5F5" xlink:href="#g"/><use stroke="#E5E5E5" mask="url(#B)" stroke-width="14" xlink:href="#g"/></g><path d="M653.5 94.5V53.507a3 3 0 0 1 3.002-3.007h77.996a2.998 2.998 0 0 0 3.002-2.998V20.244" stroke="#E5E5E5" stroke-width="7"/><g transform="rotate(90 507.5 233.5)"><use fill="#F5F5F5" xlink:href="#h"/><use stroke="#E5E5E5" mask="url(#C)" stroke-width="14" xlink:href="#h"/></g><path d="M629.5 105.5V62.502" stroke="#E5E5E5" stroke-width="7"/><g transform="rotate(90 399.5 284.5)"><use fill="#F5F5F5" xlink:href="#i"/><use stroke="#E5E5E5" mask="url(#D)" stroke-width="14" xlink:href="#i"/></g><path d="M606.5 95.5V24.493a2.999 2.999 0 0 0-3.006-2.993h-59.327" stroke="#E5E5E5" stroke-width="7"/><g transform="rotate(90 305.5 244.5)"><use fill="#F5F5F5" xlink:href="#j"/><use stroke="#E5E5E5" mask="url(#E)" stroke-width="14" xlink:href="#j"/></g><path d="M583.5 104.5V51.507" stroke="#E5E5E5" stroke-width="7"/><g transform="rotate(90 353.5 266.5)"><use fill="#F5F5F5" xlink:href="#k"/><use stroke="#E5E5E5" mask="url(#F)" stroke-width="14" xlink:href="#k"/></g><path d="M581.5 246.5v93.997" stroke="#E5E5E5" stroke-width="7"/><g transform="rotate(-90 358.5 110.5)"><use fill="#F5F5F5" xlink:href="#l"/><use stroke="#E5E5E5" mask="url(#G)" stroke-width="14" xlink:href="#l"/></g><path d="M604.5 270.5v40.993a3 3 0 0 1-3.002 3.007h-77.996a2.998 2.998 0 0 0-3.002 2.998v27.258" stroke="#E5E5E5" stroke-width="7"/><g transform="rotate(-90 297.5 124.5)"><use fill="#F5F5F5" xlink:href="#m"/><use stroke="#E5E5E5" mask="url(#H)" stroke-width="14" xlink:href="#m"/></g><path d="M628.5 259.5v42.998" stroke="#E5E5E5" stroke-width="7"/><g transform="rotate(-90 405.5 73.5)"><use fill="#F5F5F5" xlink:href="#n"/><use stroke="#E5E5E5" mask="url(#I)" stroke-width="14" xlink:href="#n"/></g><path d="M651.5 269.5v71.007a2.999 2.999 0 0 0 3.006 2.993h59.327" stroke="#E5E5E5" stroke-width="7"/><g transform="rotate(-90 499.5 113.5)"><use fill="#F5F5F5" xlink:href="#o"/><use stroke="#E5E5E5" mask="url(#J)" stroke-width="14" xlink:href="#o"/></g><path d="M674.5 260.5v52.993" stroke="#E5E5E5" stroke-width="7"/><g transform="rotate(-90 451.5 91.5)"><use fill="#F5F5F5" xlink:href="#p"/><use stroke="#E5E5E5" mask="url(#K)" stroke-width="14" xlink:href="#p"/></g><path d="M564 136h-93.997" stroke="#E5E5E5" stroke-width="7"/><g transform="translate(453 7)"><use fill="#F5F5F5" xlink:href="#q"/><use stroke="#E5E5E5" mask="url(#L)" stroke-width="14" xlink:href="#q"/></g><path d="M540 159h-40.993a3 3 0 0 1-3.007-3.002V78.002A2.998 2.998 0 0 0 493.002 75h-27.258" stroke="#E5E5E5" stroke-width="7"/><g transform="translate(453 7)"><use fill="#F5F5F5" xlink:href="#r"/><use stroke="#E5E5E5" mask="url(#M)" stroke-width="14" xlink:href="#r"/></g><path d="M551 183h-42.998" stroke="#E5E5E5" stroke-width="7"/><g transform="translate(453 7)"><use fill="#F5F5F5" xlink:href="#s"/><use stroke="#E5E5E5" mask="url(#N)" stroke-width="14" xlink:href="#s"/></g><path d="M541 206h-71.007a2.999 2.999 0 0 0-2.993 3.006v59.327" stroke="#E5E5E5" stroke-width="7"/><g transform="translate(453 7)"><use fill="#F5F5F5" xlink:href="#t"/><use stroke="#E5E5E5" mask="url(#O)" stroke-width="14" xlink:href="#t"/></g><path d="M550 229h-52.993" stroke="#E5E5E5" stroke-width="7"/><g transform="translate(453 7)"><use fill="#F5F5F5" xlink:href="#u"/><use stroke="#E5E5E5" mask="url(#P)" stroke-width="14" xlink:href="#u"/></g><path d="M697 230h20.001M697 207h20.001M697 183h20.001M697 160h20.001M697 137h20.001" stroke="#3C4146" stroke-width="7" stroke-linecap="round"/><path d="M676.5 114.5V94.499m-23 20.001V94.499m-24 20.001V94.499m-23 20.001V94.499m-23 20.001V94.499" stroke="#586169" stroke-width="7" stroke-linecap="round"/><path d="M581.5 250.5v20.001m23-20.001v20.001m24-20.001v20.001m23-20.001v20.001m23-20.001v20.001" stroke="#3C4146" stroke-width="7" stroke-linecap="round"/><path d="M560 136h-20.001M560 159h-20.001M560 183h-20.001M560 206h-20.001M560 229h-20.001" stroke="#586169" stroke-width="7" stroke-linecap="round"/><g transform="translate(560 114)"><mask id="R" fill="#fff"><use xlink:href="#Q"/></mask><use fill="#586069" xlink:href="#Q"/><path fill="#3C4146" mask="url(#R)" d="M138 0v138H0z"/></g><path fill="#2F3338" d="M560 169h15v26h-15zm82.5-54.5v15h-26v-15z"/><g transform="translate(453 7)"><use fill="#000" filter="url(#S)" xlink:href="#T"/><use fill="#FFF" xlink:href="#T"/></g><path d="M630 157c-14.365 0-26 11.635-26 26 0 11.505 7.442 21.222 17.777 24.667 1.3.228 1.788-.552 1.788-1.235 0-.617-.033-2.664-.033-4.842-6.532 1.202-8.222-1.593-8.742-3.055-.292-.747-1.56-3.055-2.665-3.672-.91-.488-2.21-1.69-.032-1.723 2.047-.032 3.51 1.885 3.997 2.665 2.34 3.932 6.078 2.828 7.573 2.145.227-1.69.91-2.827 1.657-3.477-5.785-.65-11.83-2.893-11.83-12.838 0-2.827 1.008-5.167 2.665-6.987-.26-.65-1.17-3.315.26-6.89 0 0 2.178-.683 7.15 2.664 2.08-.585 4.29-.877 6.5-.877s4.42.293 6.5.877c4.972-3.38 7.15-2.665 7.15-2.665 1.43 3.575.52 6.24.26 6.89 1.657 1.82 2.665 4.128 2.665 6.988 0 9.977-6.078 12.187-11.863 12.837.943.813 1.755 2.373 1.755 4.81 0 3.478-.032 6.273-.032 7.15 0 .683.487 1.496 1.787 1.236C648.557 204.223 656 194.473 656 183c0-14.365-11.635-26-26-26z" fill="#333"/></g></svg>