<svg xmlns="http://www.w3.org/2000/svg" width="47" height="47" viewBox="0 0 47 47" shape-rendering="geometricPrecision" text-rendering="geometricPrecision" image-rendering="optimizeQuality" fill-rule="evenodd" clip-rule="evenodd"><defs><style>.fil1{fill:#fefefe}.fil0{fill:none}</style></defs><g id="Layer_x0020_1"><path class="fil0" d="M14 0h33v33c0 8-6 14-14 14H0V14C0 6 6 0 14 0z"/><path class="fil1" d="M35 21v-2c0-4-1-5-2-6 1-3 0-4 0-4-1-1-4 1-5 2-2-1-7-1-8 0-4-3-5-2-5-2s-1 2-1 5c-1 1-1 2-1 4v2c1 5 4 7 8 7-1 1-1 2-1 2-1 1-2 1-3 1-2-1-3-4-5-3 1 1 1 1 2 3 0 0 1 2 4 2h2v3c0 1-2 2-2 2h1c1 0 2 0 2-1v-5c0-1 1-1 1-1v7c0 1-1 0-1 1s2 0 3-1v-7 4c0 1 0 2 1 3 0 1 2 2 2 1s-1-1-1-2v-6c1 0 1 2 1 2v3s0 2 1 2h2s-1-1-1-2v-3c0-3-1-4-2-5 4 0 7-2 8-6z" id="XMLID_122_"/></g></svg>