<svg xmlns="http://www.w3.org/2000/svg" width="47" height="47" viewBox="0 0 47 47" shape-rendering="geometricPrecision" text-rendering="geometricPrecision" image-rendering="optimizeQuality" fill-rule="evenodd" clip-rule="evenodd"><defs><style>.str0{stroke:#fefefe;stroke-width:.5452}.fil1{fill:#fefefe}.fil0{fill:none}</style></defs><g id="Layer_x0020_1"><path class="fil0" d="M14 0h33v33c0 8-6 14-14 14H0V14C0 6 6 0 14 0z"/><path class="fil1" d="M118 47c-1 0-3 0-4 1v-2c0-1-1-1 0-2v-1s0-1-1-1-1 0-1 1c0 0-1 0-1 1 0 0-1 3-2 4 0 0 0-1-1-1v-2l1-1s0-1-1-1-1 0-1 1c-1 0-1 0-1 1 0 0-2 4-2 5-1 1-1 1-1 2v1s-1-1 0-2c0-1 1-3 1-3s0-1-1-1h-1s1-2-1-2c-1 0-3 1-3 2-1 0-2 1-3 1 0 1-1 1-1 1-2-2-6-4-6-7 0-1 0-4 8-7 5-3 10-3 11-1 1 3-3 7-9 8-2 0-3-1-4-1 0 1 1 2 2 2 1 1 4 1 7-1 4-1 7-5 6-8-1-4-7-5-12-3-3 1-6 3-9 5-3 3-3 5-3 6 1 4 6 6 8 8h-1c-1 1-4 2-5 4-1 3 0 4 1 5 2 0 5-1 6-3s1-5 1-6c1-1 1-1 2-1 0 1-1 1-1 2 0 2 1 3 1 4h1c1 0 2 0 2-1s1-2 1-2-1 3 1 3l1-1c1-1 1-2 2-3l2-4v1c0 1 1 1 1 2l-1 1-2 2v1h3l1-1c1 0 1-1 1-2v-2l2-4v2l1 1c-1 1-2 2-2 3-1 1 0 2 0 2h1c1 0 1 0 2-1 0 0 1-1 1-2v-2h3c4 0 4 2 4 3s0 2-1 2c1 0 2 0 2-2s-2-4-5-4zm-26 8c-1 1-2 2-3 2-1-1 0-3 1-4s2-1 3-2c1 1 0 3-1 4zm8-5c0 1-1 3-1 3-1 0-1-2 0-4 0-1 1-2 1-2 0-1 1-1 1-1 0 1 0 3-1 4zm7 3c-1 0 0 0 0 0s0-1 1-1v-1c0 1-1 2-1 2zm5-1v-1c0-1 1-1 1-2l1 1c0 1-1 2-2 2z"/><g id="_902959440"><path class="fil1 str0" d="M15 24v2s-1 0-1 1v1s0 1-1 1v3s-1 0-1 1h-1v-3c1-1 1-1 1-2v-1s0 1-1 1c0 1-1 1-1 1-1 1-1 1-2 1H6c-1 0-1 0-1-1l-1-1v-4c1-1 1-2 1-3 1-1 1-1 1-2 1-1 1-2 2-3 0 0 1-1 1-2 1 0 1-1 2-1 0-1 1-1 1-1 1 0 2-1 2-1 1 0 1 1 2 1s1 1 2 2v2h-1l-1-1c0-1-1-1-1-1s0-1-1-1l-1 1c-1 1-2 1-2 2-1 0-1 1-2 2 0 1-1 2-1 3s-1 2-1 3v4h2s0-1 1-1l1-1 1-1s0-1 1-1v-1l1-3 1-1h1v3c0 1 0 1-1 1v1zm14 3c-1 0-1 1-2 1 0 0 0 1-1 1l-1 1h-2v-3c0 1-1 1-1 1 0 1-1 1-1 1 0 1-1 1-1 1h-3v-3c0-1 0-2 1-2 0-1 0-2 1-3 0-1 0-1 1-1h1v1s0 1-1 1v1s0 1-1 1v3c1 0 1 0 2-1l1-1 1-1c0-1 0-1 1-2v-1c0-1 0-1 1-1h1v2c-1 0-1 1-1 1v1c-1 1-1 1-1 2v1h1c1 0 1 0 1-1 1 0 1 0 2-1v-1l1 2z"/><path class="fil1 str0" d="M29 26v2c1 0 1 0 1-1h1l1-1 1-1h1v1l-2 2-1 1c-1 0-1 1-2 1h-2v-4c0-1 1-1 1-2s0-1 1-2l3-8v-1h2v2c-1 0-1 1-1 1 0 1-1 2-1 2 0 1 0 2-1 2 0 1 0 2-1 3v2c-1 0-1 1-1 1z"/><path class="fil1 str0" d="M44 24h1v2c-1 0-2 1-2 1l-2 2c-1 0-1 1-2 1h-3v-2c0-1 1-1 1-1 0-1 1-1 1-1 0-1 0-1 1-1v-1l1-1h-2l-1 1h-1v1l-1 1c0 1 0 1-1 1v2s0 1-1 1v2s-1 0-1 1v2h-1v1h-2v-2c1 0 1 0 1-1 0 0 0-1 1-2 0-1 1-2 1-3s1-1 1-2 1-2 1-2v-2c1 0 1 0 1-1h1v2l1-1 1-1h3l1 1v1c-1 1-1 1-1 2 0 0-1 0-1 1 0 0-1 0-1 1h-1v1h1s1 0 1-1c1 0 1 0 2-1 0-1 1-1 2-2z"/></g></g></svg>