<svg xmlns="http://www.w3.org/2000/svg" width="47" height="47" viewBox="0 0 47 47" shape-rendering="geometricPrecision" text-rendering="geometricPrecision" image-rendering="optimizeQuality" fill-rule="evenodd" clip-rule="evenodd"><defs><style>.str0{stroke:#fefefe;stroke-width:.89535}.fil1{fill:#fefefe}.fil0{fill:none}</style></defs><g id="Layer_x0020_1"><path class="fil0" d="M14 0h33v33c0 8-6 14-14 14H0V14C0 6 6 0 14 0z"/><path class="fil1 str0" d="M13 30v-3h2v3h-2zm6-15v-3h2v3h-2zm-3 19l1-1h1s1 0 1-1V17h2v16c-1 1-2 2-3 2 0 0-1-1-2-1zm8-8l2-1c0 1 0 2 1 2 0 1 1 1 2 1s2 0 2-1c1 0 1 0 1-1 0 0 0-1-1-1 0 0-1 0-2-1-2 0-3-1-3-1-1 0-1 0-2-1v-3l1-1c1-1 1-1 2-1h4c1 0 1 1 2 1 0 1 0 1 1 2l-3 1v-2h-4c-1 0-1 1-1 1v1h1s1 1 2 1 2 1 3 1 1 1 1 1c1 1 1 1 1 2s0 1-1 2l-1 1c-1 1-2 1-3 1-2 0-3-1-4-1-1-1-1-2-1-3z"/></g></svg>