<svg xmlns="http://www.w3.org/2000/svg" width="47" height="47" viewBox="0 0 47 47" shape-rendering="geometricPrecision" text-rendering="geometricPrecision" image-rendering="optimizeQuality" fill-rule="evenodd" clip-rule="evenodd"><defs><style>.fil1{fill:#fefefe}.fil0{fill:none}</style></defs><g id="Layer_x0020_1"><path class="fil0" d="M14 0h33v33c0 8-6 14-14 14H0V14C0 6 6 0 14 0z"/><g id="g4224"><path id="path4228" class="fil1" d="M22 38c-3 0-8-3-10-6-3-4-4-7-4-10 0-4 1-6 3-9h1l-1 1v4c0 3 1 6 2 8 4 5 9 8 14 8 4 0 8-1 10-3l2-1-1 1c-3 5-9 8-16 7zm4-10c-1 0-3-1-4-2-2-1-3-3-4-5-1-1-1-2-1-4 0-3 0-3 1-4 0-1 1-2 1-3h1v1c-1 1-1 2-1 3 0 2 0 3 1 4 3 6 10 9 16 7 1-1 2-1 2-2 1-1 1-1 0 1s-3 3-4 4c-2 0-6 1-8 0zm3-9c-1-1-3-2-3-3-1-2-1-5-1-6l1-1c0 2 0 5 2 7 2 1 4 2 6 2s3 0 4-1c0-1 0 0-1 1-1 2-5 2-8 1z"/></g></g></svg>