<svg xmlns="http://www.w3.org/2000/svg" width="47" height="47" viewBox="0 0 47 47" shape-rendering="geometricPrecision" text-rendering="geometricPrecision" image-rendering="optimizeQuality" fill-rule="evenodd" clip-rule="evenodd"><defs><style>.fil0{fill:none}.fil1{fill:#fefefe;fill-rule:nonzero}</style></defs><g id="Layer_x0020_1"><path class="fil0" d="M14 0h33v33c0 8-6 14-14 14H0V14C0 6 6 0 14 0z"/><path id="path3375" class="fil1" d="M29 29h1c0-1 0-1-1-1v1zM18 16l-4 3h-1v5h1l4 3 4-3v-5l-4-3zm5 21l-1-1c-1 0-1 0 0 0v-1l1 1 4-2v-5l-4-2-4 2v5h1c1 1 1 0 1 0v-5h1v5c0 1 0 1-1 1h-1l-1-1v-6l4-2h1l4 2v6l-4 3h-1zm-5-21zm22 4h1v2h-1v-2zm5 1v-2l-4-3h-1l-4 3v5l4 3h1l2-2-4-3v-1l1-1h1l1 1v1l3-1zm-14 1l-2 1-1-1v-1l1-1 2 1v1zm0-12v7h-1l-1-1-4 3v5l4 3 5-3V12l-3-2zm-20 9l-4-3H6l-4 3v7l3-2v-4h3v4l3 2v-7zm18 10zm0-1s1 0 1 1h-1 1-1v-1zm1 1s0 1-1 1v-2c1 0 1 0 1 1zm-6 5c-1 0-2-1-2-2h1c0 1 0 1 1 1s2 0 2-1h-2c-1 0-1-1-1-2 0 0 0-1 1-1 2 0 2 1 2 2-1-1-1-1-2-1h-1c0 1 0 1 2 1 1 0 1 0 1 1s0 2-2 2z"/></g></svg>