<svg xmlns="http://www.w3.org/2000/svg" width="47" height="47" viewBox="0 0 47 47" shape-rendering="geometricPrecision" text-rendering="geometricPrecision" image-rendering="optimizeQuality" fill-rule="evenodd" clip-rule="evenodd"><defs><style>.str0{stroke:#fefefe;stroke-width:2.07153}.fil1{fill:none}.fil2{fill:#fefefe}.fil0{fill:none}</style></defs><g id="Layer_x0020_1"><path class="fil0" d="M14 0h33v33c0 8-6 14-14 14H0V14C0 6 6 0 14 0z"/><path class="fil1 str0" d="M9 37h29V10H9z" id="Layer_2"/><path class="fil2" d="M15 16h4c2 0 3 1 4 1 1 1 1 2 1 3 0 2 0 3-1 3-1 2-2 2-4 2h-1v4h-3V16zm3 7c2 0 3-1 3-3 0 0 0-2-2-2h-1v5zm7 3c1 1 2 1 3 1s1 0 1-1l-2-1-2-2c0-3 2-4 4-4 1 0 2 1 3 1v2c-1 0-3-1-3-1-1 0-1 1-1 1 0 1 0 1 1 1 2 1 3 2 3 3 0 2-2 3-4 3h-3v-3z" id="Layer_4"/></g></svg>