<svg xmlns="http://www.w3.org/2000/svg" width="47" height="47" viewBox="0 0 47 47" shape-rendering="geometricPrecision" text-rendering="geometricPrecision" image-rendering="optimizeQuality" fill-rule="evenodd" clip-rule="evenodd"><defs><style>.str0,.str1,.str2{stroke:#fefefe}.str2{stroke-width:.89535}.str0{stroke-width:1.74605}.str1{stroke-width:2.07153}.fil1{fill:none}.fil2{fill:#fefefe}.fil0{fill:none}</style></defs><g id="Layer_x0020_1"><path class="fil0" d="M14 0h33v33c0 8-6 14-14 14H0V14C0 6 6 0 14 0z"/><path class="fil1 str0" d="M17 20c3-5 5-8 8-10 3-3 7-4 8-3 2 1 3 4 2 9-1 3-3 7-5 11s-5 8-8 10c-3 3-7 4-8 3-2-1-3-4-2-8s3-8 5-12z"/><path class="fil1 str1" d="M17 27c-2-4-4-8-5-12s0-7 2-8c1-1 5 0 8 3 3 2 6 6 8 10s4 8 5 12 0 7-2 8c-1 1-4 0-8-2-2-3-5-7-8-11z"/><path class="fil1 str0" d="M24 16c4 0 9 1 12 2 5 1 7 3 7 5s-3 5-7 6c-3 1-8 2-12 2-5 0-10-1-13-2-4-1-7-4-7-6s2-4 6-5 9-2 14-2z"/><path class="fil2 str2" d="M27 23c0-2-1-3-3-3s-4 1-4 3 2 4 4 4 3-2 3-4z"/></g></svg>