<svg xmlns="http://www.w3.org/2000/svg" width="47" height="47" viewBox="0 0 47 47" shape-rendering="geometricPrecision" text-rendering="geometricPrecision" image-rendering="optimizeQuality" fill-rule="evenodd" clip-rule="evenodd"><defs><style>.fil1{fill:#fefefe}.fil0{fill:none}</style></defs><g id="Layer_x0020_1"><path class="fil0" d="M14 0h33v33c0 8-6 14-14 14H0V14C0 6 6 0 14 0z"/><g id="_1057519568"><path class="fil1" d="M13 20l1 1v3c0 1 0 1 1 2v1c0 1 1 1 1 1v1c-1 2 1 4 3 3 1 0 1-1 1-1v-2s0-1-1-1h-1s-1 0-1-1v-1l-1-1V15l1-1c0-1 1-1 1-2h1c0-1 0-1 1-1 0 0 1-1 2-1h3v1h1l1 1 1 1c1 1 1 3 1 4v1h2v-2c0-1 0-2-1-3v-1l-1-1h-1l-1-1c0-1-1-1-1-1-1 0-1-1-1-1h-3c-1 0-2 0-2 1-1 0-2 1-3 1v1h-1v1l-1 1c0 1-1 2-1 3v3l-1 1z"/><path class="fil1" d="M19 20v1c1 1 1 1 2 1s1 0 2-1h5c1 0 1 0 1 1h1s1 0 2 1c1 0 1 1 1 1l1 1h1v1s1 0 1 1 1 1 1 2v3c0 1 0 2-1 2v1h-1v1h-1c-2 1-4 1-6 0h-1l-2 1 1 1h2c1 1 2 1 3 1h2v-1h2l1-1s1 0 1-1l1-1c1-1 1-2 1-3v-3c0-1-1-2-1-3l-1-1s0-1-1-1v-1c-1 0-1 0-1-1h-1c-1 0-1-1-1-1h-1s-1-1-2-1h-1c-1-1-2-1-3-1h-3c0-1-1-1-2-1h-1s-1 0-1 1v1z"/><path class="fil1" d="M15 39h2l1-1c1 0 2 0 3-1h2c0-1 1-1 1-1l1-1 1-1 1-1c1-1 2-2 2-3s0 0 1-1h1c0-1 1-1 0-2 0-2-2-2-3-2v1c-1 0-1 2-1 3h1c-1 0-1 1-1 1l-1 1s0 1-1 1v1h-1l-1 1c-1 1-2 1-2 1-1 1-2 1-2 1h-1l-1 1h-2c-2 0-3-1-4-2h-1v-1l-1-1v-4c0-1 1-2 1-2l1-1 1-1v-3l-1 1-1 1-1 1-1 1c0 1 0 1-1 2v5s0 1 1 1v1l1 1v1h2c1 1 2 1 3 2h1z"/></g></g></svg>