<svg xmlns="http://www.w3.org/2000/svg" width="47" height="47" viewBox="0 0 47 47" shape-rendering="geometricPrecision" text-rendering="geometricPrecision" image-rendering="optimizeQuality" fill-rule="evenodd" clip-rule="evenodd"><defs><style>.str2,.str4{stroke:#fefefe}.str4{stroke-width:.656825}.str2{stroke-width:3.10787}.str0,.str1{stroke-width:1.1045}.str0,.str1,.str3,.str5{stroke:#fefefe}.str3{stroke-width:1.10803}.str5{stroke-width:2.07153}.fil2{fill:none}.fil3{fill:#fefefe}.fil0{fill:none}.fil1{fill:#fefefe;fill-rule:nonzero}</style></defs><g id="Layer_x0020_1"><path class="fil0" d="M14 0h33v33c0 8-6 14-14 14H0V14C0 6 6 0 14 0z"/><g id="_888447344"><path class="fil1 str0" d="M34 35h3v2l4-3-4-3v2h-3z"/><path class="fil1 str1" d="M13 25l1 2h-2l3 3 2-3h-2v-3z"/><path class="fil2 str2" d="M14 27v-2c0-5 4-9 9-9 6 0 10 4 10 9 0 4-2 7-6 9"/><path class="fil3 str3" d="M7 33h27v2H7z"/><path class="fil1 str4" d="M17 11l1 1v-1l2 2-3 1v-2h-1z"/><path class="fil2 str5" d="M18 12h-1c-3-2-6 0-7 2-2 3-1 6 2 8h1"/></g></g></svg>