<svg xmlns="http://www.w3.org/2000/svg" width="512" height="512" viewBox="0 0 512 512"><path d="M453.499 256.676c0-20.459-3.164-40.263-8.899-58.819L356.423 426.69c58.082-34.365 97.075-97.618 97.075-170.014zM193.628 443.884c19.63 6.594 40.642 10.137 62.526 10.137 22.866 0 44.769-3.87 65.188-11.029L261.1 286.812l-67.471 157.072zM66.837 200.888a197.047 197.047 0 0 0-8.059 55.787c0 73.954 40.714 138.393 100.894 172.155L67.441 202.127l-.604-1.239z"/><path d="M167.383 188.16l-8.478-.379c-18.494-.307-16.446 18.893-16.446 18.893l65.618 164.577 44.114-105.37-24.627-62.7c-9.861-16.578-33.925-16.404-33.925-16.404v-8.734h137.974l-.205 9.687-14.356.891c-17.879 0-14.264 17.008-14.264 17.008l59.873 159.939 17.162-44.288c30.443-69.017 11.663-120.094 11.663-120.094-30.485-62.72 8.038-71.721 8.038-71.721a72.136 72.136 0 0 1 6.963-.645c-36.199-42.537-90.122-69.519-150.323-69.519-81.398 0-151.316 49.326-181.474 119.706l92.365-.952.327 10.107z"/><path d="M477.839 256.021c0 122.306-99.522 221.839-221.798 221.839-122.338 0-221.86-99.533-221.86-221.839 0-122.338 99.522-221.829 221.86-221.829 122.276.01 221.798 99.492 221.798 221.829zM256.041 23.972c-127.939 0-232.048 104.11-232.048 232.059s104.11 232.007 232.048 232.007c127.918 0 231.957-104.059 231.957-232.007 0-127.949-104.038-232.059-231.957-232.059z"/></svg>