<?xml version="1.0" encoding="UTF-8"?>
<!DOCTYPE svg PUBLIC "-//W3C//DTD SVG 1.1//EN" "http://www.w3.org/Graphics/SVG/1.1/DTD/svg11.dtd">
<!-- Creator: CorelDRAW X7 -->
<svg xmlns="http://www.w3.org/2000/svg" xml:space="preserve" width="47px" height="47px" version="1.1" style="shape-rendering:geometricPrecision; text-rendering:geometricPrecision; image-rendering:optimizeQuality; fill-rule:evenodd; clip-rule:evenodd"
viewBox="0 0 47 47"
 xmlns:xlink="http://www.w3.org/1999/xlink">
 <defs>
  <style type="text/css">
   <![CDATA[
    .fil1 {fill:#FEFEFE}
    .fil0 {fill:none}
   ]]>
  </style>
 </defs>
 <g id="Layer_x0020_1">
  <metadata id="CorelCorpID_0Corel-Layer"/>
  <path class="fil0" d="M14 0l33 0 0 33c0,8 -6,14 -14,14l-33 0 0 -33c0,-8 6,-14 14,-14z"/>
  <path class="fil1" d="M12 11l2 23 10 2 9 -2 2 -23 -23 0zm18 7l-10 0 0 3 10 0 -1 9 -5 1 0 0 0 0 -6 -1 -1 -5 3 0 0 3 4 0 3 0 0 -4 -10 0 -1 -9 15 0 -1 3z"/>
 </g>
</svg>
