<?xml version="1.0" encoding="UTF-8"?>
<!DOCTYPE svg PUBLIC "-//W3C//DTD SVG 1.1//EN" "http://www.w3.org/Graphics/SVG/1.1/DTD/svg11.dtd">
<!-- Creator: CorelDRAW X7 -->
<svg xmlns="http://www.w3.org/2000/svg" xml:space="preserve" width="47px" height="47px" version="1.1" style="shape-rendering:geometricPrecision; text-rendering:geometricPrecision; image-rendering:optimizeQuality; fill-rule:evenodd; clip-rule:evenodd"
viewBox="0 0 47 47"
 xmlns:xlink="http://www.w3.org/1999/xlink">
 <defs>
  <style type="text/css">
   <![CDATA[
    .fil1 {fill:#FEFEFE}
    .fil0 {fill:none}
   ]]>
  </style>
 </defs>
 <g id="Layer_x0020_1">
  <metadata id="CorelCorpID_0Corel-Layer"/>
  <path class="fil0" d="M14 0l33 0 0 33c0,8 -6,14 -14,14l-33 0 0 -33c0,-8 6,-14 14,-14z"/>
  <g id="g4224">
   <path id="path4228" class="fil1" d="M22 38c-3,0 -8,-3 -10,-6 -3,-4 -4,-7 -4,-10 0,-4 1,-6 3,-9l1 0 -1 1c0,1 0,2 0,4 0,3 1,6 2,8 4,5 9,8 14,8 4,0 8,-1 10,-3l2 -1 -1 1c-3,5 -9,8 -16,7l0 0zm4 -10c-1,0 -3,-1 -4,-2 -2,-1 -3,-3 -4,-5 -1,-1 -1,-2 -1,-4 0,-3 0,-3 1,-4 0,-1 1,-2 1,-3l1 0 0 1c-1,1 -1,2 -1,3 0,2 0,3 1,4 3,6 10,9 16,7 1,-1 2,-1 2,-2 1,-1 1,-1 0,1 -1,2 -3,3 -4,4 -2,0 -6,1 -8,0l0 0zm3 -9c-1,-1 -3,-2 -3,-3 -1,-2 -1,-5 -1,-6 1,-1 2,-2 1,-1 0,2 0,5 2,7 2,1 4,2 6,2 2,0 3,0 4,-1 0,-1 0,0 -1,1 -1,2 -5,2 -8,1l0 0z" />
  </g>
 </g>
</svg>
