<?xml version="1.0" encoding="UTF-8"?>
<!DOCTYPE svg PUBLIC "-//W3C//DTD SVG 1.1//EN" "http://www.w3.org/Graphics/SVG/1.1/DTD/svg11.dtd">
<!-- Creator: CorelDRAW X7 -->
<svg xmlns="http://www.w3.org/2000/svg" xml:space="preserve" width="2480px" height="3508px" version="1.1" style="shape-rendering:geometricPrecision; text-rendering:geometricPrecision; image-rendering:optimizeQuality; fill-rule:evenodd; clip-rule:evenodd"
viewBox="0 0 2480 3507"
 xmlns:xlink="http://www.w3.org/1999/xlink"
 xmlns:dc="http://purl.org/dc/elements/1.1/"
 xmlns:cc="http://creativecommons.org/ns#"
 xmlns:rdf="http://www.w3.org/1999/02/22-rdf-syntax-ns#"
 xmlns:svg="http://www.w3.org/2000/svg"
 xmlns:sodipodi="http://sodipodi.sourceforge.net/DTD/sodipodi-0.dtd"
 xmlns:inkscape="http://www.inkscape.org/namespaces/inkscape"
 inkscape:version="0.48.4 r9939"
 sodipodi:docname="xchat logo.svg">
 <defs>
  <style type="text/css">
   <![CDATA[
    .fil0 {fill:#FEFEFE}
    .fil1 {fill:#FEFEFE;fill-rule:nonzero}
   ]]>
  </style>
 </defs>
 <g id="Layer_x0020_1">
  <metadata id="CorelCorpID_0Corel-Layer"/>
  <sodipodi:namedview id="base" pagecolor="#ffffff" bordercolor="#666666" borderopacity="1.0" inkscape:pageopacity="0.0" inkscape:pageshadow="2" inkscape:zoom="0.9899495" inkscape:cx="448.14133" inkscape:cy="27.563646" inkscape:document-units="px" inkscape:current-layer="layer1" showgrid="false" inkscape:window-width="1278" inkscape:window-height="1004" inkscape:window-x="0" inkscape:window-y="18" inkscape:window-maximized="0"/>
  <g id="_1185509040">
   <path class="fil0" d="M1207 982c0,1 0,1 -1,2 -1,1 -2,3 -3,4 -1,2 -2,4 -3,6 -2,2 -3,4 -4,6 -2,2 -3,5 -4,7 -1,2 -3,4 -4,5 -1,2 -1,3 -2,5 -1,1 -1,1 -1,2 -1,0 -1,1 -2,2 -1,0 -1,1 -2,2 -1,0 -2,1 -2,1 -1,1 -2,1 -3,1 -1,-1 -2,-1 -2,-2 0,-1 0,-3 0,-5 0,0 0,-1 0,-1 1,0 1,-1 1,-1 0,-1 1,-2 2,-4 1,-2 2,-4 4,-6 1,-3 2,-5 4,-7 2,-3 3,-5 4,-7 -2,2 -5,3 -8,5 -3,2 -6,3 -9,4 -3,1 -6,2 -9,2 -3,1 -5,1 -8,0 -2,-1 -4,-2 -6,-3 -2,-2 -3,-4 -4,-6 0,-3 -1,-5 -1,-8 0,-2 1,-5 1,-7 0,0 1,-1 1,-1 0,0 0,-1 0,-1 1,-4 3,-8 5,-13 3,-4 5,-8 8,-12 3,-4 6,-8 9,-12 4,-4 7,-7 11,-11 3,-3 7,-6 11,-8 3,-3 7,-5 11,-6 3,-2 7,-3 10,-3 4,-1 7,0 10,0 4,1 7,3 10,6 2,3 5,7 6,12 1,1 1,2 1,3 0,1 -1,2 -1,3 0,2 -1,3 -3,4 -1,1 -2,1 -4,1 -1,0 -2,-1 -2,-3 -1,-1 -2,-4 -2,-6 -1,-3 -2,-5 -3,-6 -2,-2 -3,-2 -5,-3 -2,-1 -6,0 -9,1 -4,2 -8,4 -12,7 -4,2 -8,6 -12,10 -4,4 -7,8 -11,12 -3,5 -6,9 -9,14 -2,4 -4,8 -5,12 0,1 -1,3 -1,4 0,1 0,3 0,4 0,1 1,2 1,3 1,1 2,2 3,2 2,0 3,0 5,0 3,-1 5,-1 7,-2 2,-1 5,-3 7,-4 3,-2 5,-3 7,-5 3,-1 5,-3 6,-4 2,-2 4,-3 5,-4l9 -15c1,-1 3,-2 4,-3 1,0 2,0 3,0 1,0 1,0 2,1 0,0 1,0 1,1 0,0 1,1 1,2 0,0 0,1 0,2 -1,2 -2,4 -3,6 -1,2 -2,4 -3,5 -1,2 -2,3 -3,5 -1,2 -3,4 -4,5z"/>
   <path class="fil0" d="M1276 1015c-2,2 -5,4 -7,5 -3,2 -6,3 -9,4 -3,1 -5,2 -8,2 -3,1 -5,1 -7,0 -1,0 -3,-1 -4,-3 0,-1 0,-4 0,-7 1,-2 2,-4 3,-7 -1,2 -3,3 -5,5 -2,1 -4,2 -6,3 -3,1 -5,2 -8,2 -3,1 -5,0 -8,0 -1,-1 -2,-1 -4,-2 -1,-1 -2,-1 -2,-2 -1,-1 -1,-3 -1,-4 -1,-1 -1,-3 0,-5 0,0 0,-1 1,-2 0,-1 1,-3 3,-6 2,-3 4,-6 7,-10 3,-4 7,-9 12,-15 1,-2 2,-3 3,-3 2,0 3,-1 4,0 1,0 1,0 2,0 0,1 1,1 1,2 1,0 1,1 1,1 0,1 0,2 0,2 0,1 0,1 -1,1 0,1 -1,2 -2,3 -1,1 -2,2 -3,4 -1,1 -3,3 -4,4 -2,2 -3,4 -4,5 -2,2 -3,4 -4,6 -1,2 -2,4 -3,6 0,1 0,1 0,2 1,1 1,1 2,2 3,0 5,0 8,-1 3,-1 5,-2 8,-4 2,-2 5,-4 7,-7 2,-2 4,-4 6,-6 1,-2 2,-3 3,-5 1,-1 2,-3 3,-4 1,-2 3,-3 4,-3 1,-1 2,-1 3,-1 2,0 3,1 3,2 1,2 1,3 0,4 0,1 0,2 -1,4 -1,1 -2,2 -4,4 -1,2 -2,3 -4,5 -1,2 -3,4 -4,6 -1,2 -3,4 -4,6 -1,2 -2,4 -2,5 0,2 0,3 2,3 1,1 3,1 5,0 2,0 4,-1 6,-2 2,0 5,-2 7,-3 3,-2 5,-3 7,-5l-2 9z"/>
   <path class="fil0" d="M1279 1012c-1,1 -1,2 -2,4 -1,1 -2,2 -2,3 0,1 0,1 0,2 0,0 1,1 1,1 1,0 2,0 3,0 2,-1 3,-1 5,-1 2,-1 3,-2 5,-3 2,0 4,-1 6,-2 2,-1 3,-2 5,-3 2,-1 3,-2 5,-2 0,-1 1,-1 1,-1 0,0 1,0 1,0 1,1 1,1 2,2 0,1 0,1 0,3 0,0 -1,1 -2,2 -1,2 -2,2 -4,3 -3,2 -6,4 -9,6 -3,2 -6,3 -9,4 -3,1 -6,2 -9,3 -3,0 -5,0 -7,-1 -2,0 -3,-1 -4,-1 -1,-1 -2,-2 -2,-3 0,-1 -1,-2 -1,-4 0,-1 1,-2 1,-3 1,-3 2,-5 3,-7 1,-2 2,-4 3,-6 3,-3 5,-6 7,-9 3,-4 5,-6 7,-9l29 -39c1,-2 2,-3 4,-3 1,-1 2,-1 4,0 1,0 2,1 3,2 0,1 0,2 0,4 0,1 -1,1 -1,2 -1,1 -1,2 -2,3 -2,2 -4,4 -6,7 -2,2 -4,5 -7,9 -2,3 -5,6 -7,10 -3,3 -6,7 -8,10 -3,3 -5,6 -7,9 -3,3 -4,6 -6,8z"/>
   <path class="fil0" d="M1364 1022c0,0 1,-1 2,-1 0,0 1,0 1,0 1,0 1,1 2,2 0,1 0,2 -1,3 0,1 0,2 -1,3 -1,1 -2,2 -3,3 -5,2 -10,5 -14,7 -4,2 -8,4 -11,5 -4,1 -7,2 -10,3 -3,0 -6,0 -9,-1 -3,-1 -5,-2 -6,-4 -2,-1 -2,-3 -1,-5 0,-1 0,-1 0,-1 0,0 0,0 0,-1 0,-1 1,-2 3,-4 1,-1 3,-3 5,-4 2,-2 4,-3 6,-5 3,-1 5,-3 6,-4 2,-2 4,-3 5,-4 2,-1 2,-2 3,-3 0,-1 0,-1 -1,-2 0,0 -1,0 -1,-1 -2,0 -4,0 -6,0 -1,1 -3,1 -5,2 -2,1 -4,2 -6,4 -2,1 -4,2 -6,4 -2,1 -3,3 -5,4 -2,2 -3,4 -4,5 -1,0 -1,1 -2,2 0,1 -1,1 -2,2 -1,1 -2,3 -2,4 -1,1 -2,2 -3,3 -1,1 -1,1 -2,2 0,1 -1,1 -1,2 0,0 -1,1 -2,2 0,1 -1,2 -2,3 -1,2 -2,3 -3,5 -1,1 -2,3 -3,4 -1,1 -2,2 -3,3 -1,1 -1,2 -1,3 -1,1 -2,2 -3,3 0,0 -1,1 -2,2 -1,0 -2,1 -3,1 -1,0 -2,0 -3,0 -1,0 -3,-1 -3,-2 -1,-1 -1,-2 -1,-4 1,-1 1,-2 2,-3 0,-1 1,-1 1,-2 1,-1 1,-2 2,-3 1,-1 1,-1 2,-2 3,-4 6,-8 10,-12 3,-4 6,-8 9,-12 4,-4 7,-8 9,-12 3,-4 6,-7 8,-11 1,-1 1,-2 2,-3 1,-1 2,-3 3,-4 1,-1 2,-2 4,-3 1,-1 2,-1 3,-1 1,0 2,1 3,2 0,1 0,2 0,3 0,1 0,1 0,2 -1,0 -1,1 -1,1 0,1 -1,2 -1,2 0,1 -1,1 -1,1 2,-1 4,-2 6,-3 2,-1 4,-2 6,-3 2,-1 4,-1 7,-1 2,-1 4,-1 5,0 2,0 3,1 4,2 1,0 2,1 3,2 1,1 1,2 2,3 0,2 0,3 -1,4 0,2 -1,4 -3,6 -1,2 -3,4 -5,5 -2,2 -4,4 -6,5 -2,2 -4,3 -6,5 -2,1 -4,2 -5,3 -1,1 -2,1 -2,2 0,0 0,1 0,1 0,1 1,1 2,1 0,0 1,0 3,0 1,0 3,-1 6,-2 3,-2 6,-3 11,-5 4,-2 9,-5 16,-8z"/>
  </g>
  <g id="_1185498192">
   <path class="fil0" d="M785 893l-57 57 47 48 -10 9 39 38 9 -10 84 85 57 -56 -169 -171 0 0 0 0zm0 19l-38 38 18 18 29 -28 10 10 -29 29 10 9 37 -38 9 9 -46 48 19 19 37 -38 10 10 -20 19 -9 -10 -9 10 18 18 38 -37 10 9 -38 38 19 19 28 -29 9 10 -28 28 10 9 28 -28 10 10 -29 28 9 9 38 -37 -150 -152 0 0 0 0zm0 -19l0 0 0 0zm0 19l0 0 0 0z"/>
   <g>
    <path id="_1" class="fil0" d="M785 893l-57 57 47 48 -10 9 39 38 9 -10 84 85 57 -56 -169 -171zm0 19l-38 38 18 18 29 -28 10 10 -29 29 10 9 37 -38 9 9 -46 48 19 19 37 -38 10 10 -20 19 -9 -10 -9 10 18 18 38 -37 10 9 -38 38 19 19 28 -29 9 10 -28 28 10 9 28 -28 10 10 -29 28 9 9 38 -37 -150 -152zm0 -19l0 0 0 0zm0 19l0 0 0 0z"/>
   </g>
  </g>
  <g>
   <g id="_1185499504">
    <path class="fil0" d="M969 1580l-54 -30 0 -16 54 -30 0 20 -38 18 38 19c0,0 0,19 0,19l0 0z"/>
    <polygon class="fil0" points="979,1591 1015,1494 1027,1494 990,1591 "/>
    <polygon class="fil0" points="1039,1580 1039,1561 1077,1542 1039,1524 1039,1504 1094,1534 1094,1550 "/>
   </g>
   <g id="_1185499728">
   </g>
   <g id="_1185528048">
   </g>
   <g id="_1185500592">
   </g>
   <g id="_1185500880">
   </g>
   <g id="_1185500240">
   </g>
   <g id="_1185503632">
   </g>
   <g id="_1185501392">
   </g>
   <g id="_1185545008">
   </g>
   <g id="_1185537776">
   </g>
   <g id="_1185537168">
   </g>
   <g id="_1185536912">
   </g>
   <g id="_1185536240">
   </g>
   <g id="_1185544016">
   </g>
   <g id="_1185535792">
   </g>
   <g id="_1185531984">
   </g>
  </g>
  <path class="fil1" d="M592 1385l-70 -71c-4,-4 -11,-4 -15,0l-15 15 19 18c4,-1 9,0 13,3 3,4 4,9 2,13l18 18c4,-2 10,-1 13,3 5,5 5,12 0,17 -5,5 -13,5 -18,0 -3,-4 -4,-9 -2,-13l-17 -17 0 44c1,1 3,1 4,2 4,5 4,13 0,18 -5,4 -13,4 -18,0 -5,-5 -5,-13 0,-18 1,-1 2,-2 4,-2l0 -45c-2,0 -3,-1 -4,-3 -4,-3 -5,-8 -3,-13l-18 -18 -48 48c-4,4 -4,11 0,15l70 70c2,2 5,3 8,3l0 0c2,0 5,-1 7,-3l70 -70c4,-4 4,-10 0,-14l0 0z"/>
  <path class="fil0" d="M1742 1208c-10,0 -19,2 -27,6 -2,-6 -5,-10 -6,-14 0,-4 -1,-7 0,-12 0,-5 3,-12 3,-12 0,-1 0,-4 -6,-4 -7,0 -12,2 -12,3 -1,2 -2,5 -3,9 -1,5 -12,25 -18,35 -2,-4 -3,-7 -4,-10 -1,-4 -1,-7 -1,-12 1,-5 4,-12 4,-13 0,0 0,-3 -7,-3 -6,0 -11,1 -11,3 -1,1 -2,5 -3,9 -1,4 -15,36 -20,44 -2,5 -3,8 -4,10 -2,3 -1,0 -1,1 -1,2 -1,3 -1,3l0 0c-1,1 -2,3 -2,3 -1,0 -1,-4 0,-9 2,-12 7,-29 7,-30 0,0 1,-3 -3,-5 -5,-1 -6,1 -6,1 -1,0 -1,1 -1,1 0,0 5,-20 -9,-20 -8,0 -21,10 -26,18 -4,2 -12,7 -20,11 -3,2 -7,4 -10,5l-1 0c-16,-18 -47,-30 -46,-54 1,-9 4,-32 60,-60 45,-22 81,-16 88,-2 9,20 -20,57 -67,62 -18,2 -27,-5 -30,-8 -3,-2 -3,-3 -4,-2 -1,1 -1,3 0,5 1,3 8,10 17,13 9,3 30,4 56,-6 28,-10 51,-41 45,-67 -8,-27 -51,-35 -92,-20 -25,8 -51,22 -70,40 -23,21 -27,40 -25,47 6,28 43,45 58,59 -1,0 -1,1 -2,1 -7,4 -36,18 -43,35 -8,17 1,30 7,32 20,6 39,-4 50,-20 11,-16 10,-37 4,-46l0 -1 7 -3c3,-3 7,-5 10,-7 -1,5 -3,12 -3,20 -1,11 3,24 8,29 3,3 6,3 7,3 7,0 10,-6 13,-12 4,-8 8,-17 8,-17 0,0 -5,25 7,25 4,0 9,-6 11,-9l0 0c0,0 0,0 0,-1 0,-1 1,-1 1,-1l0 0c1,-3 6,-10 11,-21 8,-15 15,-34 15,-34 0,0 1,5 3,12 1,5 4,9 6,15 -2,2 -3,3 -3,3l0 0c-1,2 -3,4 -4,6 -6,7 -13,15 -14,17 -1,3 -1,5 1,7 2,1 4,2 7,1 6,0 9,-2 11,-3 3,-1 6,-2 10,-4 6,-5 9,-11 9,-19 0,-4 -2,-9 -4,-13 1,-1 2,-2 2,-2 9,-14 16,-28 16,-28 0,0 1,4 3,12 1,3 3,7 5,11 -8,7 -14,16 -16,21 -3,10 0,14 5,15 2,1 5,0 8,-1 3,-1 7,-3 10,-5 6,-5 11,-11 11,-19 0,-4 -1,-7 -2,-11 7,-3 16,-4 28,-3 26,3 32,19 31,26 -2,7 -7,10 -9,12 -2,1 -2,1 -2,2 0,1 1,1 2,1 3,-1 14,-6 15,-18 0,-16 -15,-33 -42,-33l0 0 0 0zm-200 67c-8,9 -20,13 -25,10 -6,-3 -4,-17 7,-27 6,-6 15,-12 20,-15 1,-1 3,-2 5,-3 1,0 1,-1 1,-1 0,0 1,0 1,0 4,14 0,26 -9,36l0 0zm63 -42c-3,7 -9,25 -13,24 -3,-1 -5,-15 -1,-29 2,-7 8,-15 11,-18 4,-5 9,-7 11,-5 1,3 -6,23 -8,28l0 0 0 0zm52 24c-2,1 -3,1 -3,1 -1,-1 0,-1 0,-1 0,0 7,-7 9,-10 1,-2 3,-4 5,-7l0 1c0,8 -8,14 -11,16l0 0zm39 -9c-1,-1 0,-3 3,-9 1,-3 4,-8 9,-12 0,2 1,3 1,5 0,11 -8,14 -13,16z"/>
  <g>
   <path id="XMLID_49_" class="fil0" d="M930 1385l0 6c0,5 -3,8 -8,9l-1 5c-1,3 -3,5 -6,5l-15 0c-3,0 -6,-2 -7,-5l-1 -5c-4,-1 -8,-4 -8,-9l0 -6c0,-3 3,-6 6,-6l35 0c3,0 5,3 5,6zm27 -80c0,14 -5,26 -14,35 -7,7 -11,15 -12,25 -1,3 -4,6 -8,6l-31 0c-4,0 -8,-2 -8,-6 -2,-10 -6,-18 -13,-25 -8,-9 -14,-21 -14,-34 0,-28 22,-51 50,-51 28,0 50,22 50,50l0 0zm-44 -30c0,-3 -3,-6 -6,-6 -20,0 -36,16 -36,36 0,3 2,6 6,6 3,0 6,-2 6,-6 0,-14 11,-25 24,-25 3,0 6,-2 6,-5zm-6 -36c3,0 6,-3 6,-6l0 -20c0,-3 -3,-5 -6,-5 -3,0 -6,2 -6,5l0 20c0,3 3,6 6,6zm-66 66c0,-3 -3,-6 -6,-6l-19 0c-3,0 -6,3 -6,6 0,3 2,6 6,6l19 0c3,0 6,-3 6,-6zm158 -6l-20 0c-3,0 -6,3 -6,6 0,3 3,6 6,6l20 0c3,0 6,-3 6,-6 0,-3 -3,-6 -6,-6zm-147 53l-14 14c-2,2 -2,5 0,8 2,1 3,2 5,2 1,0 2,-1 3,-2l14 -14c2,-2 2,-6 0,-8 -2,-2 -5,-2 -8,0zm106 -92c2,0 3,-1 4,-2l14 -14c2,-2 2,-5 0,-8 -2,-2 -6,-2 -8,0l-14 14c-2,2 -2,6 0,8 1,1 3,2 4,2l0 0zm-106 -2c1,1 3,2 4,2 2,0 3,-1 4,-2 2,-2 2,-6 0,-8l-14 -14c-2,-2 -5,-2 -8,0 -2,2 -2,6 0,8l14 14 0 0zm110 94c-2,-2 -6,-2 -8,0 -2,2 -2,6 0,8l14 14c1,1 3,2 4,2 1,0 3,-1 4,-2 2,-3 2,-6 0,-8l-14 -14z"/>
  </g>
  <g>
   <path class="fil0" d="M2021 1500c-4,-4 -7,-8 -11,-10 -3,-3 -7,-5 -12,-6 -5,-1 -9,-2 -12,-3 -3,0 -7,0 -11,0 -3,0 -6,1 -7,1 -1,0 -2,0 -3,0 9,-6 18,-13 25,-21l2 1c1,1 2,2 4,3 1,2 4,3 6,5 3,2 5,3 8,5 3,1 6,2 10,3 3,1 6,1 10,1 4,0 8,-1 12,-2 3,-1 7,-4 11,-7 4,-3 8,-7 11,-12 -3,-4 -7,-8 -11,-11 -4,-2 -7,-4 -11,-5 -3,-2 -8,-2 -12,-2 -4,0 -7,0 -10,0 -3,1 -5,1 -8,2 -3,1 -5,2 -6,2 -1,1 -1,1 -2,1 1,-1 3,-3 5,-6 2,-3 3,-4 3,-5l2 -1c1,-1 2,-2 4,-3 2,-1 4,-3 6,-4 2,-2 4,-4 6,-7 2,-2 4,-5 5,-8 3,-2 4,-5 5,-9 1,-4 1,-8 1,-11 0,-4 -1,-8 -3,-13 -2,-4 -5,-9 -8,-14 -6,2 -12,5 -16,8 -4,4 -7,8 -9,11 -2,4 -3,8 -5,13 -1,5 -1,9 -1,12 0,4 1,7 1,11 2,4 2,6 3,7 0,1 0,2 1,3 -4,5 -9,11 -15,18l1 -2c0,-1 1,-3 1,-5 1,-2 1,-4 1,-7 1,-3 1,-5 0,-9 0,-3 0,-6 -1,-9 0,-3 -2,-6 -3,-9 -2,-3 -4,-6 -7,-9 -2,-3 -6,-5 -10,-8 -4,-2 -10,-4 -15,-5 -3,5 -5,9 -6,14 -1,5 -1,9 -1,12 0,4 1,8 3,11 1,4 3,7 5,10 2,3 4,5 6,8 3,2 6,5 8,6 2,2 4,3 6,5 2,1 4,2 5,2 0,1 1,1 1,1 -8,9 -17,17 -26,22 0,-3 0,-8 0,-11 0,-4 -1,-8 -3,-13 -2,-5 -5,-9 -8,-13 -3,-4 -8,-9 -15,-12 -7,-4 -15,-7 -24,-9 -1,7 -2,13 -2,19 -1,6 0,11 1,15 1,4 3,8 5,11 2,3 4,6 6,9 3,2 5,4 9,6 3,2 6,3 9,4 2,1 5,2 8,3 -15,7 -29,11 -43,11 -14,0 -26,-4 -37,-11 -1,-1 -3,-1 -4,-1 -1,0 -2,1 -4,2 0,1 -1,2 0,4 0,1 1,2 2,3 13,9 28,14 45,13 16,-1 33,-6 50,-15l1 2c0,2 1,3 3,5 1,2 2,5 4,7 2,3 5,6 7,8 3,3 6,5 9,7 3,3 6,4 10,6 4,1 8,2 12,2 5,0 9,-1 15,-3 5,-1 10,-4 15,-7 -1,-7 -4,-12 -7,-17l0 0z"/>
  </g>
  <g id="g4224">
   <path id="path4228" class="fil0" d="M472 1263c-16,-2 -36,-13 -46,-27 -10,-14 -15,-27 -15,-43 0,-13 4,-23 14,-34l3 -4 -3 7c-1,4 -2,8 -2,16 0,13 3,24 11,36 14,20 35,32 59,33 17,1 31,-3 42,-13l6 -6 -3 5c-12,23 -37,34 -66,30l0 0 0 0zm17 -42c-6,-1 -13,-4 -19,-9 -8,-6 -12,-11 -16,-21 -3,-6 -4,-7 -4,-18 0,-11 0,-12 4,-18 2,-3 4,-8 6,-9l2 -3 -2 5c-2,5 -2,8 -2,15 1,8 1,10 5,17 12,26 42,38 65,27 4,-1 9,-5 11,-7 5,-5 5,-3 0,5 -4,6 -12,12 -19,15 -7,2 -24,3 -31,1l0 0 0 0zm13 -38c-7,-3 -13,-8 -16,-15 -4,-7 -4,-18 -1,-24 3,-6 5,-7 3,-3 -2,9 1,19 10,28 6,6 14,10 24,10 7,0 11,-1 15,-5 3,-3 3,-2 -2,4 -6,8 -22,11 -33,5l0 0 0 0z"/>
  </g>
  <g>
   <path class="fil0" d="M1963 1234l0 8c1,5 1,7 2,12 1,3 2,6 3,9 0,1 1,2 1,3l2 4c1,1 1,3 2,4l1 2c1,1 1,1 0,2 -4,9 5,18 14,14 3,-1 5,-3 6,-6 1,-1 1,-2 1,-3 0,-1 0,-1 0,-1 0,-1 0,-2 -1,-3 -1,-1 -1,-1 -1,-2 -1,-2 -3,-3 -4,-4 -2,-1 -3,-1 -5,-1 -1,0 -1,0 -2,0 0,0 0,0 0,-1 -1,0 -1,0 -1,-1 -1,-1 -2,-3 -2,-5 0,0 -1,0 -1,-1 -1,-2 -1,-4 -2,-6l-1 -4c-1,-2 -2,-5 -2,-7 -1,-5 -1,-8 -1,-13 0,-4 0,-7 1,-10 0,-4 1,-7 3,-11l1 -4c1,0 1,-1 1,-1 0,-1 1,-1 1,-1 1,-2 3,-5 4,-7 1,-1 2,-1 3,-2l0 -1c2,-1 3,-3 5,-3 4,-2 8,-4 12,-4 4,-1 9,-1 13,1 0,0 1,0 1,0 2,1 4,2 5,4l4 4c1,2 2,3 3,4 4,6 6,13 7,19l0 2c1,0 4,1 5,1 1,0 1,1 1,1 1,0 3,1 4,1 0,-2 -1,-8 -1,-9 -1,-5 -3,-10 -5,-14l-1 -2c0,-1 0,-1 -1,-2 -1,-2 -4,-6 -5,-8 -1,0 -1,0 -1,-1l-5 -4c-2,-1 -5,-3 -7,-4 -2,-1 -4,-1 -6,-2 -3,-1 -5,-1 -8,-1 -2,0 -3,0 -4,0 0,0 0,0 -1,0 -4,1 -6,2 -10,3 -3,2 -9,5 -11,7l-1 1c0,1 -1,1 -2,2l-1 1c0,0 0,1 0,1 -1,1 -1,1 -1,1 0,1 0,1 -1,1 -1,2 -2,3 -3,5l-1 2c-2,4 -3,7 -4,11 -1,2 -1,5 -2,7 0,3 -1,6 -1,8 0,1 0,0 0,1l0 3 0 0z"/>
   <path class="fil0" d="M1986 1234c0,2 1,4 1,6 1,0 1,1 1,1 2,3 5,5 9,5 4,0 7,-2 9,-4 0,-1 1,-2 1,-3 1,0 1,0 1,0 0,0 1,0 1,0 1,0 1,0 1,0 1,0 4,0 5,0 1,0 2,0 3,0 2,1 4,1 6,1 2,1 3,1 5,1 2,1 2,1 3,1 1,0 1,0 2,1l5 1c2,2 5,3 8,4 0,1 1,1 2,2 0,0 0,0 1,0 1,1 3,3 5,4l3 3c1,0 2,1 3,2l2 3c1,1 2,3 4,4 0,1 1,2 1,3 0,0 0,0 0,0 1,2 2,4 3,7 2,4 3,9 2,14 0,1 0,2 0,3 -1,3 -2,5 -4,8l-2 3c-1,1 -2,2 -2,2 0,0 -1,0 -1,0 0,1 0,1 0,1l-2 1c-1,1 -2,2 -3,2 -1,1 -2,1 -3,2 -7,3 -16,2 -24,0 0,0 -1,-1 -2,-1 -1,0 -1,0 -1,0l-2 -1c-1,0 -1,0 -1,0 -1,0 -2,1 -2,1l-7 6 3 1c1,0 1,0 2,1 3,1 6,2 9,2 5,1 7,1 12,1 3,0 6,0 8,-1 1,0 2,0 2,0 2,0 4,-1 5,-2 1,0 1,0 2,0 1,-1 1,-1 2,-1 1,-1 2,-1 3,-2l3 -1c1,-1 3,-3 4,-4 1,0 1,-1 2,-2l3 -3c3,-4 4,-8 5,-14 1,-4 1,-9 0,-13 -2,-6 -4,-12 -7,-17l-3 -4c0,-1 -2,-2 -3,-3l-2 -3c-1,0 -1,-1 -2,-1 -1,-1 -3,-3 -5,-5 -1,0 -2,-1 -3,-2 -1,0 -1,0 -1,0 -1,-1 -2,-2 -3,-3l-4 -2c-2,-1 -5,-2 -8,-3 -2,-1 -4,-2 -6,-2 -5,-2 -11,-4 -17,-4l-1 0c-1,0 -2,0 -2,0 -1,0 -1,0 -1,0l-6 0c0,0 -1,0 -1,0 -2,-3 -5,-6 -9,-6 -2,0 -3,0 -6,1 -1,1 -3,2 -4,3 0,1 0,1 0,1 0,0 0,1 -1,1 0,2 -1,3 -1,4l0 0z"/>
   <path class="fil0" d="M1971 1322c3,0 5,0 8,0l4 -1c5,-1 10,-3 16,-5 2,-1 4,-2 6,-3 0,0 0,0 0,0 2,-1 6,-3 8,-5l2 -1c1,-1 2,-2 3,-3l3 -3c0,0 1,-1 2,-2l3 -3c0,0 0,-1 0,-1 3,-3 8,-9 10,-13l0 -1c1,-2 1,-1 3,-2 0,0 1,0 1,0 1,-1 2,-1 3,-2 2,-3 4,-6 3,-11 -2,-6 -9,-10 -15,-7 -2,1 -2,1 -3,2 -4,4 -5,10 -2,14 1,1 1,1 2,2 -2,2 -3,4 -4,6l-4 5c0,1 -1,2 -2,2l0 1c-1,0 -1,0 -1,0l-3 3c0,1 0,1 0,1 -2,1 -7,5 -8,6 -3,2 -6,4 -10,6l0 0c-4,2 -6,3 -9,4 -2,0 -4,1 -6,1 0,0 -1,0 -2,0 -2,1 -4,1 -6,1 -1,0 -1,0 -2,0 -1,0 -2,0 -2,0 -1,0 -1,0 -1,0 -6,-1 -12,-2 -17,-6 0,0 0,0 -1,0 0,-1 -1,-2 -2,-3 -1,-2 -2,-3 -3,-5 -1,-1 -2,-3 -2,-5 -2,-5 -3,-9 -1,-14 0,-2 0,-3 1,-5 1,-2 2,-5 4,-7 0,-1 2,-4 3,-5 0,0 1,0 1,-1l2 -2c1,-1 2,-2 3,-2 0,-1 1,-1 1,-2 0,0 0,-1 -1,-2 0,-2 -1,-4 -1,-6 0,0 0,-1 0,-1 -1,0 -2,1 -3,2l-6 6c-1,0 -2,1 -2,2 -2,2 -3,3 -5,6 -2,3 -3,7 -4,10l-1 4c-1,5 -2,11 -1,17 1,3 2,6 3,8l2 4c1,1 2,3 3,4l1 1c1,1 1,1 2,2l2 2c1,0 2,1 4,2 5,2 9,4 15,5 2,0 4,0 6,0l0 0z"/>
  </g>
  <g>
   <path id="path3375" class="fil1" d="M1579 981c-2,2 -2,6 1,8 2,2 6,1 8,-1 2,-3 1,-6 -1,-8 -3,-2 -6,-2 -8,1l0 0zm-10 -151l-42 -6c-2,0 -4,0 -5,2l0 0 -26 34c-1,1 -1,2 0,4l0 0 16 40c0,1 2,3 3,3l0 0 43 6c1,0 3,-1 4,-2l0 0 26 -34c1,-1 1,-3 1,-4l0 0 -16 -41c-1,0 -1,-1 -2,-1l0 0c0,-1 -1,-1 -2,-1l0 0 0 0zm-72 176c-1,-1 -2,-2 -2,-3l-5 -12c-2,-2 0,-2 0,-2 3,1 3,1 6,1 0,1 0,1 1,1l3 10c0,0 1,0 1,0l40 6c1,0 1,0 1,-1l25 -32c1,0 1,0 1,-1l-16 -37c0,-1 0,-1 -1,-1l-40 -6c0,0 -1,1 -1,1l-25 32c0,0 0,1 0,1l4 10c3,6 7,6 9,3l24 -32c1,0 1,0 2,0l4 3c0,0 0,1 0,1l-25 32c-4,5 -9,6 -15,2 -2,-1 -3,-2 -5,-7l-4 -10c-1,-2 -1,-5 1,-7l25 -32c2,-2 4,-3 7,-3l40 6c3,0 5,2 6,4l15 38c1,2 1,5 -1,8l-25 31c-1,2 -4,3 -6,3l-41 -5c-1,-1 -2,-1 -3,-2l0 0zm72 -176l0 0 0 0zm140 156c0,0 0,1 1,1l3 7c0,1 0,1 0,1l-5 7c-1,0 -1,0 -1,0l-9 -1c0,0 0,0 -1,-1l-3 -7c0,-1 0,-1 1,-1l5 -7c0,0 0,0 0,0l9 1zm30 26c1,0 3,0 4,-2l7 -8c1,-1 1,-3 0,-4l-16 -40c-1,-1 -2,-2 -4,-3l-42 -5c-2,-1 -3,0 -4,1l-27 34c-1,1 -1,3 0,5l16 39c1,2 2,3 4,3l25 4c0,0 1,-1 2,-1 0,-1 0,-2 0,-2l-16 -40c-1,-1 0,-2 0,-3l8 -10c1,-1 2,-1 2,-1l14 2c1,0 1,0 2,1l5 13c0,0 0,1 -1,2l-6 8c0,1 -1,1 0,2 0,1 1,1 1,2l26 3 0 0zm-110 -66c-1,0 -1,0 -1,0l-15 -2c0,0 -1,0 -1,0l-5 -14c0,-1 0,-1 0,-1l9 -12c0,0 0,0 1,0l14 2c1,0 1,0 1,0l6 14c0,0 0,1 0,1l-9 12zm70 -85c-1,0 -1,-1 -2,-1 -1,0 -2,0 -2,1l-35 45c-1,1 -1,1 -2,1 0,0 -1,-1 -1,-2l-4 -9c-1,-2 -2,-3 -4,-3l-42 -6c-2,0 -3,0 -4,2l-27 34c-1,1 -1,3 0,4l16 40c0,2 1,3 3,3l43 6c2,0 3,-1 4,-2l66 -85c1,-1 2,-3 1,-4l-10 -24 0 0zm-191 -47c1,-1 1,-3 1,-5l-16 -39c0,-1 -1,-2 -1,-2l-1 0c0,-1 -1,-1 -2,-1l-43 -7c-1,0 -3,1 -4,3l-35 45c-1,1 -1,2 -1,2 1,1 1,2 2,2l26 3c1,1 3,0 4,-1l17 -22c1,-1 2,-2 4,-2l10 2c1,0 2,0 2,1 1,0 2,1 2,2l4 10c0,2 0,3 -1,5l-16 21c-1,1 -1,2 -1,4l10 24c0,1 1,1 2,1 0,0 1,0 2,-1l35 -45 0 0zm75 169l1 1c0,1 1,0 1,0 1,-1 0,-1 0,-2l-1 0 -1 1zm1 -3l2 1c0,1 2,2 0,4 0,1 -1,0 -2,0 1,1 1,1 0,2 0,1 -1,2 -1,2l-1 -1c0,0 1,-2 1,-2 0,0 0,-1 0,-1l-1 -1 -2 3 -1 -1 5 -6 0 0zm5 8c-3,3 -7,4 -10,2 -3,-3 -3,-7 -1,-10 2,-3 7,-4 9,-1 3,2 4,6 2,9zm-67 3c-12,-9 -10,-17 -6,-22 0,0 1,-1 1,0l4 3c0,0 0,0 0,1 -2,4 -2,7 5,13 6,5 10,5 12,2 1,-2 2,-4 -6,-12 -8,-6 -11,-12 -6,-18 4,-5 11,-5 19,1 9,7 11,13 6,21 0,0 0,0 0,0 0,0 -1,0 -1,0l-4 -3c0,0 0,-1 0,-1 2,-5 1,-8 -4,-12 -7,-5 -9,-3 -10,-2 -2,2 -2,4 6,11 8,9 10,13 6,19 -5,6 -13,6 -22,-1l0 0z"/>
  </g>
  <g id="_1013685616">
   <path class="fil1" d="M607 1021c12,-21 26,-38 39,-50 16,-14 32,-19 40,-14 9,4 12,22 7,44 -3,17 -12,37 -23,57 -12,20 -25,38 -38,49 -17,15 -33,20 -42,15 -8,-5 -11,-20 -7,-41 3,-17 12,-39 24,-60z"/>
   <path class="fil1" d="M607 1058c-12,-21 -20,-42 -24,-59 -4,-21 -1,-37 7,-42 9,-5 25,1 42,16 13,11 27,28 38,48 11,20 20,41 24,58 4,22 1,38 -8,44 -8,4 -23,-1 -39,-15 -14,-11 -28,-30 -40,-50l0 0z"/>
   <path class="fil1" d="M638 1003c24,0 47,3 63,9 21,7 33,18 33,27 0,10 -13,22 -35,29 -16,5 -38,8 -61,8 -23,0 -45,-3 -61,-8 -22,-8 -34,-19 -34,-29 0,-9 12,-20 32,-26 16,-7 39,-10 63,-10l0 0z"/>
   <circle class="fil0" cx="638" cy="1039" r="18"/>
  </g>
  <path id="path69404" class="fil1" d="M2203 1336c0,0 -155,341 -510,366 8,-2 14,-4 14,-4 113,-82 97,-338 97,-338 -7,-87 81,-214 81,-214 -92,19 -124,209 -124,209 -27,317 -231,352 -231,352 1,2 8,-2 9,0 -50,-5 -104,-22 -130,-67 0,0 -58,-228 -11,-311 0,0 -59,-11 -70,171 0,0 21,220 -69,254 -90,-34 -70,-254 -70,-254 -11,-182 -71,-171 -71,-171 49,83 -10,311 -10,311 -22,39 -65,56 -109,64 -11,-2 -200,-42 -225,-349 0,0 -40,-171 -125,-209 0,0 87,127 81,214 0,0 -16,256 98,338 0,0 6,2 16,6 -368,-13 -529,-368 -529,-368 27,355 459,439 459,439 632,232 336,512 -564,625l1871 -2c-873,-130 -912,-451 -337,-623 191,-37 440,-184 459,-439z"/>
  <g id="_1013691088">
   <path id="path69512" class="fil1" d="M2347 1276c-2,-11 -5,-25 -12,-40 15,-3 28,1 31,14 2,12 -5,22 -19,26l0 0 0 0zm-85 -13c-35,17 -68,23 -72,13 -6,-10 18,-33 53,-51 35,-18 68,-23 73,-13 5,11 -19,33 -54,51l0 0 0 0zm-58 39l-3 -7 17 3c13,36 63,53 63,53 -55,9 -77,-49 -77,-49l0 0zm173 -56c-4,-18 -23,-28 -42,-23 -2,1 -3,1 -4,2 -2,-5 -6,-11 -8,-15 0,0 0,0 0,1 0,0 0,0 1,0 0,3 0,4 0,5 0,-1 0,-4 0,-5 -1,0 -1,0 -1,0 0,0 0,-1 0,-1 -7,-13 -43,-8 -82,11 -39,21 -65,47 -58,60 0,0 1,2 1,3 2,6 41,107 121,65 0,0 40,-13 42,-60 2,0 3,0 5,0 19,-6 30,-24 25,-43l0 0 0 0 0 0zm0 0l0 0 0 0z"/>
   <g>
    <path id="_1_0" class="fil1" d="M2347 1276c-2,-11 -5,-25 -12,-40 15,-3 28,1 31,14 2,12 -5,22 -19,26l0 0 0 0zm-85 -13c-35,17 -68,23 -72,13 -6,-10 18,-33 53,-51 35,-18 68,-23 73,-13 5,11 -19,33 -54,51l0 0 0 0zm-58 39l-3 -7 17 3c13,36 63,53 63,53 -55,9 -77,-49 -77,-49l0 0zm173 -56c-4,-18 -23,-28 -42,-23 -2,1 -3,1 -4,2 -2,-5 -6,-11 -8,-15 0,0 0,0 0,1 0,0 0,0 1,0 0,3 0,4 0,5 0,-1 0,-4 0,-5 -1,0 -1,0 -1,0 0,0 0,-1 0,-1 -7,-13 -43,-8 -82,11 -39,21 -65,47 -58,60 0,0 1,2 1,3 2,6 41,107 121,65 0,0 40,-13 42,-60 2,0 3,0 5,0 19,-6 30,-24 25,-43l0 0zm0 0l0 0 0 0z"/>
   </g>
  </g>
  <g id="_1013697648">
   <path id="path69514" class="fil1" d="M2171 1192c0,0 38,15 35,28 0,0 14,-21 -21,-41 0,0 -38,-18 -15,-57 0,0 -46,39 1,70l0 0 0 0zm0 0l0 0 0 0z"/>
   <g>
    <path id="_1_1" class="fil1" d="M2171 1192c0,0 38,15 35,28 0,0 14,-21 -21,-41 0,0 -38,-18 -15,-57 0,0 -46,39 1,70l0 0zm0 0l0 0 0 0z"/>
   </g>
  </g>
  <g id="_1013693776">
   <path id="path69516" class="fil1" d="M2226 1195c0,0 19,-19 -9,-50 0,0 -34,-34 -2,-68 0,0 -56,28 -14,77 0,0 31,29 25,41l0 0 0 0 0 0zm0 0l0 0 0 0z"/>
   <g>
    <path id="_1_2" class="fil1" d="M2226 1195c0,0 19,-19 -9,-50 0,0 -34,-34 -2,-68 0,0 -56,28 -14,77 0,0 31,29 25,41l0 0zm0 0l0 0 0 0z"/>
   </g>
  </g>
  <path id="path69558" class="fil1" d="M2006 217c-1,-89 -35,-16 -6,14 -29,-30 -108,-16 -15,2 -93,-18 -32,36 12,11 -44,25 -56,105 -2,14 -54,91 16,49 13,-6 3,55 74,90 14,6 60,84 45,6 -3,-16 48,22 103,-36 10,-11 93,-25 14,-33 -15,-2 29,-31 -9,-101 -8,-12l0 0 0 0z"/>
  <g id="_1013683600">
   <path class="fil0" d="M1057 1002c0,0 0,0 -1,0 0,0 0,0 0,0 -6,4 -13,6 -14,12 -1,3 0,5 2,7 7,11 15,6 26,-1l0 -1c9,-6 17,-12 9,-22 -2,-3 -4,-4 -6,-5 -6,0 -10,5 -16,10zm0 18c-2,1 -5,0 -7,-2 -1,-2 -1,-5 1,-7 2,-1 5,0 6,3 2,2 2,5 0,6zm17 -11c-1,1 -5,0 -6,-2 -2,-3 -2,-6 0,-8 2,-1 5,0 6,3 1,2 1,6 0,7zm-52 -57c-28,20 -35,57 -15,85 19,27 57,35 84,15 29,-19 36,-58 16,-85 -19,-28 -58,-35 -85,-15l0 0zm53 67c-1,0 -2,2 -4,3 -2,1 -3,3 -4,3 -4,3 -21,14 -34,-5 -3,-4 -4,-8 -3,-13 -2,0 -4,-6 -6,-13 0,0 4,-3 15,-3 1,-1 4,-3 6,-5 3,-2 6,-4 8,-4 4,-10 8,-13 8,-13 6,3 10,8 10,9 3,1 7,3 10,8 14,19 -2,31 -6,33l0 0z"/>
  </g>
  <path class="fil0" d="M1525 629l-19 -71c-1,-2 -1,-3 -3,-5l-42 -24c-1,0 -3,0 -4,0l-82 22c-4,0 -6,4 -5,10l27 102 128 -34zm-67 -3c0,1 -1,3 -3,4 -1,0 -3,-1 -3,-3l-3 -8c0,-1 0,-4 3,-4 1,0 2,0 3,3l3 8zm0 -87c0,-1 1,-3 2,-1l36 20c1,0 1,3 0,3l-30 7 -8 -29zm12 56l-2 -12c-2,-1 -3,-2 -4,-1 -3,0 -4,-1 -4,-3 -1,-1 0,-2 1,-3 5,-1 10,1 11,6l4 11c0,4 4,5 7,5 2,-1 3,0 3,1 2,3 0,4 -1,4 -4,1 -5,5 -5,7l4 11c1,5 -1,10 -7,11 -2,0 -3,0 -3,-2 0,-1 0,-3 2,-3 1,-1 3,-2 1,-3l-2 -12c-1,-3 0,-6 1,-9 -2,-1 -5,-5 -6,-8l0 0 0 0zm-24 0c2,-1 4,2 6,3 0,3 -2,5 -4,6 -2,0 -5,-1 -5,-3 -2,-3 1,-6 3,-6zm-31 22c3,-2 5,-5 5,-8l-4 -11c-1,-5 1,-10 6,-11 2,-1 4,0 4,1 1,2 0,4 -2,4 -2,1 -3,2 -2,3l2 12c2,3 0,7 -1,10 3,1 5,4 6,7l3 11c1,3 2,3 3,3 3,0 4,1 4,2 1,1 0,3 -1,4 -5,1 -10,-3 -11,-6l-4 -12c0,-3 -3,-6 -6,-5 -2,0 -4,0 -4,-2 -1,-1 0,-2 2,-2l0 0 0 0z"/>
  <g id="_1013712592">
   <path class="fil0" d="M2096 544c-37,0 -67,-30 -67,-67 0,-37 30,-67 67,-67 38,0 67,30 67,67 0,37 -29,67 -67,67zm0 -119c-29,0 -52,23 -52,52 0,29 23,53 52,53 28,0 52,-24 52,-53 0,-29 -24,-52 -52,-52z"/>
   <g>
    <path class="fil0" d="M2108 481c1,0 2,1 3,2 1,1 2,3 2,5 0,3 -1,4 -2,6 -1,1 -2,1 -3,1 -1,0 -2,0 -3,-1 -1,-2 -2,-3 -2,-6 0,-2 1,-4 2,-5 1,-1 2,-2 3,-2l0 0zm16 -16c3,4 5,8 5,13 0,4 0,7 -1,10 -1,4 -2,6 -3,8 -2,2 -3,4 -5,5 -2,1 -4,2 -5,2 -1,1 -3,1 -5,1 -2,1 -3,1 -4,1 -1,0 -2,0 -3,0 -1,0 -2,0 -3,0 -1,0 -3,0 -4,0 -1,0 -3,0 -4,0 -2,0 -3,0 -3,0 -1,0 -2,0 -3,0 -1,0 -2,0 -4,-1 -2,0 -4,0 -5,-1 -2,0 -3,-1 -5,-2 -2,-1 -4,-3 -5,-5 -1,-2 -2,-4 -3,-8 -1,-3 -1,-6 -1,-10 0,-5 1,-9 5,-13 0,0 0,-2 0,-6 0,-3 1,-8 2,-11 5,0 10,3 16,9 2,-1 5,-1 10,-1 4,0 7,0 10,1 3,-2 5,-5 8,-6 2,-2 4,-2 5,-3l2 0c2,3 2,8 3,11 0,4 0,6 0,6l0 0 0 0 0 0zm-28 38c9,0 15,-1 19,-3 3,-2 5,-6 5,-13 0,-4 -1,-7 -4,-9 -1,-1 -2,-2 -4,-2 -1,-1 -4,-1 -8,0 -4,0 -6,0 -8,0 -1,0 -4,0 -7,0 -2,0 -4,0 -5,-1 -1,0 -3,1 -4,1 -2,0 -3,1 -5,2 -2,2 -3,5 -3,9 0,7 2,11 6,13 4,2 9,3 18,3l0 0zm-12 -22c1,0 2,1 3,2 1,1 1,3 1,5 0,3 0,4 -1,6 -1,1 -2,1 -3,1 -1,0 -2,0 -3,-1 -1,-2 -1,-3 -1,-6 0,-2 0,-4 1,-5 1,-1 2,-2 3,-2z"/>
    <g>
     <path id="_1_3" class="fil0" d="M2108 481c1,0 2,1 3,2 1,1 2,3 2,5 0,3 -1,4 -2,6 -1,1 -2,1 -3,1 -1,0 -2,0 -3,-1 -1,-2 -2,-3 -2,-6 0,-2 1,-4 2,-5 1,-1 2,-2 3,-2l0 0zm16 -16c3,4 5,8 5,13 0,4 0,7 -1,10 -1,4 -2,6 -3,8 -2,2 -3,4 -5,5 -2,1 -4,2 -5,2 -1,1 -3,1 -5,1 -2,1 -3,1 -4,1 -1,0 -2,0 -3,0 -1,0 -2,0 -3,0 -1,0 -3,0 -4,0 -1,0 -3,0 -4,0 -2,0 -3,0 -3,0 -1,0 -2,0 -3,0 -1,0 -2,0 -4,-1 -2,0 -4,0 -5,-1 -2,0 -3,-1 -5,-2 -2,-1 -4,-3 -5,-5 -1,-2 -2,-4 -3,-8 -1,-3 -1,-6 -1,-10 0,-5 1,-9 5,-13 0,0 0,-2 0,-6 0,-3 1,-8 2,-11 5,0 10,3 16,9 2,-1 5,-1 10,-1 4,0 7,0 10,1 3,-2 5,-5 8,-6 2,-2 4,-2 5,-3l2 0c2,3 2,8 3,11 0,4 0,6 0,6l0 0zm-28 38c9,0 15,-1 19,-3 3,-2 5,-6 5,-13 0,-4 -1,-7 -4,-9 -1,-1 -2,-2 -4,-2 -1,-1 -4,-1 -8,0 -4,0 -6,0 -8,0 -1,0 -4,0 -7,0 -2,0 -4,0 -5,-1 -1,0 -3,1 -4,1 -2,0 -3,1 -5,2 -2,2 -3,5 -3,9 0,7 2,11 6,13 4,2 9,3 18,3l0 0zm-12 -22c1,0 2,1 3,2 1,1 1,3 1,5 0,3 0,4 -1,6 -1,1 -2,1 -3,1 -1,0 -2,0 -3,-1 -1,-2 -1,-3 -1,-6 0,-2 0,-4 1,-5 1,-1 2,-2 3,-2z"/>
    </g>
   </g>
  </g>
  <path id="path4058" class="fil0" d="M278 1266l0 0 -3 -7c-3,-4 -5,-7 -5,-8l0 -1 3 -3 3 -3 0 -2c0,-2 -1,-4 -1,-6l-1 -3 -13 -18c-6,-11 -13,-21 -13,-22l-1 -2 6 -7 7 -6 1 0c1,1 7,11 15,23l14 22 3 5 2 5 0 4 1 5 -1 4 -1 4 -7 8 -8 8 -1 0 0 0 0 0 0 0zm149 -188c-9,7 -10,7 -15,8 -4,0 -6,-1 -11,-4l-4 -2 -4 -6 -3 -5 -4 -6 -4 -6 -1 -5 -2 -5 0 -5 -1 -4 1 -4c1,-1 2,-6 3,-8l2 -5 8 -6 7 -8 4 -2 4 -1 4 0 5 0 3 2 4 2 4 5 4 5 3 4 3 5 -15 15 -15 16 0 2 0 1 1 1c1,1 3,2 4,2l2 1 2 -1 2 -1 12 -12 13 -12 1 0c1,1 3,4 5,7l4 6 0 1 -1 1 -11 12c-7,6 -13,12 -14,12l0 0 0 0 0 0zm-13 -52l-2 -2 -1 -1 -2 0 -2 1 -3 1 -3 3 -3 4 -1 2c-2,4 -1,10 1,12l0 1 9 -9 9 -10 -2 -2 0 0 0 0 0 0zm-98 163c-1,0 -3,2 -5,3l-3 2 -5 0 -4 1 -4 0c-1,-1 -4,-2 -7,-3l-4 -1 -5 -5 -4 -4 -4 -5 -4 -6 -3 -7 -3 -5 -2 -5 -1 -6 0 -8 0 -8 2 -5c1,-2 3,-7 4,-9l3 -4 6 -6 6 -7 4 -2 5 -1 5 -1 3 -1 4 1 5 0 4 2 5 2 5 7 6 4 3 6c2,4 5,10 7,14 2,5 4,8 4,9l1 1 3 -4c2,-1 3,-3 3,-3l0 0 4 7c2,4 4,8 4,8l1 1 -18 18c-11,10 -20,19 -21,20l0 0 0 0 0 0zm7 -38c-2,-3 -5,-9 -8,-15l-6 -10 -4 -4 -5 -4 -4 -1 -2 0 -3 1 -4 1 -4 4 -5 5 -1 3 0 4 0 5 0 4 1 5 1 5 4 5 4 5 4 3c1,1 3,3 3,4l3 1 2 1 3 0 3 -1 4 -1 8 -9 8 -7 -2 -4 0 0 0 0 0 0zm52 -21c-1,1 -3,2 -5,3l-3 1 -3 0 -5 0 -3 -1 -3 -2 -5 -4 -3 -5 -12 -16 -12 -18 0 -1 0 -1 6 -6 6 -6 1 0 1 0 11 17 10 17 3 2 4 3 1 0 2 1 3 -2 2 -2 4 -3 4 -5 0 -1 0 -1 -14 -20c-7,-12 -14,-22 -14,-23l-1 -1 6 -7 7 -6 1 2c0,0 9,14 19,29l19 28 0 2 0 1 -13 12c-7,6 -13,13 -14,13l0 0 0 0 0 0zm86 -87l-1 0 -19 -28 -18 -29 0 -1 -1 -2 17 -15 16 -16 3 -1 3 -1 2 0 3 1 2 1c2,0 4,1 5,2l2 2 -15 15 -15 15 1 1 0 1 13 20c7,11 13,19 14,20 0,0 1,1 1,2l0 3 -6 6 -6 4 -1 0 0 0 0 0 0 0zm40 -40l-1 0 -4 -7 -4 -7 -13 -8 -14 -7 0 -1c0,0 3,-4 7,-7l7 -8 1 2c1,0 3,1 5,3l3 2 0 0c0,-1 -2,-13 -3,-26 -3,-13 -5,-25 -5,-26l1 -1 6 -8 8 -7 1 1c0,0 3,17 6,39l5 38 4 6c2,3 4,7 4,8l1 1 -7 7 -7 6 -1 0 0 0 0 0 0 0zm-259 181c-1,-2 -3,-5 -5,-6l-3 -6 7 -7 7 -6 1 0c0,1 2,3 4,7l5 6 -7 7 -7 7 -2 -2 0 0 0 0 0 0z"/>
  <g id="_1013708368">
   <path class="fil0" d="M1971 1059c-1,-4 -4,-7 -7,-9l-32 -19 32 -18c3,-2 6,-5 7,-10 1,-4 0,-8 -2,-12l-7 -13c-2,-3 -6,-6 -10,-7 -4,-1 -8,0 -12,2l-32 18 0 -37c0,-4 -1,-8 -4,-11 -3,-3 -7,-4 -11,-4l-16 0c-4,0 -7,1 -10,4 -3,3 -5,7 -5,11l0 37 -32 -18c-4,-2 -7,-3 -11,-2 -5,1 -8,4 -10,7l-8 13c-2,4 -2,8 -1,12 1,5 3,8 7,10l32 18 -32 19c-4,2 -6,5 -7,9 -1,4 -1,8 1,12l8 13c2,4 5,6 10,7 4,1 7,1 11,-1l32 -19 0 37c0,5 2,8 5,11 3,3 6,5 10,5l16 0c4,0 8,-2 11,-5 3,-3 4,-6 4,-11l0 -37 32 19c4,2 8,2 12,1 4,-1 8,-3 10,-7l7 -13c2,-4 3,-8 2,-12z"/>
  </g>
  <path class="fil0" d="M2022 1099l-6 34c0,2 0,3 2,4 0,0 1,1 2,1 0,0 1,-1 1,-1l31 -16 31 16c0,0 1,1 1,1 1,0 2,-1 2,-1 1,-1 2,-2 2,-4l-6 -34 25 -23c1,-1 1,-3 1,-4 -1,-1 -2,-2 -3,-3l-34 -5 -16 -30c-1,-2 -2,-2 -3,-2 -1,0 -3,0 -3,2l-15 30 -35 5c-1,1 -2,2 -2,3 -1,1 0,3 0,4l25 23 0 0z"/>
  <path class="fil0" d="M938 828c2,0 3,-1 3,-2 1,-2 0,-3 -1,-4l-36 -30 4 -47c0,-2 0,-4 -2,-4 0,-1 -1,-1 -1,-1 -1,0 -2,0 -2,1l-41 25 -43 -19c-1,0 -1,0 -2,0 0,0 -1,0 -2,1 -1,1 -1,2 -1,4l11 45 -31 36c-1,1 -1,2 -1,4 1,1 2,2 4,2l47 3 24 41c1,1 2,2 3,2 0,0 0,0 1,-1 1,0 2,0 3,-2l17 -44 46 -10 0 0z"/>
  <path class="fil0" d="M1394 1108c0,-1 -1,-2 -2,-3l-23 -7 -6 -22c-1,-2 -2,-3 -3,-3 0,0 -1,0 -1,0 -1,0 -2,1 -3,2l-13 18 -24 0c0,0 0,0 0,0 -1,0 -2,0 -3,2 -1,1 0,2 0,3l14 20 -8 22c0,1 0,2 1,3 1,1 2,1 3,1 0,0 0,0 1,0l22 -7 18 14c1,1 2,1 3,1 0,0 1,0 1,0 2,-1 3,-2 3,-4l0 -23 19 -13c1,-1 1,-2 1,-4l0 0z"/>
  <path class="fil0" d="M689 1484c1,-1 2,-2 2,-3 0,-2 -1,-3 -2,-3l-21 -10 -4 -23c0,-2 -1,-3 -2,-3 -1,0 -1,0 -2,0 0,0 -1,0 -2,1l-16 17 -23 -4c0,0 0,0 -1,0 -1,0 -2,1 -3,2 0,1 0,2 0,3l11 21 -10 21c-1,1 0,3 0,4 1,1 2,1 3,1 1,0 1,0 1,0l23 -4 17 16c0,1 1,1 2,1 0,0 1,0 1,0 1,-1 2,-2 3,-3l2 -23 21 -11 0 0z"/>
  <path class="fil0" d="M601 821l2 23 -18 15c-1,1 -1,2 -1,4 1,1 2,2 3,2l22 5 10 22c0,1 1,2 3,2 0,0 0,0 0,0 1,0 2,-1 3,-2l12 -20 23 -2c1,0 3,-1 3,-2 1,-1 0,-3 0,-4l-16 -17 6 -23c0,-1 -1,-3 -2,-3 0,-1 -2,-1 -2,-1 -1,0 -1,0 -2,0l-21 9 -20 -12c-1,0 -1,0 -2,0 -1,0 -1,0 -2,0 -1,1 -2,2 -1,4l0 0z"/>
  <path class="fil0" d="M119 867c-6,0 -12,1 -17,3 5,-3 9,-7 12,-12 8,-15 7,-26 -1,-30 -8,-4 -18,-1 -27,14 -2,5 -4,11 -5,16 -1,-5 -2,-11 -5,-16 -9,-15 -19,-19 -27,-14 -7,4 -9,15 0,30 2,5 6,9 11,12 -5,-2 -11,-3 -16,-3 -18,0 -26,7 -26,16 0,9 8,16 26,16 5,0 11,-2 16,-4 -5,4 -9,8 -11,12 -9,15 -7,27 0,31 8,4 18,0 27,-15 3,-5 4,-10 5,-16 1,6 3,11 5,16 9,15 19,19 27,15 8,-4 9,-16 1,-31 -3,-4 -7,-8 -12,-12 5,2 11,4 17,4 17,0 26,-7 26,-16 0,-9 -9,-16 -26,-16zm-31 27c-6,3 -14,1 -18,-5 -4,-6 -1,-14 5,-17 6,-4 14,-2 17,4 4,6 2,14 -4,18l0 0z"/>
  <path class="fil0" d="M264 974c-7,-2 -15,-2 -22,-1 7,-3 14,-7 19,-12 16,-17 17,-31 9,-40 -8,-8 -23,-7 -40,10 -5,5 -8,12 -11,18 1,-7 1,-15 -1,-21 -7,-23 -19,-32 -30,-29 -12,3 -18,17 -12,40 2,6 6,13 11,19 -6,-5 -13,-8 -20,-10 -22,-6 -36,0 -39,12 -3,11 5,23 28,29 7,2 14,2 22,1 -7,3 -14,7 -19,12 -16,16 -18,32 -9,40 8,8 23,7 40,-10 5,-5 8,-12 11,-19 -1,8 -1,15 1,23 6,22 19,31 30,28 11,-4 17,-17 11,-40 -1,-7 -5,-13 -10,-19 6,4 13,8 20,10 23,6 36,0 39,-11 3,-12 -6,-24 -28,-30zm-50 24c-9,2 -18,-3 -20,-12 -3,-9 2,-18 11,-21 9,-2 19,3 22,12 2,9 -3,19 -13,21z"/>
  <path class="fil0" d="M230 804c-2,3 -4,7 -5,11 0,-5 0,-9 -2,-12 -4,-11 -12,-15 -17,-13 -6,3 -8,10 -4,21 2,4 4,7 7,10 -4,-2 -7,-3 -11,-4 -12,-1 -19,3 -20,9 -1,6 5,12 17,13 4,1 7,0 11,-1 -3,2 -6,5 -9,8 -7,10 -7,18 -2,21 5,4 12,3 20,-7 3,-3 4,-7 5,-11 0,4 1,8 2,12 5,11 12,15 17,13 6,-3 8,-10 4,-21 -2,-4 -4,-8 -7,-10 4,1 7,3 11,4 13,1 19,-3 20,-9 1,-6 -4,-12 -17,-13 -3,-1 -7,0 -11,0 3,-2 6,-4 9,-7 8,-10 7,-18 2,-22 -5,-3 -12,-2 -20,8zm2 29c-1,5 -6,8 -10,8 -6,-1 -9,-5 -9,-10 1,-5 6,-9 11,-8 5,1 8,5 8,10l0 0z"/>
  <circle class="fil0" cx="1359" cy="1231" r="19"/>
  <circle class="fil0" cx="1359" cy="1231" r="45"/>
  <path class="fil0" d="M370 690l141 70 -49 98 -141 -70 49 -98zm24 95c-1,3 -3,6 -5,8 -2,1 -5,2 -8,2 -2,0 -5,0 -8,0 -3,-1 -5,-1 -9,-3 -1,0 -2,-2 -5,-3 -1,-1 -3,-2 -5,-4 -1,-2 -3,-3 -4,-5 -1,-2 -2,-3 -4,-5l9 -6c0,1 1,2 1,3 1,1 3,3 4,4 2,0 3,3 4,3 1,1 4,2 5,2 3,2 6,3 9,3 2,-1 4,-3 6,-5l27 -54 10 5 -27 55 0 0zm54 33c-3,1 -6,2 -8,4 -3,1 -6,1 -10,1 -2,0 -6,-1 -10,-3 -1,-1 -3,-3 -4,-3 -2,-1 -3,-2 -5,-3 -1,-2 -3,-3 -3,-4 -1,-2 -3,-3 -4,-5l7 -7c0,2 1,2 2,4 2,1 3,1 4,3 2,1 3,1 3,3 2,1 3,1 4,2 5,2 8,3 10,2 4,-1 6,-4 8,-7 1,-2 2,-4 0,-6 0,-2 -1,-5 -3,-7 -2,-2 -3,-4 -5,-6 -2,-4 -4,-6 -6,-9 -1,-3 -2,-6 -2,-9 -1,-3 1,-6 2,-9 2,-3 3,-5 6,-8 2,-2 5,-3 8,-3 2,-1 6,-1 8,-1 3,0 6,2 9,3 2,1 6,3 9,5 3,2 5,4 6,6 -1,1 -2,2 -3,1 -1,1 -3,2 -3,3 -1,1 -2,1 -2,2 -1,1 -2,0 -2,0 0,0 0,0 0,-1 0,0 -1,-1 -2,-2 -1,-1 -2,-2 -3,-2 -1,-1 -3,-2 -5,-3 -1,0 -4,-1 -5,-1 -1,0 -3,0 -3,1 -2,1 -3,1 -4,3 -2,0 -2,1 -3,2 -1,2 -1,5 0,6 0,3 2,5 3,7 2,3 3,5 6,8 2,2 3,5 4,7 1,3 3,5 2,9 1,3 0,6 -2,9 -1,4 -2,6 -4,8l0 0 0 0z"/>
  <g id="_1013700592">
   <g>
    <path class="fil0" d="M1747 753c9,-8 13,-16 11,-23 -1,-3 -5,-10 -23,-9 1,-8 0,-22 -13,-24 -6,-1 -12,4 -18,12 -7,-8 -13,-12 -19,-12 -12,0 -14,16 -13,24 -2,0 -19,-2 -23,9 -3,7 1,15 10,23 -9,7 -13,15 -10,21 3,13 21,10 23,10 -1,8 0,15 4,19 9,10 21,1 28,-7 6,8 18,17 27,7 3,-4 5,-11 4,-19 2,0 19,3 23,-10 2,-6 -2,-14 -11,-21zm3 18c-2,5 -16,3 -20,2 -4,-1 -6,3 -6,6 3,10 2,17 0,19 -3,3 -10,-3 -17,-12 -1,-2 -5,-3 -7,0 -7,9 -15,15 -17,12 -2,-3 -3,-9 -1,-19 1,-3 -1,-6 -5,-6 -4,1 -17,3 -20,-2 -1,-2 2,-8 13,-15 2,-1 3,-5 0,-7 -11,-8 -14,-14 -13,-16 2,-5 16,-3 20,-2 2,1 6,-2 5,-5 -2,-11 -2,-19 3,-20 2,-1 8,3 15,13 2,3 5,2 7,0 7,-10 12,-14 15,-13 4,1 4,9 2,20 -1,4 3,5 5,5 15,-3 20,0 20,2 1,2 -2,8 -12,16 -3,2 -2,5 0,7 10,7 13,13 13,15l0 0z"/>
    <path class="fil0" d="M1704 729c-14,0 -24,10 -24,24 0,13 10,23 24,23 13,0 23,-10 23,-23 0,-14 -10,-24 -23,-24zm0 38c-9,0 -15,-7 -15,-14 0,-8 6,-15 15,-15 7,0 14,7 14,15 0,7 -7,14 -14,14z"/>
   </g>
  </g>
  <g id="_1013702000">
   <path class="fil0" d="M2123 892c-9,8 -16,18 -22,28 -3,-19 -11,-40 -22,-51 3,22 9,47 14,65 -1,2 -2,4 -3,6l0 0 0 0 0 0 0 1 0 0 0 0 0 0 0 1 0 0c-1,1 -1,1 -1,2l-1 1 0 0 0 1 0 0 0 0 0 0 0 0 0 1 0 0 0 0 0 0 0 0 -1 0 0 0 0 1 0 0 0 0 0 0 0 1 0 0 0 0 0 0 0 0 0 1 -1 0c0,1 0,1 0,2l0 0c-2,5 -4,11 -5,16 -10,-21 -35,-45 -54,-51 16,21 39,46 52,57 -1,4 -1,8 -2,12 -68,3 -58,-48 -74,-93 21,0 38,3 51,8 2,-20 13,-41 17,-64 31,18 47,36 52,55l0 0zm171 2c-57,69 -69,167 -202,97 19,-93 73,-145 202,-97zm-53 24c-43,-2 -109,32 -133,67 22,-5 86,-37 133,-67z"/>
  </g>
  <g id="_1013706992">
   <g>
    <path class="fil0" d="M1048 586c0,0 -6,-4 -9,1 -12,15 -50,64 -69,81 -16,15 -30,7 -37,1l0 0c0,0 -3,-4 -11,-1 0,0 0,0 0,0 -3,1 -7,2 -12,4 -9,2 -11,8 -11,14 0,2 1,10 6,16 9,9 25,18 44,20 21,2 26,-6 26,-6 0,0 13,-18 25,-35 0,0 0,0 0,0 10,-15 22,-23 23,-23 0,0 1,0 2,-1 1,0 8,-2 9,8l3 52 0 1c0,0 0,0 0,0l0 1c0,1 0,4 3,4 3,0 3,-3 3,-5l0 0c1,-14 7,-64 11,-74 15,-35 2,-52 -6,-58l0 0z"/>
   </g>
  </g>
  <g id="_1013705520">
   <g>
    <path class="fil0" d="M1099 563c0,0 -5,-2 -7,4 -6,17 -26,76 -38,99 -11,19 -27,16 -35,13l0 0c0,0 -4,-2 -11,3 0,0 0,0 0,0 -2,2 -6,4 -10,7 -7,5 -7,12 -6,17 1,2 5,10 11,14 12,5 31,8 49,4 20,-5 22,-15 22,-15 0,0 6,-20 12,-41 0,0 0,0 0,0 5,-17 14,-28 14,-29 0,0 1,-1 1,-1 2,-1 8,-5 11,4l21 48 0 1c0,0 0,0 0,0l0 0c1,2 2,4 5,3 3,-1 2,-4 2,-5l-1 -1c-3,-13 -15,-62 -14,-72 3,-39 -16,-50 -26,-53l0 0 0 0z"/>
   </g>
  </g>
  <g id="_1013697008">
   <g>
    <g>
     <path class="fil0" d="M1732 567l-41 -50 -4 -4c-1,1 -2,1 -3,2 -2,3 -5,6 -13,8 -7,1 -12,0 -15,-2 -3,-1 -4,-1 -8,0 -3,0 -4,1 -6,3 -2,3 -6,7 -13,8 -8,2 -12,0 -16,-1 -1,0 -2,-1 -3,-1l-28 101 173 -38 -23 -26 0 0z"/>
    </g>
   </g>
   <g>
    <g>
     <path class="fil0" d="M1633 448l-19 68c1,1 3,1 4,2 3,0 4,1 8,0 3,0 4,-1 6,-3 3,-3 6,-6 13,-8 8,-1 12,0 16,1 3,1 4,2 7,1 4,-1 5,-2 7,-4 1,-1 2,-2 3,-3l-45 -54 0 0z"/>
    </g>
   </g>
   <g>
    <g>
     <path class="fil0" d="M1719 468l-13 46 6 6c0,0 0,0 1,0 2,-1 2,-1 4,-3 2,-2 5,-5 11,-6 7,-2 11,0 14,1 2,0 2,1 5,0 2,0 3,-1 4,-2 1,-1 1,-1 2,-2l-34 -40 0 0z"/>
    </g>
   </g>
   <g>
    <g>
     <g>
      <path class="fil0" d="M1761 519c-2,3 -5,6 -11,7 -7,2 -10,0 -13,-1 -2,-1 -3,-1 -6,-1 -2,1 -3,2 -4,3 -2,2 -3,3 -6,5l50 58 43 -9 -52 -62c0,0 -1,0 -1,0z"/>
      <polygon class="fil0" points="1814,581 1814,581 "/>
     </g>
    </g>
   </g>
  </g>
  <g id="_1013688752">
   <g id="Layer_1_78_">
    <g>
     <path class="fil0" d="M272 600c-8,-1 -20,-1 -32,-3l-1 0c0,0 -4,-1 -9,-2 -5,6 -11,14 -12,21 0,2 -2,3 -4,4 -1,0 -1,0 -2,0 -3,-1 -4,-3 -4,-6 1,-7 6,-15 11,-21 -4,-1 -7,-2 -11,-3 -4,5 -8,12 -9,17 0,2 -2,3 -3,4 -1,0 -2,0 -2,0 -3,-1 -5,-3 -4,-6 1,-6 5,-14 9,-19 -4,-2 -7,-3 -10,-5 -4,5 -9,12 -10,18 0,2 -2,4 -4,4 0,0 -1,0 -2,0 -2,0 -4,-3 -4,-6 2,-7 7,-16 12,-22 -4,-2 -6,-4 -9,-7 -5,5 -10,11 -12,16 -1,2 -3,3 -4,3 -1,0 -2,0 -2,0 -3,-1 -4,-4 -3,-6 3,-8 10,-16 16,-22 -1,-2 -2,-5 -2,-7 0,-1 -1,-3 -1,-4 -6,3 -12,7 -15,11 0,1 -1,2 -3,2 -1,0 -3,0 -4,-1 -2,-1 -3,-4 -1,-6 5,-7 14,-13 21,-17 -1,-2 -1,-4 -2,-6 -6,1 -14,3 -19,6 0,1 -1,1 -2,1 -1,0 -3,0 -5,-2 -1,-2 -1,-5 1,-7 7,-5 16,-7 24,-9 -3,-18 -2,-29 -2,-29 -2,-5 -16,-1 -40,4 -25,6 -32,9 -34,13 0,1 0,2 0,3 0,0 21,75 24,92 1,7 0,13 -1,21 -2,16 -16,36 -2,53 1,1 2,2 3,3 4,0 2,-20 25,-25 53,-11 100,-23 125,-28 41,-9 48,9 46,-3 -2,-11 -11,-24 -31,-24l0 0z"/>
     <path class="fil0" d="M134 660c-12,3 -20,15 -17,27 3,12 15,20 26,17 13,-3 20,-15 17,-27 -2,-12 -14,-20 -26,-17l0 0zm7 33c-6,1 -12,-3 -13,-9 -1,-5 2,-11 8,-12 6,-2 12,2 13,8 2,5 -2,11 -8,13z"/>
     <path class="fil0" d="M178 650c-12,3 -19,15 -16,27 2,12 14,19 26,17 12,-3 20,-15 17,-27 -3,-12 -14,-20 -27,-17l0 0zm8 33c-6,1 -12,-3 -13,-9 -2,-6 2,-12 8,-13 6,-1 12,2 13,8 1,6 -2,12 -8,14z"/>
     <path class="fil0" d="M223 640c-12,3 -20,15 -17,26 3,13 15,20 27,18 12,-3 19,-15 17,-27 -3,-12 -15,-20 -27,-17l0 0zm7 33c-5,1 -11,-3 -12,-9 -2,-6 2,-12 8,-13 5,-1 11,2 13,8 1,6 -3,12 -9,14z"/>
     <path class="fil0" d="M268 630c-12,2 -20,15 -17,26 3,12 15,20 27,18 12,-3 19,-15 17,-27 -3,-12 -15,-20 -27,-17l0 0zm7 32c-6,1 -12,-2 -13,-8 -1,-6 3,-12 8,-13 6,-1 12,2 13,8 1,6 -2,12 -8,13z"/>
    </g>
   </g>
  </g>
  <g id="_1013740112">
   <g>
    <path class="fil0" d="M1039 335c-30,0 -53,25 -53,54 0,30 23,54 53,54 30,0 54,-24 54,-54 0,-29 -24,-54 -54,-54z"/>
    <g>
     <g>
      <path class="fil0" d="M1039 320c-6,0 -10,-5 -10,-11l0 -17c0,-6 4,-10 10,-10 6,0 11,4 11,10l0 17c0,6 -5,11 -11,11z"/>
     </g>
     <g>
      <path class="fil0" d="M1039 459c-6,0 -10,5 -10,11l0 16c0,6 4,11 10,11 6,0 11,-5 11,-11l0 -16c0,-6 -5,-11 -11,-11z"/>
     </g>
     <g>
      <path class="fil0" d="M1089 340c-4,-4 -4,-11 0,-15l12 -12c4,-4 10,-4 14,0 5,4 5,11 0,15l-11 12c-4,4 -11,4 -15,0z"/>
     </g>
     <g>
      <path class="fil0" d="M990 439c-4,-4 -11,-4 -15,0l-12 11c-4,5 -4,11 0,15 4,5 11,5 15,0l12 -11c4,-5 4,-11 0,-15z"/>
     </g>
     <g>
      <path class="fil0" d="M1109 389c0,-5 5,-11 11,-11l17 0c5,0 10,6 10,11 0,6 -5,11 -10,11l-17 0c-6,0 -11,-5 -11,-11z"/>
     </g>
     <g>
      <path class="fil0" d="M969 389c0,-5 -4,-11 -10,-11l-17 0c-6,0 -11,6 -11,11 0,6 5,11 11,11l17 0c6,0 10,-5 10,-11z"/>
     </g>
     <g>
      <path class="fil0" d="M1089 439c4,-4 11,-4 15,0l11 11c5,5 5,11 0,15 -4,5 -10,5 -14,0l-12 -11c-4,-5 -4,-11 0,-15z"/>
     </g>
     <g>
      <path class="fil0" d="M990 340c4,-4 4,-11 0,-15l-12 -12c-4,-4 -11,-4 -15,0 -4,4 -4,11 0,15l12 12c4,4 11,4 15,0z"/>
     </g>
    </g>
   </g>
  </g>
  <g id="_1013744784">
   <path class="fil0" d="M1242 1488c5,-3 5,-11 0,-17 -4,-6 -12,-9 -16,-5 -5,3 -5,11 0,17 4,7 11,9 16,5z"/>
   <path class="fil0" d="M1262 1473c5,-3 5,-11 0,-17 -4,-6 -12,-8 -17,-5 -4,4 -4,11 0,17 5,6 13,9 17,5z"/>
   <path class="fil0" d="M1273 1456c-4,2 -5,8 -2,14 2,5 8,8 12,6 4,-2 5,-8 2,-13 -2,-6 -7,-9 -12,-7z"/>
   <path class="fil0" d="M1236 1495c-5,-4 -10,-4 -13,-1 -4,4 -2,9 2,13 4,4 10,5 13,2 3,-4 2,-9 -2,-14z"/>
   <path class="fil0" d="M1275 1486c-5,-6 -14,-6 -21,-2 -6,5 -8,13 -4,20 -3,5 -3,13 1,18 5,7 15,8 22,3 3,-2 5,-5 6,-8 3,0 6,-1 9,-3 7,-6 9,-15 3,-22 -4,-6 -10,-8 -16,-6l0 0z"/>
   <path class="fil0" d="M1262 1404c4,-3 4,-11 0,-17 -5,-6 -13,-8 -17,-5 -5,4 -5,11 0,17 4,6 12,9 17,5z"/>
   <path class="fil0" d="M1281 1390c5,-4 5,-11 0,-17 -4,-7 -12,-9 -16,-6 -5,3 -5,12 0,18 4,6 12,8 16,5z"/>
   <path class="fil0" d="M1292 1373c-4,2 -5,8 -2,13 2,5 8,8 12,6 4,-2 5,-8 3,-13 -3,-5 -8,-9 -13,-6z"/>
   <path class="fil0" d="M1258 1425c3,-3 2,-9 -3,-13 -4,-4 -10,-5 -13,-1 -3,3 -2,9 2,13 5,4 10,4 14,1z"/>
   <path class="fil0" d="M1295 1402c-6,-6 -15,-6 -21,-2 -6,5 -8,14 -5,21 -3,5 -3,12 1,17 5,7 15,9 22,3 3,-2 5,-5 6,-8 3,0 7,-1 9,-3 7,-5 9,-15 4,-22 -4,-6 -11,-8 -16,-6l0 0z"/>
  </g>
  <path class="fil0" d="M355 636l189 0 0 -185 -189 0 0 185zm16 -15l158 0 0 -155 -158 0 0 155zm30 -117c0,0 12,-1 22,-1 9,0 17,2 21,7 5,3 8,10 8,18 0,7 -2,13 -7,17 -5,6 -11,9 -22,10 -3,0 -6,0 -6,0l0 24 -16 0 0 -75 0 0zm16 37c2,1 3,1 5,1 9,-1 14,-6 14,-13 0,-8 -5,-14 -13,-14 -3,0 -6,0 -6,0l0 26zm41 22c3,1 10,4 16,4 5,0 7,-1 7,-4 0,-4 -1,-7 -8,-9 -12,-4 -16,-8 -16,-15 0,-10 9,-19 23,-19 6,0 12,2 15,4l0 13c-2,-1 -10,-4 -14,-4 -5,0 -7,1 -7,4 0,3 2,4 9,7 10,3 15,9 15,17 0,11 -8,19 -24,19 -6,-1 -12,-3 -16,-5l0 -12 0 0 0 0z"/>
  <g id="_1013747120">
   <polygon class="fil0" points="1297,830 1281,834 1287,857 1335,845 1330,822 1314,826 "/>
   <path class="fil0" d="M1274 757l25 54 5 -1 -3 -59c0,-14 -3,-30 -7,-46 -5,-21 -12,-40 -20,-53 -8,-13 -15,-15 -16,-15 -1,1 -5,5 -6,21 -1,15 1,35 6,56 4,16 10,31 16,43l0 0z"/>
   <path class="fil0" d="M1274 626c4,4 9,10 14,17 9,14 17,34 22,56 4,17 6,33 7,48l0 60 6 -1 28 -70c6,-14 7,-32 3,-48 -9,-37 -43,-62 -80,-62l0 0z"/>
   <path class="fil0" d="M1286 815l-28 -54c-7,-13 -12,-29 -16,-45 -6,-22 -8,-43 -6,-60 0,-9 2,-16 4,-21 -33,16 -52,54 -42,91 4,18 13,32 25,42l57 49 6 -2z"/>
  </g>
  <path class="fil0" d="M1972 401c-1,-4 -4,-7 -8,-8l-3 0 -43 -32c-8,-6 -19,-8 -28,-5 -4,1 -6,5 -5,8 1,4 5,6 8,5 6,-2 12,-1 17,3l26 19c-5,0 -11,0 -16,1 -8,1 -16,3 -23,5l-4 1c-16,3 -32,3 -48,0l-5 -1c-8,-2 -16,-4 -23,-5 -6,-1 -11,-1 -17,-1l26 -19c5,-4 11,-5 18,-3 3,1 7,-1 8,-5 1,-3 -1,-7 -5,-8 -10,-3 -21,-1 -29,5l-42 32 -3 0c-5,1 -8,4 -8,8l-1 8c0,3 2,6 6,8 1,1 2,2 2,3l1 14c2,17 15,30 33,30l15 1c12,0 23,-6 29,-17l13 -21c0,-2 3,-2 5,-2 0,0 1,0 1,0 2,0 4,0 5,1l13 23c6,10 17,16 29,16l15 -1c17,0 31,-13 33,-30l1 -14c0,-1 1,-2 2,-3 3,-2 5,-5 5,-8l0 -8 0 0zm-40 5c2,0 4,0 6,0 5,1 11,5 12,12l0 14c0,5 -2,9 -5,13 -3,3 -8,6 -13,6 0,0 -12,0 -13,0 -22,0 -28,-22 -29,-23 -1,-4 0,-8 2,-12 3,-4 6,-6 11,-7 12,-2 22,-3 29,-3zm-115 45c0,0 -13,0 -13,0 -5,0 -9,-3 -13,-6 -3,-4 -5,-8 -4,-13l0 -14c0,-7 6,-11 12,-12 7,-1 18,0 35,3 4,1 8,3 10,7 3,4 4,8 2,12 0,1 -7,23 -29,23l0 0z"/>
  <g id="_1013740560">
   <g>
    <path class="fil0" d="M672 277c-2,3 -1,7 2,9l23 15c1,1 3,4 4,6l4 22 -15 -10c-9,-6 -14,-2 -12,8l24 105c1,2 2,4 3,6l-47 69 -39 -7c-3,-1 -4,0 -1,2l72 49c3,2 3,1 2,-1l-23 -36 47 -69c2,1 6,2 9,1l97 -20c10,-2 11,-9 2,-15l-104 -72 -7 -35c-1,-5 -5,-10 -9,-13l-23 -15c-3,-2 -7,-2 -9,1l0 0z"/>
    <path class="fil0" d="M857 447c9,-11 13,-25 11,-39 -1,-14 -9,-26 -20,-35 -20,-15 -46,-15 -65,1l7 10c15,-13 35,-13 51,-1 8,7 13,16 14,26 2,11 -1,22 -8,30 -6,8 -15,14 -26,15 -11,2 -21,-2 -30,-8 -3,-3 -6,-6 -8,-9l-10 7c3,5 6,8 10,12 1,1 2,1 3,2 11,7 24,10 36,9 14,-2 27,-9 35,-20l0 0z"/>
   </g>
  </g>
  <path class="fil0" d="M1312 506c-6,-2 -10,-7 -10,-13l0 -57c0,-4 -3,-7 -7,-7l-7 0c-4,0 -7,3 -7,7l0 35c0,20 -16,36 -36,36 -20,0 -36,-16 -36,-36l0 -35c0,-4 -3,-7 -7,-7l-7 0c-4,0 -7,3 -7,7l0 57c0,6 -4,11 -10,13 -3,1 -4,4 -4,7l0 52c0,3 3,7 7,7l128 0c4,0 8,-4 8,-7l0 -52c0,-3 -2,-6 -5,-7l0 0z"/>
  <g id="_1013747760">
   <g>
    <path class="fil0" d="M1510 364c-3,-2 -7,-3 -10,-3l-4 -70c0,-3 -3,-6 -6,-8l-17 -6c-5,-2 -10,0 -12,5 -2,5 0,10 5,12l11 4 1 20 -74 -29 -1 -13 4 2c5,2 11,-1 13,-6 1,-5 -1,-10 -6,-12l-32 -12c-5,-2 -11,0 -13,5 -2,5 1,10 6,12l9 3 1 23 -27 18c-4,-5 -9,-8 -16,-10 -25,-10 -53,2 -62,27 -10,25 3,53 28,63 21,8 45,0 57,-20l8 3c0,13 9,24 22,26 14,2 27,-7 29,-22 1,-2 1,-3 1,-5l55 -25 1 16c-15,4 -27,14 -33,29 -10,25 3,53 27,63 25,9 53,-3 63,-28 9,-25 -3,-53 -28,-62l0 0zm-122 -15c-3,1 -6,3 -8,6l-7 -3c1,-10 0,-19 -4,-27l17 -12 2 36 0 0zm-35 -13c1,3 1,6 1,9l-9 -4 8 -5 0 0zm-39 35c-15,-6 -22,-23 -17,-38 7,-15 23,-22 38,-17 3,1 5,3 7,4l-23 16c-2,2 -4,5 -4,9 1,3 3,6 6,8l26 9c-7,10 -21,13 -33,9l0 0zm103 -17c-3,-3 -6,-5 -10,-6l-2 -38 59 22 -47 22 0 0zm65 82c-15,-6 -22,-23 -17,-38 3,-8 9,-13 17,-16l2 27c0,4 2,7 5,9 2,0 3,0 4,0 6,0 9,-5 9,-10l-1 -28c1,1 1,1 2,2 16,5 23,22 17,37 -6,15 -23,23 -38,17z"/>
   </g>
  </g>
  <g id="_1013718832">
   <g>
    <g>
     <path class="fil0" d="M1775 157l-56 19 -6 -19c-2,-4 -6,-6 -9,-5l-55 19c-3,1 -5,5 -4,9l6 19 -47 16c-6,2 -10,7 -9,11l12 34 26 -8 -3 -11 20 -7 4 11 104 -36 -4 -11 21 -7 4 11 20 -7 -11 -35c-1,-4 -7,-5 -13,-3l0 0zm-117 27c-1,-2 0,-5 3,-6l36 -12c3,-1 6,1 6,3l4 11 -45 15 -4 -11 0 0 0 0z"/>
     <path class="fil0" d="M1784 218l-21 7 -3 -11 -105 36 4 10 -21 7 -3 -10 -26 8 22 66c2,4 8,6 14,4l170 -58c6,-2 10,-7 9,-11l-23 -66 -20 7 3 11 0 0z"/>
    </g>
   </g>
   <g>
   </g>
   <g>
   </g>
   <g>
   </g>
   <g>
   </g>
   <g>
   </g>
   <g>
   </g>
   <g>
   </g>
   <g>
   </g>
   <g>
   </g>
   <g>
   </g>
   <g>
   </g>
   <g>
   </g>
   <g>
   </g>
   <g>
   </g>
   <g>
   </g>
  </g>
  <g id="_1013724176">
   <path class="fil0" d="M620 246c0,50 -243,106 -262,106 -10,0 -21,-3 -21,-13 0,-3 3,-7 10,-13l0 0 -17 -30c-2,-4 -1,-9 4,-11l3 -1c5,-2 11,-2 16,1l31 16c12,-7 26,-14 40,-22l-60 -39c-5,-3 -5,-10 0,-13l5 -3c8,-5 18,-7 27,-4l100 26c31,-13 60,-21 76,-21 5,0 10,0 14,1l-30 13 -1 11 46 -22c11,2 19,7 19,18l0 0zm-123 86l38 43c2,2 6,3 9,2l5 -3c9,-4 15,-13 13,-23l-4 -40c-1,-3 -3,-5 -5,-4l-54 19c-2,1 -3,4 -2,6z"/>
  </g>
  <g id="_1013710608">
   <g>
    <g>
     <path class="fil0" d="M948 45c-50,0 -91,40 -91,91 0,50 41,90 91,90 50,0 90,-40 90,-90 0,-51 -40,-91 -90,-91zm0 160c-38,0 -69,-31 -69,-69 0,-38 31,-69 69,-69 38,0 69,31 69,69 0,38 -31,69 -69,69z"/>
    </g>
   </g>
   <g>
    <g>
     <path class="fil0" d="M948 85c-28,0 -51,23 -51,51 0,27 23,50 51,50 28,0 50,-23 50,-50 0,-28 -22,-51 -50,-51z"/>
    </g>
   </g>
   <g>
    <g>
     <path class="fil0" d="M1074 143l0 -110c0,-1 0,-2 -1,-2 -1,0 -2,0 -3,1 -14,18 -21,40 -21,63l0 40c0,5 4,8 8,8l4 0c-4,36 -6,85 -6,91 0,9 6,17 13,17 6,0 12,-8 12,-17 0,-6 -2,-55 -6,-91z"/>
    </g>
   </g>
   <g>
    <g>
     <path class="fil0" d="M843 121c7,-4 12,-12 12,-20l-4 -57c0,-2 -2,-4 -4,-4 -2,0 -4,2 -4,5l3 45c0,3 -3,5 -5,5 -3,0 -5,-2 -5,-5l-1 -45c0,-3 -2,-5 -4,-5 -3,0 -5,2 -5,5l-1 45c0,3 -2,5 -4,5 -3,0 -5,-2 -5,-5l2 -45c0,-3 -2,-5 -4,-5 -2,0 -4,2 -4,4l-3 57c0,8 4,16 11,20 5,3 7,8 7,14 -4,35 -7,93 -7,99 0,9 6,17 13,17 7,0 12,-8 12,-17 0,-6 -2,-64 -6,-99 -1,-6 2,-11 6,-14l0 0z"/>
    </g>
   </g>
  </g>
  <g id="_1013724560">
   <g>
    <path class="fil0" d="M2056 642c-1,-6 -1,-17 5,-21 0,0 0,0 1,0 4,-2 8,-4 5,-7l-71 -21 -114 16c0,0 -13,2 -12,22 1,11 4,17 8,19l-10 3c-3,3 1,5 5,7 0,0 1,0 1,0 6,3 6,15 5,21 -21,6 -14,8 -14,8l5 1c-3,3 -7,8 -6,19 1,20 12,21 12,21l75 25 113 -28c0,0 7,-2 -14,-7 -1,-7 -1,-18 5,-21 0,0 0,-1 0,-1 5,-1 8,-3 6,-6l-6 -2c4,-2 9,-7 10,-20 0,-9 -2,-15 -5,-18l10 -2c0,0 7,-2 -14,-8l0 0zm-94 0l19 -4 64 -13 9 -2c-3,5 -3,13 -2,18 0,1 0,2 0,3l-10 2 -81 20 1 -24 0 0zm-81 19l9 2 62 13 5 1 0 0 0 0 16 4 1 24 -83 -20 -8 -2c0,-1 0,-2 0,-3 1,-5 1,-13 -2,-19l0 0zm-5 -31c0,-5 2,-9 4,-11 1,-1 2,-2 3,-2 1,0 1,0 1,0l49 16 25 9 -1 24 -69 -19 -3 -1c0,0 -1,0 -1,0 0,0 -7,-1 -8,-16l0 0zm75 114l-72 -20c-1,0 -1,0 -1,0 0,0 -7,-1 -8,-16 0,-6 1,-10 3,-12 1,-1 3,-1 4,-1 1,0 1,0 1,0 0,0 0,0 0,0l74 24 -1 25zm95 -26c0,2 0,3 0,3l-91 23 1 -25 19 -4 3 1 11 -3 50 -11 9 -2c-3,6 -3,14 -2,18l0 0zm5 -33c-1,0 -1,0 -1,0l-7 2 -65 18 -1 -25 22 -7 51 -17c1,0 3,0 5,2 2,2 4,5 3,11 0,15 -7,16 -7,16l0 0z"/>
   </g>
  </g>
  <g id="_1013710192">
   <g>
    <path class="fil0" d="M791 673c-2,0 -3,2 -3,5 0,7 0,20 0,27 0,3 1,5 3,5 2,0 4,-2 4,-5 0,-7 0,-20 0,-27 0,-3 -2,-5 -4,-5z"/>
    <path class="fil0" d="M583 673c-2,0 -3,2 -3,5 0,7 0,20 0,27 0,3 1,5 3,5 2,0 4,-2 4,-5 0,-7 0,-20 0,-27 0,-3 -2,-5 -4,-5z"/>
    <path class="fil0" d="M629 630c-7,0 -12,7 -12,15 0,23 0,70 0,93 0,8 5,15 12,15 7,0 12,-7 12,-15 0,-9 0,-21 0,-35 7,0 71,0 90,0 0,14 0,26 0,35 0,8 6,15 13,15 6,0 12,-7 12,-15 0,-23 0,-70 0,-93 0,-8 -6,-15 -12,-15 -7,0 -13,7 -13,15 0,9 0,21 0,35 -19,0 -83,0 -90,0 0,-14 0,-26 0,-35 0,-8 -5,-15 -12,-15z"/>
    <path class="fil0" d="M773 649c-1,0 -1,0 -2,0 -5,0 -9,5 -9,10 0,16 0,49 0,65 0,6 4,10 9,10 1,0 1,0 2,0 5,0 9,-4 9,-10 0,-16 0,-49 0,-65 0,-5 -4,-10 -9,-10z"/>
    <path class="fil0" d="M602 649c-1,0 -1,0 -1,0 -5,0 -10,5 -10,10 0,16 0,49 0,65 0,6 5,10 10,10 0,0 0,0 1,0 5,0 9,-4 9,-10 0,-16 0,-49 0,-65 0,-5 -4,-10 -9,-10z"/>
   </g>
  </g>
  <path class="fil0" d="M1629 1446l-97 0c0,0 -4,0 -4,5l9 96c0,0 4,5 4,5l37 9c0,0 4,0 4,0l37 -9c0,0 5,-5 5,-5l9 -96c0,-5 -4,-5 -4,-5l0 0 0 0zm-19 32c0,0 0,0 0,0 0,0 0,0 0,0l-28 14c0,0 0,0 0,0 0,0 0,0 5,0l18 0c0,0 5,0 5,0 0,4 0,4 0,4l-5 33c0,0 0,0 0,0l-23 9c0,0 -4,0 -4,0l-23 -9c0,0 0,0 0,0l0 -14c0,0 0,-5 0,-5 0,0 0,0 0,0l5 0c4,0 4,0 4,5l0 5 18 9 14 -9 0 -14 -41 0c0,0 -5,-5 -5,-5l0 -9c0,0 0,0 0,0l28 -14c4,0 4,0 4,0 0,0 -4,0 -4,0l-28 0c0,0 0,0 0,0l0 -9c0,0 0,0 0,0 0,0 0,0 0,0l60 0c0,0 0,0 0,0 4,0 4,0 4,0l-4 9 0 0z"/>
  <path class="fil0" d="M1462 1391l8 93 41 8 36 -8 9 -93 -94 0 0 0zm73 28l-40 0 0 13 40 0 -4 36 -20 4 0 0 0 0 -24 -4 -4 -20 12 0 0 12 16 0 12 0 0 -16 -40 0 -5 -37 61 0 -4 12 0 0 0 0z"/>
  <g id="_1013726352">
   <g id="Layer_1_78__4">
    <g>
     <path class="fil0" d="M2133 718c7,0 18,-1 30,-2l1 0c0,0 4,-1 9,-2 4,6 10,14 11,20 0,1 2,3 3,3 1,0 2,0 2,0 3,0 4,-3 4,-5 -1,-7 -6,-14 -10,-20 3,-1 7,-2 10,-3 4,5 7,11 8,16 1,2 3,3 4,4 1,0 2,0 2,0 3,-1 4,-3 4,-6 -1,-6 -5,-12 -9,-18 4,-1 7,-3 10,-5 4,6 8,13 9,18 0,2 2,3 3,4 1,0 2,0 2,0 3,-1 4,-3 4,-6 -1,-7 -6,-15 -11,-21 3,-2 6,-4 8,-7 5,4 10,10 12,15 1,2 3,4 4,4 1,0 2,0 2,0 3,-2 4,-4 3,-7 -3,-7 -11,-15 -16,-20 1,-2 2,-4 2,-6 0,-2 1,-3 1,-5 6,3 12,7 14,11 1,1 2,2 3,2 1,0 3,0 4,-1 2,-1 2,-4 1,-6 -4,-7 -13,-12 -20,-16 1,-2 1,-4 2,-6 6,1 13,3 17,6 1,0 2,0 2,1 2,0 4,-1 5,-2 2,-2 1,-5 -1,-7 -6,-4 -15,-6 -22,-8 3,-18 2,-28 2,-28 2,-4 15,-1 38,4 23,5 30,8 32,12 1,1 1,2 1,3 -1,1 -21,71 -24,88 -1,6 0,12 1,19 2,16 16,34 2,51 -1,1 -1,2 -3,2 -3,1 -2,-18 -24,-23 -49,-11 -94,-22 -118,-26 -39,-9 -46,8 -44,-4 2,-10 11,-22 30,-23l0 0z"/>
     <path class="fil0" d="M2264 776c12,3 19,14 16,25 -2,12 -14,19 -25,17 -12,-3 -19,-15 -16,-26 2,-11 14,-19 25,-16zm-7 31c5,1 11,-3 12,-8 1,-6 -2,-11 -8,-12 -5,-2 -11,2 -12,7 -1,6 2,11 8,13l0 0z"/>
     <path class="fil0" d="M2221 766c12,3 19,15 16,26 -2,11 -14,18 -25,16 -12,-3 -19,-14 -16,-25 2,-12 14,-19 25,-17zm-6 31c5,1 11,-2 12,-8 1,-5 -2,-11 -8,-12 -5,-2 -11,2 -12,8 -1,5 2,11 8,12l0 0z"/>
     <path class="fil0" d="M2179 757c11,2 18,14 16,25 -3,12 -14,19 -25,16 -12,-2 -19,-14 -16,-25 2,-12 14,-19 25,-16zm-7 31c6,1 11,-3 12,-8 2,-6 -2,-12 -7,-13 -6,-1 -12,2 -13,8 -1,6 3,11 8,13l0 0z"/>
     <path class="fil0" d="M2137 747c11,3 18,14 15,25 -2,12 -13,19 -25,17 -11,-3 -18,-15 -16,-26 3,-11 14,-18 26,-16zm-8 31c6,1 12,-3 13,-8 1,-6 -2,-11 -8,-12 -6,-2 -11,2 -12,7 -2,6 2,11 7,13l0 0z"/>
    </g>
   </g>
  </g>
  <path class="fil0" d="M1889 1792c0,0 0,-1 0,-1 1,0 0,-1 0,-1l-10 -9 1 -14c0,-1 0,-1 -1,-1 0,0 0,0 0,0 0,0 -1,0 -1,0l-12 7 -13 -5c0,0 0,0 0,0 0,0 0,0 -1,0 0,0 0,0 0,1l3 13 -9 11c0,0 0,1 0,1 0,1 1,1 1,1l14 1 7 12c0,0 0,0 1,0 0,0 0,0 0,0 0,0 0,0 1,-1l5 -12 14 -3 0 0z"/>
  <g id="_1013710224">
   <path class="fil0" d="M144 1382c1,-6 4,-10 7,-14 2,-3 6,-6 9,-9 4,-3 8,-5 11,-6 3,-2 6,-3 10,-4 4,-1 6,-1 7,-1 1,-1 2,-1 3,-1 -11,-3 -21,-7 -31,-13l-1 2c0,1 -1,3 -2,5 -2,2 -3,4 -5,6 -2,3 -4,5 -6,7 -3,2 -6,4 -8,6 -3,2 -6,3 -10,4 -3,1 -7,2 -11,2 -4,0 -9,-1 -13,-3 -5,-1 -10,-4 -14,-7 1,-5 3,-10 6,-14 3,-4 6,-7 9,-9 3,-3 7,-4 11,-6 3,-1 7,-2 9,-2 3,-1 6,-1 9,-1 3,0 5,0 6,0 1,0 2,0 2,0 -1,-1 -4,-2 -6,-4 -3,-2 -4,-3 -5,-4l-2 0c-1,0 -2,-1 -4,-1 -3,-1 -5,-2 -7,-3 -3,-1 -6,-2 -9,-4 -2,-2 -5,-4 -7,-6 -3,-2 -5,-5 -7,-8 -2,-3 -3,-6 -5,-10 -1,-3 -1,-8 -1,-12 0,-6 1,-11 3,-17 7,0 12,1 17,3 6,2 10,5 13,8 3,3 6,7 8,11 2,4 4,7 5,11 1,3 2,7 2,10 1,4 1,6 1,8 0,1 0,2 0,3 4,3 11,7 19,12l-1 -1c-1,-1 -2,-3 -3,-4 -1,-2 -2,-4 -3,-7 -1,-2 -2,-5 -4,-8 0,-3 -1,-6 -1,-9 -1,-3 -1,-7 0,-10 1,-4 2,-7 4,-10 2,-4 4,-8 7,-11 4,-4 8,-7 13,-10 4,4 7,7 9,11 3,4 4,8 6,12 0,4 1,7 1,11 -1,4 -1,7 -3,11 -1,3 -2,6 -4,9 -1,4 -3,6 -4,9 -2,2 -3,4 -5,6 -1,2 -2,3 -3,4 -1,1 -1,1 -1,1 10,6 21,10 32,13 -2,-4 -3,-7 -4,-11 -1,-3 -1,-8 -1,-13 0,-5 1,-11 3,-16 2,-4 6,-10 11,-15 5,-6 11,-11 20,-16 3,6 6,11 8,17 2,5 3,10 3,14 0,4 0,8 -1,13 -1,4 -2,7 -3,10 -2,3 -4,6 -6,9 -2,2 -5,4 -7,6 -3,2 -5,4 -7,5 16,3 31,1 44,-3 13,-4 24,-12 31,-22 1,-1 2,-2 4,-2 1,0 3,0 4,1 1,1 2,2 2,3 0,2 0,3 -1,4 -10,13 -22,22 -38,26 -16,5 -34,6 -53,3l0 2c0,1 -1,3 -1,5 -1,3 -2,5 -2,9 -1,3 -3,6 -4,9 -2,3 -4,7 -6,10 -2,3 -5,5 -8,8 -4,2 -7,4 -11,6 -4,1 -9,2 -14,2 -6,0 -12,-1 -18,-2 -1,-7 0,-13 2,-18l0 0z"/>
  </g>
  <path class="fil0" d="M301 1503c-1,0 -3,0 -4,1l-18 14 -22 -7c-1,0 -3,0 -4,1 0,1 -1,1 -1,1 0,1 0,2 0,3l9 22 -14 19c0,0 0,0 0,0 -1,1 -1,3 0,4 0,1 2,2 3,2l23 -1 14 18c1,2 3,2 4,2 1,0 2,-1 3,-2 0,0 0,0 0,-1l6 -22 22 -8c1,0 1,-1 2,-1 0,-1 0,-1 0,-2 1,-1 0,-3 -1,-3l-19 -13 -1 -24c0,-1 -1,-2 -2,-3l0 0z"/>
  <path class="fil0" d="M437 1741c2,0 3,-1 3,-2 0,-2 0,-3 -1,-4l-37 -30 5 -47c0,-2 -1,-3 -2,-4 0,0 -1,0 -2,0 0,0 -1,0 -2,0l-40 25 -44 -19c0,0 -1,0 -1,0 -1,0 -2,0 -2,1 -1,1 -2,2 -1,4l11 45 -31 36c-1,1 -1,2 -1,4 1,1 2,2 3,2l48 4 24 40c0,1 2,2 3,2 0,0 0,0 0,0 2,0 3,-1 3,-2l18 -45 46 -10 0 0z"/>
  <path class="fil0" d="M1936 1785l-6 34c0,2 1,3 2,4 0,0 1,1 2,1 1,0 1,-1 2,-1l30 -16 31 16c0,0 1,1 2,1 0,0 1,-1 2,-1 1,-1 1,-2 1,-4l-6 -34 25 -23c1,-1 1,-3 1,-4 -1,-1 -2,-2 -3,-3l-35 -5 -15 -30c0,-2 -1,-2 -3,-2 -1,0 -2,0 -3,2l-16 30 -33 5c-2,1 -3,2 -4,3 0,1 0,3 1,4l25 23z"/>
  <circle class="fil0" cx="1430" cy="1307" r="10"/>
  <circle class="fil0" cx="1430" cy="1307" r="24"/>
  <circle class="fil0" cx="517" cy="1768" r="12"/>
  <circle class="fil0" cx="558" cy="1801" r="27"/>
  <circle class="fil0" cx="560" cy="1721" r="6"/>
  <circle class="fil0" cx="560" cy="1721" r="14"/>
  <g id="_1013704464">
   <g>
    <g>
     <path class="fil0" d="M1028 1090l234 0c7,0 13,5 13,11l0 148c0,6 -6,12 -13,12l-87 0 0 29 33 0c7,0 13,5 13,11 0,6 -6,11 -13,11l-127 0c-6,0 -11,-5 -11,-11 0,-6 5,-11 11,-11l34 0 0 -29 -87 0c-7,0 -13,-6 -13,-12l0 -148c0,-6 6,-11 13,-11l0 0zm6 152l222 0 0 -134 -222 0 0 134z"/>
     <path class="fil0" d="M1215 1182l-40 19c0,0 -2,0 -3,0 -2,0 -2,0 -3,-2 -3,0 -3,-3 -3,-6l0 0c0,-3 1,-5 3,-6l25 -11 -25 -13c-2,0 -3,-3 -3,-6l0 0c0,-4 0,-5 3,-7 1,-1 1,-1 3,-1 1,0 3,0 3,0l40 19c3,1 4,4 4,6l0 2c0,3 -1,5 -4,6z"/>
     <path class="fil0" d="M1164 1220c-2,2 -3,3 -6,3l0 0c-4,0 -7,-3 -7,-6l-27 -80c0,-3 0,-6 2,-7 2,-2 3,-4 6,-4l0 0c3,0 7,4 8,7l26 79c0,3 0,5 -2,8l0 0z"/>
     <path class="fil0" d="M1126 1157c0,3 -2,6 -5,6l-25 13 25 11c3,1 5,3 5,6l0 0c0,3 -2,6 -5,6 0,2 -1,2 -3,2 -2,0 -3,0 -3,0l-40 -19c-3,-1 -5,-3 -5,-6l0 -2c0,-2 2,-5 5,-6l40 -19c0,0 1,0 3,0 2,0 3,0 3,1 3,2 5,3 5,7l0 0 0 0z"/>
    </g>
   </g>
  </g>
  <g id="_1013729008">
   <g>
    <path class="fil0" d="M1932 814c-1,1 -2,2 -1,4 2,4 6,13 8,17 1,2 2,2 4,2 1,-1 1,-2 1,-4 -3,-4 -6,-13 -8,-17 -1,-2 -3,-3 -4,-2l0 0z"/>
    <path class="fil0" d="M1803 873c-1,1 -2,2 -1,4 2,4 6,13 8,18 1,1 3,2 4,1 1,0 2,-2 1,-4 -2,-4 -6,-13 -8,-17 -1,-2 -3,-2 -4,-2z"/>
    <path class="fil0" d="M1819 834c-4,2 -5,7 -3,12 6,15 20,44 27,58 2,5 7,7 11,5 4,-2 6,-7 4,-12 -3,-5 -6,-14 -10,-22 4,-2 44,-20 55,-26 4,9 8,17 11,23 2,4 7,7 11,5 4,-2 6,-8 4,-12 -7,-15 -20,-44 -27,-59 -2,-4 -7,-7 -11,-5 -5,2 -6,8 -4,12 3,6 6,14 10,22 -12,6 -51,24 -56,26 -4,-8 -7,-16 -10,-22 -2,-5 -7,-7 -12,-5z"/>
    <path class="fil0" d="M1914 805c0,0 -1,0 -1,0 -3,1 -5,5 -3,8 5,11 14,31 19,41 1,3 5,5 8,3 0,0 0,0 1,0 3,-1 4,-5 3,-9 -5,-10 -14,-30 -19,-40 -1,-4 -5,-5 -8,-3z"/>
    <path class="fil0" d="M1808 853c0,1 0,1 0,1 -4,1 -6,5 -4,8 5,10 14,31 19,41 1,3 5,4 8,3 0,0 1,0 1,-1 3,-1 4,-5 3,-8 -5,-10 -14,-31 -18,-40 -2,-4 -6,-5 -9,-4z"/>
   </g>
  </g>
  <path class="fil0" d="M873 529l3 23 -18 15c-1,1 -2,2 -1,4 0,1 1,2 2,2l23 5 9 22c1,1 2,2 3,2 0,0 0,0 0,0 2,0 3,0 3,-1l13 -21 22 -2c2,0 3,-1 4,-2 0,-1 0,-3 -1,-4l-15 -17 5 -23c0,-1 0,-2 -1,-3 -1,-1 -2,-1 -3,-1 0,0 0,0 -1,0l-22 10 -19 -12c-1,-1 -1,-2 -2,-2 -1,0 -1,1 -2,2 -1,0 -2,2 -2,3l0 0z"/>
  <g id="g4224_5">
   <path id="path4228_6" class="fil0" d="M1658 1326c-12,1 -26,10 -35,21 -8,10 -11,20 -11,32 0,10 3,18 10,27l2 2 -1 -5c-2,-3 -2,-6 -2,-13 0,-10 2,-18 9,-26 10,-16 26,-25 44,-26 14,-1 24,2 33,10l4 4 -2 -3c-9,-18 -28,-26 -51,-23l0 0 0 0zm14 32c-5,1 -10,3 -15,7 -6,4 -9,8 -13,15 -2,5 -2,6 -2,15 0,8 0,9 2,13 2,3 4,6 5,7l2 3 -2 -5c-1,-3 -1,-5 -1,-11 0,-6 1,-7 3,-13 10,-19 33,-29 51,-20 3,1 6,3 8,5 4,4 4,2 0,-4 -4,-4 -9,-9 -16,-11 -4,-2 -17,-3 -22,-1l0 0 0 0zm9 28c-5,3 -9,8 -12,13 -3,5 -3,13 0,18 2,4 3,5 2,2 -2,-7 1,-14 7,-21 5,-5 11,-8 18,-8 6,0 9,1 12,4 3,3 2,2 -1,-3 -5,-6 -17,-9 -26,-5l0 0 0 0z"/>
  </g>
  <circle class="fil0" cx="1412" cy="950" r="6"/>
  <circle class="fil0" cx="1412" cy="950" r="14"/>
  <circle class="fil0" cx="1433" cy="131" r="16"/>
  <circle class="fil0" cx="1433" cy="131" r="37"/>
  <circle class="fil0" cx="1491" cy="194" r="8"/>
  <circle class="fil0" cx="1491" cy="194" r="19"/>
  <circle class="fil0" cx="1529" cy="127" r="11"/>
  <circle class="fil0" cx="1529" cy="127" r="25"/>
  <path class="fil0" d="M2305 1040c-2,3 -4,7 -5,10 0,-4 0,-8 -2,-11 -4,-12 -11,-16 -17,-13 -6,2 -8,10 -3,21 1,4 3,7 6,10 -3,-2 -7,-4 -11,-4 -12,-2 -19,2 -20,8 -1,7 5,13 17,14 4,1 8,0 12,-1 -4,2 -7,5 -10,8 -7,9 -7,17 -2,21 5,4 13,2 20,-8 3,-3 4,-6 5,-10 0,4 1,8 2,11 5,12 12,16 18,14 6,-3 8,-11 3,-22 -1,-3 -3,-7 -6,-9 3,1 7,3 11,4 12,1 18,-3 19,-9 1,-6 -4,-12 -16,-14 -4,-1 -8,0 -12,1 4,-2 7,-4 9,-7 8,-10 7,-18 3,-22 -5,-4 -13,-2 -21,8l0 0zm2 29c-1,5 -6,8 -10,8 -5,-1 -9,-6 -8,-11 1,-5 5,-8 10,-7 5,0 8,5 8,10l0 0z"/>
  <path class="fil0" d="M2249 1659c-6,-2 -15,-2 -22,-1 7,-3 14,-7 19,-12 16,-17 18,-32 10,-40 -9,-9 -24,-7 -40,10 -5,5 -9,11 -12,18 1,-7 1,-15 -1,-22 -6,-23 -18,-31 -30,-28 -11,3 -17,16 -11,39 1,7 6,14 10,19 -6,-4 -13,-8 -20,-10 -23,-6 -36,1 -39,12 -3,11 5,23 28,29 7,2 15,2 22,1 -7,3 -13,8 -18,13 -17,16 -18,31 -10,39 8,9 23,7 40,-10 5,-5 9,-11 12,-18 -1,7 -1,15 1,22 6,23 18,31 29,28 12,-3 18,-16 12,-39 -2,-7 -6,-14 -10,-19 6,4 12,8 20,10 22,6 36,-1 39,-12 3,-11 -6,-23 -29,-29zm-50 24c-8,2 -18,-4 -20,-13 -2,-9 3,-18 12,-20 9,-3 18,3 21,12 2,9 -3,18 -13,21z"/>
  <path class="fil0" d="M685 1792c-2,3 -4,7 -5,10 0,-3 0,-7 -2,-11 -4,-12 -11,-15 -17,-13 -6,2 -8,10 -3,21 1,4 3,7 6,10 -3,-2 -7,-4 -11,-4 -12,-2 -19,2 -20,8 -1,6 5,13 17,14 3,1 8,0 12,-1 -4,2 -7,5 -10,8 -7,9 -7,17 -2,21 5,4 13,2 20,-8 3,-2 4,-6 5,-10 0,4 1,8 2,11 5,12 12,16 18,14 6,-3 8,-11 3,-22 -1,-3 -3,-7 -6,-9 3,2 7,3 11,4 12,1 18,-3 19,-9 1,-6 -4,-12 -16,-14 -4,0 -8,0 -12,1 4,-2 7,-4 9,-7 8,-10 7,-18 3,-22 -5,-4 -13,-2 -21,8l0 0zm2 29c-1,5 -6,8 -10,8 -5,-1 -9,-6 -8,-11 1,-5 5,-8 10,-7 5,0 8,5 8,10l0 0z"/>
  <path class="fil0" d="M1179 275l-6 33c0,2 0,3 1,4 1,1 2,1 2,1 1,0 1,0 2,-1l31 -16 30 16c1,1 1,1 2,1 1,0 1,0 2,-1 1,-1 2,-2 1,-4l-5 -33 24 -25c1,-1 2,-2 1,-3 -1,-2 -2,-3 -3,-3l-34 -5 -15 -31c-1,-1 -2,-2 -3,-2 -2,0 -3,1 -4,2l-15 31 -34 5c-2,0 -3,1 -3,3 -1,1 0,2 1,3l25 25 0 0z"/>
  <g id="_1013707312">
   <path id="path69572" class="fil1" d="M1304 119c-22,-18 -6,-35 -6,-35l6 35zm-45 48c-21,-19 -5,-35 -5,-35l5 35zm-25 -104c-9,-3 -27,-6 -42,24 0,0 24,19 42,-6 2,26 11,40 18,47 -11,12 -9,29 1,40 12,9 29,9 40,-3 11,-12 11,-29 -2,-40 -9,-10 -25,-10 -35,-1 -16,-16 -17,-43 -17,-51 0,0 0,-1 2,-1 6,-2 33,-4 52,10 -9,12 -6,28 4,38 12,10 29,10 40,-3 11,-11 9,-29 -3,-40 -10,-9 -27,-9 -39,2 -7,-5 -22,-14 -48,-14 29,-20 7,-47 7,-47 -29,19 -25,36 -20,45l0 0 0 0 0 0zm0 0l0 0 0 0z"/>
   <g>
    <path id="_1_7" class="fil1" d="M1304 119c-22,-18 -6,-35 -6,-35l6 35zm-45 48c-21,-19 -5,-35 -5,-35l5 35zm-25 -104c-9,-3 -27,-6 -42,24 0,0 24,19 42,-6 2,26 11,40 18,47 -11,12 -9,29 1,40 12,9 29,9 40,-3 11,-12 11,-29 -2,-40 -9,-10 -25,-10 -35,-1 -16,-16 -17,-43 -17,-51 0,0 0,-1 2,-1 6,-2 33,-4 52,10 -9,12 -6,28 4,38 12,10 29,10 40,-3 11,-11 9,-29 -3,-40 -10,-9 -27,-9 -39,2 -7,-5 -22,-14 -48,-14 29,-20 7,-47 7,-47 -29,19 -25,36 -20,45l0 0zm0 0l0 0 0 0z"/>
   </g>
  </g>
  <circle class="fil0" cx="1375" cy="899" r="12"/>
  <circle class="fil0" cx="1375" cy="899" r="27"/>
  <circle class="fil0" transform="matrix(0.010287 0.0344557 -0.0344557 0.010287 1722.16 1852.49)" r="172"/>
  <circle class="fil0" transform="matrix(0.0103778 0.0347598 -0.0347598 0.0103778 1722.16 1852.49)" r="397"/>
  <circle class="fil0" transform="matrix(0.0195661 0.0655355 -0.0655355 0.0195661 1760.3 1802.53)" r="172"/>
  <circle class="fil0" transform="matrix(0.0197387 0.066114 -0.066114 0.0197387 1790.72 1849.06)" r="397"/>
  <g id="_1013734768">
   <path id="path69566" class="fil1" d="M1022 854c-12,-12 -12,-34 -12,-34 7,-28 37,-25 37,-25 -29,13 -25,59 -25,59l0 0 0 0zm101 45l0 0 1 0 -1 0 37 -82c13,-56 -31,-69 -31,-69 -50,-9 -55,35 -57,44 -7,-5 -44,-29 -71,15 0,0 -16,42 36,69l86 23 0 0 0 0 0 0zm0 0l0 0 0 0z"/>
   <g>
    <path id="_1_8" class="fil1" d="M1022 854c-12,-12 -12,-34 -12,-34 7,-28 37,-25 37,-25 -29,13 -25,59 -25,59l0 0 0 0zm101 45l0 0 1 0 -1 0 37 -82c13,-56 -31,-69 -31,-69 -50,-9 -55,35 -57,44 -7,-5 -44,-29 -71,15 0,0 -16,42 36,69l86 23 0 0 0 0zm0 0l0 0 0 0z"/>
   </g>
  </g>
  <g id="_1013730512">
   <path id="path69584" class="fil1" d="M2410 877l-18 -20c32,15 50,-11 50,-11 -31,-21 -51,-6 -58,1l-21 -24c-1,-1 -3,-1 -5,1 -2,1 -2,3 -2,4l20 23c-8,7 -24,25 -7,57 0,0 25,-14 17,-46l17 20c-8,7 -23,25 -7,57 0,0 25,-14 17,-45l10 11c1,11 6,34 41,40 0,0 4,-33 -34,-44l-13 -15c32,15 51,-9 51,-9 -31,-22 -52,-7 -58,0l0 0 0 0 0 0zm0 0l0 0 0 0z"/>
   <g>
    <path id="_1_9" class="fil1" d="M2410 877l-18 -20c32,15 50,-11 50,-11 -31,-21 -51,-6 -58,1l-21 -24c-1,-1 -3,-1 -5,1 -2,1 -2,3 -2,4l20 23c-8,7 -24,25 -7,57 0,0 25,-14 17,-46l17 20c-8,7 -23,25 -7,57 0,0 25,-14 17,-45l10 11c1,11 6,34 41,40 0,0 4,-33 -34,-44l-13 -15c32,15 51,-9 51,-9 -31,-22 -52,-7 -58,0l0 0zm0 0l0 0 0 0z"/>
   </g>
  </g>
 </g>
</svg>
