<?xml version="1.0" encoding="UTF-8"?>
<!DOCTYPE svg PUBLIC "-//W3C//DTD SVG 1.1//EN" "http://www.w3.org/Graphics/SVG/1.1/DTD/svg11.dtd">
<!-- Creator: CorelDRAW X7 -->
<svg xmlns="http://www.w3.org/2000/svg" xml:space="preserve" width="47px" height="47px" version="1.1" style="shape-rendering:geometricPrecision; text-rendering:geometricPrecision; image-rendering:optimizeQuality; fill-rule:evenodd; clip-rule:evenodd"
viewBox="0 0 47 47"
 xmlns:xlink="http://www.w3.org/1999/xlink">
 <defs>
  <style type="text/css">
   <![CDATA[
    .str0 {stroke:#FEFEFE;stroke-width:2.07153}
    .fil1 {fill:none}
    .fil2 {fill:#FEFEFE}
    .fil0 {fill:none}
   ]]>
  </style>
 </defs>
 <g id="Layer_x0020_1">
  <metadata id="CorelCorpID_0Corel-Layer"/>
  <path class="fil0" d="M14 0l33 0 0 33c0,8 -6,14 -14,14l-33 0 0 -33c0,-8 6,-14 14,-14z"/>
  <g id="_977858416">
  </g>
  <g id="_977859856">
  </g>
  <g id="_977848080">
  </g>
  <g id="_977860240">
  </g>
  <g id="_977858320">
  </g>
  <g id="_977858768">
  </g>
  <g id="_977859344">
  </g>
  <g id="_977858864">
  </g>
  <g id="_977860400">
  </g>
  <g id="_977860496">
  </g>
  <g id="_977856176">
  </g>
  <g id="_977854576">
  </g>
  <g id="_977862672">
  </g>
  <g id="_977853840">
  </g>
  <g id="_977848304">
  </g>
  <g id="_977859632">
  </g>
  <g id="_977850896">
  </g>
  <g id="_977853104">
  </g>
  <g id="_977854800">
  </g>
  <g id="_977857776">
  </g>
  <g id="_977857936">
  </g>
  <g id="_977850512">
  </g>
  <g id="_977850672">
  </g>
  <g id="_977856240">
  </g>
  <g id="_977854928">
  </g>
  <g id="_977856016">
  </g>
  <g id="_977848752">
  </g>
  <g id="_977853680">
  </g>
  <g id="_977850864">
  </g>
  <g id="_977851408">
  </g>
  <g id="Layer_2">
   <g>
    <polygon class="fil1 str0" points="9,37 38,37 38,10 9,10 "/>
   </g>
  </g>
  <g id="Layer_4">
   <g>
    <path class="fil2" d="M15 16c0,0 2,0 4,0 2,0 3,1 4,1 1,1 1,2 1,3 0,2 0,3 -1,3 -1,2 -2,2 -4,2 -1,0 -1,0 -1,0l0 4 -3 0 0 -13 0 0zm3 7c0,0 0,0 0,0 2,0 3,-1 3,-3 0,0 0,-2 -2,-2 -1,0 -1,0 -1,0l0 5 0 0z"/>
    <g>
     <path class="fil2" d="M25 26c1,1 2,1 3,1 1,0 1,0 1,-1 0,0 0,0 -2,-1 -1,-1 -2,-2 -2,-2 0,-3 2,-4 4,-4 1,0 2,1 3,1l0 2c-1,0 -3,-1 -3,-1 -1,0 -1,1 -1,1 0,1 0,1 1,1 2,1 3,2 3,3 0,2 -2,3 -4,3 -1,0 -2,0 -3,0l0 -3 0 0 0 0z"/>
    </g>
   </g>
  </g>
 </g>
</svg>
