<?xml version="1.0" encoding="UTF-8"?>
<!DOCTYPE svg PUBLIC "-//W3C//DTD SVG 1.1//EN" "http://www.w3.org/Graphics/SVG/1.1/DTD/svg11.dtd">
<!-- Creator: CorelDRAW X7 -->
<svg xmlns="http://www.w3.org/2000/svg" xml:space="preserve" width="47px" height="47px" version="1.1" style="shape-rendering:geometricPrecision; text-rendering:geometricPrecision; image-rendering:optimizeQuality; fill-rule:evenodd; clip-rule:evenodd"
viewBox="0 0 47 47"
 xmlns:xlink="http://www.w3.org/1999/xlink">
 <defs>
  <style type="text/css">
   <![CDATA[
    .str2 {stroke:#FEFEFE;stroke-width:0.89535}
    .str0 {stroke:#FEFEFE;stroke-width:1.74605}
    .str1 {stroke:#FEFEFE;stroke-width:2.07153}
    .fil1 {fill:none}
    .fil2 {fill:#FEFEFE}
    .fil0 {fill:none}
   ]]>
  </style>
 </defs>
 <g id="Layer_x0020_1">
  <metadata id="CorelCorpID_0Corel-Layer"/>
  <path class="fil0" d="M14 0l33 0 0 33c0,8 -6,14 -14,14l-33 0 0 -33c0,-8 6,-14 14,-14z"/>
  <g id="_973417008">
  </g>
  <g id="_973405072">
  </g>
  <g id="_973422800">
  </g>
  <g id="_973403856">
  </g>
  <g id="_973431952">
  </g>
  <g id="_973419152">
  </g>
  <g id="_973423664">
  </g>
  <g id="_973425712">
  </g>
  <g id="_973432208">
  </g>
  <g id="_973415184">
  </g>
  <g id="_973429840">
  </g>
  <g id="_973430160">
  </g>
  <g id="_973419632">
  </g>
  <g id="_973421296">
  </g>
  <g id="_973406064">
  </g>
  <g id="_973430256">
  </g>
  <g id="_973405360">
  </g>
  <g id="_973418192">
  </g>
  <g id="_973416528">
  </g>
  <g id="_973425616">
  </g>
  <g id="_973400208">
  </g>
  <g id="_973417392">
  </g>
  <g id="_973412496">
  </g>
  <g id="_973419600">
  </g>
  <g id="_973405712">
  </g>
  <g id="_973412016">
  </g>
  <g id="_973428016">
  </g>
  <g id="_973414128">
  </g>
  <g id="_965413792">
  </g>
  <g id="_965420768">
  </g>
  <path class="fil1 str0" d="M17 20c3,-5 5,-8 8,-10 3,-3 7,-4 8,-3 2,1 3,4 2,9 -1,3 -3,7 -5,11 -2,4 -5,8 -8,10 -3,3 -7,4 -8,3 -2,-1 -3,-4 -2,-8 1,-4 3,-8 5,-12z"/>
  <path class="fil1 str1" d="M17 27c-2,-4 -4,-8 -5,-12 -1,-4 0,-7 2,-8 1,-1 5,0 8,3 3,2 6,6 8,10 2,4 4,8 5,12 1,4 0,7 -2,8 -1,1 -4,0 -8,-2 -2,-3 -5,-7 -8,-11z"/>
  <path class="fil1 str0" d="M24 16c4,0 9,1 12,2 5,1 7,3 7,5 0,2 -3,5 -7,6 -3,1 -8,2 -12,2 -5,0 -10,-1 -13,-2 -4,-1 -7,-4 -7,-6 0,-2 2,-4 6,-5 4,-1 9,-2 14,-2z"/>
  <path class="fil2 str2" d="M27 23c0,-2 -1,-3 -3,-3 -2,0 -4,1 -4,3 0,2 2,4 4,4 2,0 3,-2 3,-4z"/>
 </g>
</svg>
