<?xml version="1.0" encoding="UTF-8"?>
<!DOCTYPE svg PUBLIC "-//W3C//DTD SVG 1.1//EN" "http://www.w3.org/Graphics/SVG/1.1/DTD/svg11.dtd">
<!-- Creator: CorelDRAW X7 -->
<svg xmlns="http://www.w3.org/2000/svg" xml:space="preserve" width="47px" height="47px" version="1.1" style="shape-rendering:geometricPrecision; text-rendering:geometricPrecision; image-rendering:optimizeQuality; fill-rule:evenodd; clip-rule:evenodd"
viewBox="0 0 47 47"
 xmlns:xlink="http://www.w3.org/1999/xlink">
 <defs>
  <style type="text/css">
   <![CDATA[
    .fil1 {fill:#FEFEFE}
    .fil0 {fill:none}
   ]]>
  </style>
 </defs>
 <g id="Layer_x0020_1">
  <metadata id="CorelCorpID_0Corel-Layer"/>
  <path class="fil0" d="M14 0l33 0 0 33c0,8 -6,14 -14,14l-33 0 0 -33c0,-8 6,-14 14,-14z"/>
  <g id="_1057519984">
  </g>
  <g id="_1057494224">
  </g>
  <g id="_1057502512">
  </g>
  <g id="_1057498160">
  </g>
  <g id="_1057507984">
  </g>
  <g id="_1057502320">
  </g>
  <g id="_1057505648">
  </g>
  <g id="_1057498864">
  </g>
  <g id="_1057505616">
  </g>
  <g id="_1057509840">
  </g>
  <g id="_1057520560">
  </g>
  <g id="_1057522288">
  </g>
  <g id="_1057491088">
  </g>
  <g id="_1057517136">
  </g>
  <g id="_1057500208">
  </g>
  <g id="_1057499792">
  </g>
  <g id="_1057503728">
  </g>
  <g id="_1057490288">
  </g>
  <g id="_1057506864">
  </g>
  <g id="_1057518160">
  </g>
  <g id="_1057509328">
  </g>
  <g id="_1057501168">
  </g>
  <g id="_1057505488">
  </g>
  <g id="_1057518032">
  </g>
  <g id="_1057491408">
  </g>
  <g id="_1057498512">
  </g>
  <g id="_1057514544">
  </g>
  <g id="_1057506928">
  </g>
  <g id="_1057506640">
  </g>
  <g id="_1057493520">
  </g>
  <g id="_1057509616">
  </g>
  <g id="_1057492176">
  </g>
  <g id="_1057513136">
  </g>
  <g id="_1057508432">
  </g>
  <g id="_1057517840">
  </g>
  <g id="_1057507600">
  </g>
  <g id="_1057505520">
  </g>
  <g id="_1057515472">
  </g>
  <g id="_1057516112">
  </g>
  <g id="_1057508400">
  </g>
  <g id="_1057501936">
  </g>
  <g id="_1057506448">
  </g>
  <g id="_1057517360">
  </g>
  <g id="_1057501104">
  </g>
  <g id="_1057496720">
  </g>
  <g id="_1057515504">
  </g>
  <g id="_1057510672">
  </g>
  <g id="_1057493616">
  </g>
  <g id="_1057513520">
  </g>
  <g id="_1057518704">
  </g>
  <g id="_1057494864">
  </g>
  <g id="_1057505040">
  </g>
  <g id="_1057511088">
  </g>
  <g id="_1057497616">
  </g>
  <g id="_1057520592">
  </g>
  <g id="_1057514128">
  </g>
  <g id="_1057497008">
  </g>
  <g id="_1057501776">
  </g>
  <g id="_1057491120">
  </g>
  <g id="_1057506096">
  </g>
  <g id="_1057519568">
   <path class="fil1" d="M13 20l1 1c0,1 0,2 0,3 0,1 0,1 1,2 0,0 0,0 0,1l0 0c0,1 1,1 1,1l0 1c0,0 0,0 0,0 -1,2 1,4 3,3 1,0 1,-1 1,-1 0,0 0,-1 0,-1 0,0 0,0 0,0 0,0 0,0 0,-1 0,0 0,0 0,0 0,0 0,-1 -1,-1 0,0 -1,0 -1,0 0,0 0,0 0,0 0,0 0,0 0,0 0,0 -1,0 -1,-1 0,0 0,0 0,-1 0,0 0,0 0,0 0,0 -1,-1 -1,-1l0 -1c0,0 0,-1 0,-2 0,-1 0,-1 0,-2 0,-1 0,-2 0,-2 0,-1 0,-2 0,-3l1 -1c0,0 0,0 0,0 0,0 0,0 0,0 0,-1 1,-1 1,-2 0,0 0,0 0,0l1 0c0,-1 0,-1 1,-1 0,0 1,-1 2,-1 1,0 2,0 3,0 0,0 0,0 0,1 1,0 1,0 1,0l1 1c0,0 1,1 1,1 1,1 1,3 1,4l0 1c1,0 1,0 1,0 0,0 1,0 1,0 0,0 0,0 0,0 0,0 0,-1 0,-2 0,-1 0,-2 -1,-3l0 0c0,0 0,-1 0,-1 0,0 -1,-1 -1,-1 -1,0 -1,0 -1,0l-1 -1c0,-1 -1,-1 -1,-1 -1,0 -1,-1 -1,-1 -1,0 -2,0 -2,0 -1,0 -1,0 -1,0 0,0 0,0 0,0 -1,0 -2,0 -2,1 -1,0 -2,1 -3,1l0 0c0,1 0,1 0,1l-1 0c0,0 0,0 0,0 0,0 0,0 0,0 0,1 0,1 0,1 0,0 0,0 -1,1l0 0c0,1 -1,2 -1,3 0,0 0,1 0,1 0,1 0,1 0,2 0,0 0,0 0,0l-1 1z"/>
   <path class="fil1" d="M19 20c0,0 0,0 0,1 0,0 0,0 0,0 1,1 1,1 2,1 1,0 1,0 2,-1 0,0 0,0 0,0 0,0 0,0 0,0 0,0 0,0 1,0 0,0 0,0 0,0 0,0 1,0 1,0 0,0 0,0 0,0 1,0 1,0 2,0 0,0 0,0 1,0 0,0 0,0 0,0 1,0 1,0 1,1l1 0c0,0 1,0 2,1 0,0 0,0 0,0 0,0 0,0 0,0 1,0 1,1 1,1l1 1c0,0 1,0 1,0l0 1c0,0 1,0 1,1 0,0 0,0 0,0 0,0 0,0 0,0 0,1 1,1 1,2 0,1 0,2 0,3 0,0 0,0 0,0 0,1 0,2 -1,2l0 1c0,0 0,0 0,0 0,0 -1,0 -1,0 0,0 0,0 0,0l0 1c0,0 -1,0 -1,0 0,0 0,0 0,0 -2,1 -4,1 -6,0 0,0 0,0 0,0 0,0 0,0 0,0l-1 0c0,0 0,0 0,0 0,0 0,0 0,0l-2 1 1 1c0,0 0,0 0,0 1,0 2,0 2,0 1,1 2,1 3,1 0,0 1,0 2,0 0,-1 0,-1 0,-1 0,0 1,0 1,0 0,0 0,0 1,0 0,0 0,0 0,0 0,0 0,0 1,-1l0 0c0,0 1,0 1,-1 0,0 0,0 0,0l1 -1c1,-1 1,-2 1,-3 0,-1 0,-2 0,-3 0,-1 -1,-2 -1,-3l-1 -1c0,0 0,-1 -1,-1l0 0c0,0 0,-1 0,-1 -1,0 -1,0 -1,-1 -1,0 -1,0 -1,0 0,0 0,0 0,0 -1,0 -1,-1 -1,-1l-1 0c0,0 -1,-1 -2,-1 0,0 0,0 -1,0 -1,-1 -2,-1 -3,-1l-1 0c0,0 0,0 0,0 0,0 0,0 0,0l-2 0c0,0 0,0 0,0 0,-1 -1,-1 -2,-1 0,0 -1,0 -1,0 0,0 -1,0 -1,1 0,0 0,0 0,0 0,0 0,0 0,0 0,0 0,0 0,1z"/>
   <path class="fil1" d="M15 39c1,0 1,0 2,0l1 -1c1,0 2,0 3,-1 1,0 1,0 2,0 0,0 0,0 0,0 0,-1 1,-1 1,-1l1 -1c0,0 0,0 0,0l1 -1c0,0 0,0 0,0l1 -1c0,0 0,0 0,0 1,-1 2,-2 2,-3l0 0c0,-1 0,0 1,-1 0,0 0,0 0,0 0,0 1,0 1,0 0,-1 1,-1 0,-2 0,-2 -2,-2 -3,-2 0,0 0,0 0,1 -1,0 -1,2 -1,3 0,0 0,0 1,0 -1,0 -1,1 -1,1l-1 1c0,0 0,1 -1,1l0 0c0,0 0,0 0,0l0 1c0,0 0,0 -1,0 0,0 -1,1 -1,1 -1,1 -2,1 -2,1l0 0c-1,1 -2,1 -2,1 -1,0 -1,0 -1,0 -1,1 -1,1 -1,1 0,0 -1,0 -1,0 0,0 -1,0 -1,0 0,0 0,0 0,0 0,0 0,0 0,0 -2,0 -3,-1 -4,-2 0,0 0,0 0,0 0,0 -1,0 -1,0 0,-1 0,-1 0,-1 -1,-1 -1,-1 -1,-1 0,-1 0,-2 0,-4 0,0 0,0 0,0 0,-1 1,-2 1,-2 0,0 1,-1 1,-1 0,0 0,0 0,0l1 -1c0,0 0,0 0,0 0,0 0,0 0,0 0,-1 0,-1 0,-1 0,0 0,-1 0,-1 0,0 0,0 0,-1 0,0 -1,1 -1,1l-1 1c0,0 0,0 -1,1 0,0 0,0 -1,1 0,1 0,1 -1,2l0 1c0,1 0,2 0,4 0,0 0,1 1,1l0 1c0,0 1,1 1,1l0 0c0,0 0,1 0,1l1 0c0,0 0,0 1,0 1,1 2,1 3,2 0,0 1,0 1,0z"/>
  </g>
 </g>
</svg>
