<?xml version="1.0" encoding="UTF-8"?>
<!DOCTYPE svg PUBLIC "-//W3C//DTD SVG 1.1//EN" "http://www.w3.org/Graphics/SVG/1.1/DTD/svg11.dtd">
<!-- Creator: CorelDRAW X7 -->
<svg xmlns="http://www.w3.org/2000/svg" xml:space="preserve" width="47px" height="47px" version="1.1" style="shape-rendering:geometricPrecision; text-rendering:geometricPrecision; image-rendering:optimizeQuality; fill-rule:evenodd; clip-rule:evenodd"
viewBox="0 0 47 47"
 xmlns:xlink="http://www.w3.org/1999/xlink">
 <defs>
  <style type="text/css">
   <![CDATA[
    .fil1 {fill:#FEFEFE}
    .fil0 {fill:none}
   ]]>
  </style>
 </defs>
 <g id="Layer_x0020_1">
  <metadata id="CorelCorpID_0Corel-Layer"/>
  <path class="fil0" d="M14 0l33 0 0 33c0,8 -6,14 -14,14l-33 0 0 -33c0,-8 6,-14 14,-14z"/>
  <g id="_1057358912">
  </g>
  <g id="_1057374720">
  </g>
  <g id="_1057376000">
  </g>
  <g id="_1057359168">
  </g>
  <g id="_1057377792">
  </g>
  <g id="_1057387104">
  </g>
  <g id="_1057369568">
  </g>
  <g id="_1057379008">
  </g>
  <g id="_1057375264">
  </g>
  <g id="_1057380000">
  </g>
  <g id="_1057390240">
  </g>
  <g id="_1057370016">
  </g>
  <g id="_1057378592">
  </g>
  <g id="_1057390368">
  </g>
  <g id="_1057376320">
  </g>
  <g id="_1057378496">
  </g>
  <g id="_1057379072">
  </g>
  <g id="_1057384032">
  </g>
  <g id="_1057388832">
  </g>
  <g id="_1057386848">
  </g>
  <g id="_1057380544">
  </g>
  <g id="_1057388544">
  </g>
  <g id="_1057373472">
  </g>
  <g id="_1057368896">
  </g>
  <g id="_1057369280">
  </g>
  <g id="_1057369440">
  </g>
  <g id="_1057383168">
  </g>
  <g id="_1057365792">
  </g>
  <g id="_1057384224">
  </g>
  <g id="_1057373184">
  </g>
  <g id="_1057364704">
  </g>
  <g id="_1057384192">
  </g>
  <g id="_1057382400">
  </g>
  <g id="_1057384064">
  </g>
  <g id="_1057379872">
  </g>
  <g id="_1057362432">
  </g>
  <g id="_1057371776">
  </g>
  <g id="_1057385568">
  </g>
  <g id="_1057359680">
  </g>
  <g id="_1057381664">
  </g>
  <g id="_1057365664">
  </g>
  <g id="_1057383424">
  </g>
  <g id="_1057390176">
  </g>
  <g id="_1057383296">
  </g>
  <g id="_1057360064">
  </g>
  <g id="_1057390432">
   <path class="fil1" d="M36 14l-2 0 0 2 2 0c0,0 0,0 0,0l0 18c0,0 0,0 0,0l-25 0c-1,0 -1,0 -1,0l0 -18c0,0 0,0 1,0l2 0 0 -2 -2 0c-2,0 -3,1 -3,2l0 18c0,1 1,2 3,2l8 0 0 3 -1 0c-1,0 -1,1 -1,2 0,0 0,1 1,1l11 0c0,0 1,-1 1,-1 0,-1 -1,-2 -1,-2l-1 0 0 -3 8 0c2,0 3,-1 3,-2l0 -18c0,-1 -1,-2 -3,-2z"/>
   <path class="fil1" d="M18 31l11 0c2,0 3,-1 3,-2l0 -17c0,-2 -1,-3 -3,-3l0 3c0,0 0,0 0,0l0 15 -12 0 0 -15c0,0 0,0 0,0l0 -3c-1,0 -2,1 -2,3l0 17c0,1 1,2 3,2zm5 -3c1,0 1,1 1,1 0,1 0,1 -1,1 0,0 -1,0 -1,-1 0,0 1,-1 1,-1z"/>
   <path class="fil1" d="M20 19l6 0c1,0 2,0 2,-1l0 -11c0,-1 -1,-2 -2,-2l-6 0c0,0 -1,1 -1,2l0 11c0,1 1,1 1,1zm3 -1c0,0 0,-1 0,-1 1,0 1,1 1,1 0,0 0,1 -1,1 0,0 0,-1 0,-1zm-2 -11l5 0 0 10 -5 0 0 -10z"/>
  </g>
  <g id="_1057385312">
  </g>
  <g id="_1057363392">
  </g>
  <g id="_1057366080">
  </g>
  <g id="_1057376704">
  </g>
  <g id="_1057372608">
  </g>
  <g id="_1057366496">
  </g>
  <g id="_1057380096">
  </g>
  <g id="_1057386624">
  </g>
  <g id="_1057381952">
  </g>
  <g id="_1057382208">
  </g>
  <g id="_1057368128">
  </g>
  <g id="_1057387392">
  </g>
  <g id="_1057381856">
  </g>
  <g id="_1057370752">
  </g>
  <g id="_1057386592">
  </g>
 </g>
</svg>
