<?xml version="1.0" encoding="UTF-8"?>
<!DOCTYPE svg PUBLIC "-//W3C//DTD SVG 1.1//EN" "http://www.w3.org/Graphics/SVG/1.1/DTD/svg11.dtd">
<!-- Creator: CorelDRAW X7 -->
<svg xmlns="http://www.w3.org/2000/svg" xml:space="preserve" width="47px" height="47px" version="1.1" style="shape-rendering:geometricPrecision; text-rendering:geometricPrecision; image-rendering:optimizeQuality; fill-rule:evenodd; clip-rule:evenodd"
viewBox="0 0 47 47"
 xmlns:xlink="http://www.w3.org/1999/xlink">
 <defs>
  <style type="text/css">
   <![CDATA[
    .str4 {stroke:#FEFEFE;stroke-width:0.656825}
    .str2 {stroke:#FEFEFE;stroke-width:3.10787}
    .str0 {stroke:#FEFEFE;stroke-width:1.1045}
    .str1 {stroke:#FEFEFE;stroke-width:1.1045}
    .str3 {stroke:#FEFEFE;stroke-width:1.10803}
    .str5 {stroke:#FEFEFE;stroke-width:2.07153}
    .fil2 {fill:none}
    .fil3 {fill:#FEFEFE}
    .fil0 {fill:none}
    .fil1 {fill:#FEFEFE;fill-rule:nonzero}
   ]]>
  </style>
 </defs>
 <g id="Layer_x0020_1">
  <metadata id="CorelCorpID_0Corel-Layer"/>
  <path class="fil0" d="M14 0l33 0 0 33c0,8 -6,14 -14,14l-33 0 0 -33c0,-8 6,-14 14,-14z"/>
  <g id="_888483504">
  </g>
  <g id="_888482608">
  </g>
  <g id="_888483216">
  </g>
  <g id="_888467728">
  </g>
  <g id="_888427760">
  </g>
  <g id="_888448496">
  </g>
  <g id="_888430896">
  </g>
  <g id="_888419696">
  </g>
  <g id="_888454416">
  </g>
  <g id="_888444816">
  </g>
  <g id="_888430160">
  </g>
  <g id="_888475312">
  </g>
  <g id="_888444464">
  </g>
  <g id="_888431440">
  </g>
  <g id="_888448976">
  </g>
  <g id="_888453008">
  </g>
  <g id="_888460336">
  </g>
  <g id="_888432624">
  </g>
  <g id="_888484176">
  </g>
  <g id="_888472752">
  </g>
  <g id="_888449744">
  </g>
  <g id="_888481552">
  </g>
  <g id="_888466800">
  </g>
  <g id="_888480880">
  </g>
  <g id="_888456528">
  </g>
  <g id="_888439824">
  </g>
  <g id="_888467280">
  </g>
  <g id="_888480432">
  </g>
  <g id="_888458512">
  </g>
  <g id="_888428816">
  </g>
  <g id="_888447344">
   <polygon class="fil1 str0" points="34,35 37,35 37,37 41,34 37,31 37,33 34,33 "/>
   <polygon class="fil1 str1" points="13,25 14,27 12,27 15,30 17,27 15,27 15,24 "/>
   <path class="fil2 str2" d="M14 27c0,-1 0,-1 0,-2 0,-5 4,-9 9,-9 6,0 10,4 10,9 0,4 -2,7 -6,9"/>
   <polygon class="fil3 str3" points="7,33 34,33 34,35 7,35 "/>
   <polygon class="fil1 str4" points="17,11 18,12 18,11 20,13 17,14 17,12 16,12 "/>
   <path class="fil2 str5" d="M18 12c0,0 -1,0 -1,0 -3,-2 -6,0 -7,2 -2,3 -1,6 2,8 0,0 1,0 1,0"/>
  </g>
 </g>
</svg>
