<?xml version="1.0" encoding="UTF-8"?>
<!DOCTYPE svg PUBLIC "-//W3C//DTD SVG 1.1//EN" "http://www.w3.org/Graphics/SVG/1.1/DTD/svg11.dtd">
<!-- Creator: CorelDRAW X7 -->
<svg xmlns="http://www.w3.org/2000/svg" xml:space="preserve" width="47px" height="47px" version="1.1" style="shape-rendering:geometricPrecision; text-rendering:geometricPrecision; image-rendering:optimizeQuality; fill-rule:evenodd; clip-rule:evenodd"
viewBox="0 0 47 47"
 xmlns:xlink="http://www.w3.org/1999/xlink">
 <defs>
  <style type="text/css">
   <![CDATA[
    .fil1 {fill:#FEFEFE}
    .fil0 {fill:none}
   ]]>
  </style>
 </defs>
 <g id="Layer_x0020_1">
  <metadata id="CorelCorpID_0Corel-Layer"/>
  <path class="fil0" d="M14 0l33 0 0 33c0,8 -6,14 -14,14l-33 0 0 -33c0,-8 6,-14 14,-14z"/>
  <path class="fil1" d="M34 11l-21 0c0,0 -1,0 -1,1l2 21c0,0 1,1 1,1l8 2c0,0 1,0 1,0l8 -2c0,0 1,-1 1,-1l2 -21c0,-1 -1,-1 -1,-1zm-4 7c0,0 0,0 0,0 0,0 0,0 0,0l-6 3c0,0 0,0 0,0 0,0 0,0 1,0l4 0c0,0 1,0 1,0 0,1 0,1 0,1l-1 7c0,0 0,0 0,0l-5 2c0,0 -1,0 -1,0l-5 -2c0,0 0,0 0,0l0 -3c0,0 0,-1 0,-1 0,0 0,0 0,0l1 0c1,0 1,0 1,1l0 1 4 2 3 -2 0 -3 -9 0c0,0 -1,-1 -1,-1l0 -2c0,0 0,0 0,0l6 -3c1,0 1,0 1,0 0,0 -1,0 -1,0l-6 0c0,0 0,0 0,0l0 -2c0,0 0,0 0,0 0,0 0,0 0,0l13 0c0,0 0,0 0,0 1,0 1,0 1,0l-1 2z"/>
 </g>
</svg>
