<?xml version="1.0" encoding="UTF-8"?>
<!DOCTYPE svg PUBLIC "-//W3C//DTD SVG 1.1//EN" "http://www.w3.org/Graphics/SVG/1.1/DTD/svg11.dtd">
<!-- Creator: CorelDRAW X7 -->
<svg xmlns="http://www.w3.org/2000/svg" xml:space="preserve" width="47px" height="47px" version="1.1" style="shape-rendering:geometricPrecision; text-rendering:geometricPrecision; image-rendering:optimizeQuality; fill-rule:evenodd; clip-rule:evenodd"
viewBox="0 0 47 47"
 xmlns:xlink="http://www.w3.org/1999/xlink">
 <defs>
  <style type="text/css">
   <![CDATA[
    .fil1 {fill:#FEFEFE}
    .fil0 {fill:none}
   ]]>
  </style>
 </defs>
 <g id="Layer_x0020_1">
  <metadata id="CorelCorpID_0Corel-Layer"/>
  <path class="fil0" d="M14 0l33 0 0 33c0,8 -6,14 -14,14l-33 0 0 -33c0,-8 6,-14 14,-14z"/>
  <g id="_974940144">
  </g>
  <g id="_974958832">
  </g>
  <g id="_974954672">
  </g>
  <g id="_974969296">
  </g>
  <g id="_974951504">
  </g>
  <g id="_974952144">
  </g>
  <g id="_974951120">
  </g>
  <g id="_974946160">
  </g>
  <g id="_974938384">
  </g>
  <g id="_974945744">
  </g>
  <g id="_974938000">
  </g>
  <g id="_901314576">
  </g>
  <g id="_901305232">
  </g>
  <g id="_901306576">
  </g>
  <g id="_901314928">
  </g>
  <g id="XMLID_122_">
   <g>
    <path class="fil1" d="M35 21c0,-1 0,-1 0,-2 0,-4 -1,-5 -2,-6 1,-3 0,-4 0,-4 -1,-1 -4,1 -5,2 -2,-1 -7,-1 -8,0 -4,-3 -5,-2 -5,-2 0,0 -1,2 -1,5 -1,1 -1,2 -1,4 0,1 0,2 0,2 1,5 4,7 8,7 -1,1 -1,2 -1,2 -1,1 -2,1 -3,1 -2,-1 -3,-4 -5,-3 0,0 0,0 0,0 1,1 1,1 2,3 0,0 1,2 4,2 1,0 2,0 2,0 0,0 0,2 0,3 0,1 -2,2 -2,2 0,0 1,0 1,0 1,0 2,0 2,-1 0,-1 0,-4 0,-5 0,-1 1,-1 1,-1 0,0 0,6 0,7 0,1 -1,0 -1,1 0,1 2,0 3,-1 0,-1 0,-7 0,-7l0 0c0,0 0,2 0,4 0,1 0,2 1,3 0,1 2,2 2,1 0,-1 -1,-1 -1,-2l0 -6c1,0 1,2 1,2l0 3c0,0 0,2 1,2 1,0 2,0 2,0 0,0 -1,-1 -1,-2 0,0 0,-1 0,-3 0,-3 -1,-4 -2,-5 4,0 7,-2 8,-6z"/>
   </g>
  </g>
  <g id="_901313328">
  </g>
  <g id="_901308880">
  </g>
  <g id="_901307984">
  </g>
  <g id="_901320016">
  </g>
  <g id="_901308560">
  </g>
  <g id="_901317840">
  </g>
  <g id="_901308080">
  </g>
  <g id="_901312592">
  </g>
  <g id="_901315408">
  </g>
  <g id="_901318320">
  </g>
  <g id="_901309040">
  </g>
  <g id="_901315184">
  </g>
  <g id="_902953264">
  </g>
  <g id="_902958864">
  </g>
  <g id="_902952592">
  </g>
 </g>
</svg>
