<?xml version="1.0" encoding="UTF-8"?>
<!DOCTYPE svg PUBLIC "-//W3C//DTD SVG 1.1//EN" "http://www.w3.org/Graphics/SVG/1.1/DTD/svg11.dtd">
<!-- Creator: CorelDRAW X7 -->
<svg xmlns="http://www.w3.org/2000/svg" xml:space="preserve" width="47px" height="47px" version="1.1" style="shape-rendering:geometricPrecision; text-rendering:geometricPrecision; image-rendering:optimizeQuality; fill-rule:evenodd; clip-rule:evenodd"
viewBox="0 0 47 47"
 xmlns:xlink="http://www.w3.org/1999/xlink">
 <defs>
  <style type="text/css">
   <![CDATA[
    .str0 {stroke:#FEFEFE;stroke-width:0.5452}
    .fil1 {fill:#FEFEFE}
    .fil0 {fill:none}
   ]]>
  </style>
 </defs>
 <g id="Layer_x0020_1">
  <metadata id="CorelCorpID_0Corel-Layer"/>
  <path class="fil0" d="M14 0l33 0 0 33c0,8 -6,14 -14,14l-33 0 0 -33c0,-8 6,-14 14,-14z"/>
  <path class="fil1" d="M118 47c-1,0 -3,0 -4,1 0,-1 0,-2 0,-2 0,-1 -1,-1 0,-2 0,0 0,-1 0,-1 0,0 0,-1 -1,-1 -1,0 -1,0 -1,1 0,0 -1,0 -1,1 0,0 -1,3 -2,4 0,0 0,-1 -1,-1 0,-1 0,-1 0,-2 0,0 1,-1 1,-1 0,0 0,-1 -1,-1 -1,0 -1,0 -1,1 -1,0 -1,0 -1,1 0,0 -2,4 -2,5 -1,1 -1,1 -1,2 0,0 0,0 0,0 0,0 0,0 0,0l0 0c0,0 0,1 0,1 0,0 -1,-1 0,-2 0,-1 1,-3 1,-3 0,0 0,-1 -1,-1 0,0 -1,0 -1,0 0,0 0,0 0,0 0,0 1,-2 -1,-2 -1,0 -3,1 -3,2 -1,0 -2,1 -3,1 0,1 -1,1 -1,1l0 0c-2,-2 -6,-4 -6,-7 0,-1 0,-4 8,-7 5,-3 10,-3 11,-1 1,3 -3,7 -9,8 -2,0 -3,-1 -4,-1 0,0 0,0 0,0 0,0 0,0 0,0 0,1 1,2 2,2 1,1 4,1 7,-1 4,-1 7,-5 6,-8 -1,-4 -7,-5 -12,-3 -3,1 -6,3 -9,5 -3,3 -3,5 -3,6 1,4 6,6 8,8 -1,0 -1,0 -1,0 -1,1 -4,2 -5,4 -1,3 0,4 1,5 2,0 5,-1 6,-3 1,-2 1,-5 1,-6l0 0 0 0c1,-1 1,-1 2,-1 0,1 -1,1 -1,2 0,2 1,3 1,4 1,0 1,0 1,0 1,0 2,0 2,-1 0,-1 1,-2 1,-2 0,0 -1,3 1,3 0,0 1,-1 1,-1l0 0c0,0 0,0 0,0 0,0 0,0 0,0l0 0c1,-1 1,-2 2,-3 1,-2 2,-4 2,-4 0,0 0,0 0,1 0,1 1,1 1,2 0,0 0,0 0,0l0 0c-1,1 -1,1 -1,1 -1,1 -2,2 -2,2 0,1 0,1 0,1 1,0 1,0 1,0 1,0 1,0 2,0 0,0 0,0 1,-1 1,0 1,-1 1,-2 0,-1 0,-1 0,-2 0,0 0,0 0,0 1,-2 2,-4 2,-4 0,0 0,1 0,2 0,0 1,1 1,1 -1,1 -2,2 -2,3 -1,1 0,2 0,2 1,0 1,0 1,0 1,0 1,0 2,-1 0,0 1,-1 1,-2 0,-1 0,-1 0,-2 1,0 2,0 3,0 4,0 4,2 4,3 0,1 0,2 -1,2 0,0 0,0 0,0 0,0 0,0 0,0 1,0 2,0 2,-2 0,-2 -2,-4 -5,-4l0 0zm-26 8c-1,1 -2,2 -3,2 -1,-1 0,-3 1,-4 1,-1 2,-1 3,-2 0,0 0,0 0,0 0,0 0,0 0,0 0,0 0,0 0,0 1,1 0,3 -1,4l0 0zm8 -5c0,1 -1,3 -1,3 -1,0 -1,-2 0,-4 0,-1 1,-2 1,-2 0,-1 1,-1 1,-1 0,1 0,3 -1,4l0 0zm7 3c0,0 0,0 0,0 -1,0 0,0 0,0 0,0 0,-1 1,-1 0,-1 0,-1 0,-1l0 0c0,1 -1,2 -1,2l0 0zm5 -1c0,0 0,-1 0,-1 0,-1 1,-1 1,-2 0,0 1,1 1,1 0,1 -1,2 -2,2z"/>
  <g id="_902959440">
   <path class="fil1 str0" d="M15 24c0,0 0,1 0,1 0,0 0,0 0,1 0,0 -1,0 -1,1 0,0 0,1 0,1 0,0 0,1 -1,1 0,1 0,1 0,1 0,1 0,1 0,1 0,1 0,1 0,1 0,0 0,0 0,0 0,0 -1,0 -1,1 0,0 0,0 0,0 0,0 0,0 0,0 -1,0 -1,0 -1,0 0,0 0,-1 0,-1 0,0 0,0 0,0 0,0 0,0 0,0 0,0 0,-1 0,-1 0,0 0,-1 0,-1 1,-1 1,-1 1,-2 0,0 0,-1 0,-1 0,0 0,1 -1,1 0,1 -1,1 -1,1 -1,1 -1,1 -2,1 0,0 -1,0 -1,0 -1,0 -1,0 -1,0 -1,0 -1,0 -1,-1 0,0 -1,-1 -1,-1 0,0 0,-1 0,-1 0,0 0,0 0,-1 0,0 0,0 0,0 0,-1 0,-1 0,-2 1,-1 1,-2 1,-3 1,-1 1,-1 1,-2 1,-1 1,-2 2,-3 0,0 1,-1 1,-2 1,0 1,-1 2,-1 0,-1 1,-1 1,-1 1,0 2,-1 2,-1 1,0 1,1 2,1 1,0 1,1 2,2 0,0 0,0 0,0 0,0 0,1 0,1 0,0 0,1 0,1 0,0 -1,0 -1,0 0,0 0,0 0,0 -1,-1 -1,-1 -1,-1 0,-1 -1,-1 -1,-1 0,0 0,-1 -1,-1 0,0 -1,1 -1,1 -1,1 -2,1 -2,2 -1,0 -1,1 -2,2 0,1 -1,2 -1,3 0,1 -1,2 -1,3 0,0 0,1 0,2 0,0 0,0 0,1 0,0 0,0 0,0 0,1 0,1 0,1 0,0 1,0 1,0 0,0 0,0 1,0 0,0 0,-1 1,-1 0,0 1,-1 1,-1 0,0 1,-1 1,-1 0,0 0,-1 1,-1 0,0 0,-1 0,-1l1 -3c0,0 1,-1 1,-1 0,0 0,0 0,0 0,0 1,0 1,0 0,0 0,0 0,0 0,0 0,1 0,1 0,0 0,0 0,0 0,0 0,1 0,1 0,1 0,1 0,1 0,1 0,1 -1,1 0,1 0,1 0,1z"/>
   <path class="fil1 str0" d="M29 27c-1,0 -1,1 -2,1 0,0 0,1 -1,1 0,0 -1,1 -1,1 -1,0 -1,0 -1,0 -1,0 -1,0 -1,0 0,0 0,-1 0,-1 0,-1 0,-1 0,-2 0,1 -1,1 -1,1 0,1 -1,1 -1,1 0,1 -1,1 -1,1 -1,0 -1,0 -2,0 0,0 0,0 0,0 0,0 -1,0 -1,0 0,0 0,-1 0,-1 0,0 0,0 0,-1 0,0 0,0 0,0 0,0 0,-1 0,-1 0,-1 0,-2 1,-2 0,-1 0,-2 1,-3 0,-1 0,-1 1,-1 0,0 0,0 0,0 0,0 0,0 0,0 1,0 1,0 1,0 0,0 0,0 0,0 0,0 0,0 0,0 0,0 0,1 0,1 0,0 0,0 0,0 0,0 0,1 -1,1 0,0 0,1 0,1 0,0 0,1 -1,1 0,0 0,1 0,1 0,1 0,1 0,1 0,0 0,1 0,1 0,0 0,0 0,0 1,0 1,0 2,-1 0,0 0,0 1,-1 0,0 1,-1 1,-1 0,-1 0,-1 1,-2 0,0 0,0 0,-1 0,0 0,0 0,0 0,-1 0,-1 1,-1 0,0 0,0 0,0 1,0 1,0 1,0 0,0 0,0 0,1 0,0 0,0 0,0 0,0 0,1 0,1 -1,0 -1,1 -1,1 0,1 0,1 0,1 -1,1 -1,1 -1,2 0,0 0,0 0,1 0,0 0,0 1,0 0,0 0,0 0,0 1,0 1,0 1,-1 1,0 1,0 2,-1 0,0 0,0 0,-1l1 2z"/>
   <path class="fil1 str0" d="M29 26c0,0 0,1 0,1 0,0 0,0 0,1 0,0 0,0 0,0 0,0 0,0 0,0 0,0 0,0 0,0 1,0 1,0 1,-1 0,0 1,0 1,0 0,0 1,-1 1,-1 0,0 0,0 1,-1 0,0 0,0 0,0 0,0 0,0 1,0 0,0 0,0 0,0 0,0 0,0 0,0 0,0 0,0 0,0 0,0 0,1 0,1 0,0 0,0 0,0 -1,1 -1,1 -2,2 0,0 -1,1 -1,1 -1,0 -1,1 -2,1 0,0 0,0 -1,0 0,0 0,0 -1,0 0,0 0,0 0,0 0,0 0,-1 0,-1 0,0 0,0 0,-1 0,0 0,0 0,-1 0,0 0,-1 0,-1 0,-1 1,-1 1,-2 0,-1 0,-1 1,-2l3 -8c0,0 0,-1 0,-1 1,0 1,0 1,0 0,0 0,0 1,0 0,0 0,1 0,1 0,0 0,0 0,0 0,1 0,1 0,1 -1,0 -1,1 -1,1 0,1 -1,2 -1,2 0,1 0,2 -1,2 0,1 0,2 -1,3 0,0 0,1 0,2 -1,0 -1,1 -1,1z"/>
   <path class="fil1 str0" d="M44 24c0,0 0,0 0,0 1,0 1,0 1,0 0,0 0,0 0,0 0,0 0,0 0,0 0,1 0,1 0,1 0,0 0,0 0,1 -1,0 -2,1 -2,1 -1,1 -2,2 -2,2 -1,0 -1,1 -2,1 0,0 -1,0 -1,0 -1,0 -1,0 -2,0 0,0 0,-1 0,-1 0,0 0,0 0,0 0,0 0,0 0,0 0,-1 0,-1 0,-1 0,-1 1,-1 1,-1 0,-1 1,-1 1,-1 0,-1 0,-1 1,-1 0,-1 0,-1 0,-1 1,-1 1,-1 1,-1 0,0 0,0 -1,0 0,0 0,0 0,0 0,0 0,0 -1,0 0,0 0,0 -1,1 0,0 0,0 -1,0 0,1 0,1 0,1 -1,1 -1,1 -1,1 0,1 0,1 -1,1 0,1 0,1 0,1 0,0 0,0 0,0 0,1 0,1 0,1 0,0 0,1 -1,1 0,0 0,0 0,0 0,0 0,1 0,1 0,0 0,0 0,0 0,0 0,0 0,1 0,0 -1,0 -1,1 0,0 0,0 0,1 0,0 0,0 0,0 0,0 0,1 0,1 -1,0 -1,0 -1,0 0,1 0,1 0,1 0,0 0,0 0,0 -1,0 -1,0 -1,0 0,0 -1,0 -1,0 0,0 0,0 0,-1 0,0 0,0 0,0 0,0 0,0 0,-1 0,0 0,0 0,0 1,0 1,0 1,-1 0,0 0,-1 1,-2 0,-1 1,-2 1,-3 0,-1 1,-1 1,-2 0,-1 1,-2 1,-2 0,-1 0,-1 0,-1 0,0 0,-1 0,-1 1,0 1,0 1,-1 0,0 0,0 0,0 1,0 1,0 1,0 0,0 0,1 0,1 0,0 0,0 0,0 0,0 0,0 0,0 0,1 0,1 0,1 0,0 0,0 0,0 0,0 1,-1 1,-1 0,0 0,0 1,-1 0,0 0,0 1,0 0,0 0,0 1,0 0,0 0,0 1,0 0,0 0,0 0,0 0,0 0,0 1,1 0,0 0,0 0,0 0,1 0,1 0,1 -1,1 -1,1 -1,2 0,0 -1,0 -1,1 0,0 -1,0 -1,1 0,0 0,0 -1,0 0,1 0,1 0,1 0,0 0,0 0,0 0,0 0,0 1,0 0,0 0,0 0,0 0,0 1,0 1,-1 1,0 1,0 2,-1 0,-1 1,-1 2,-2z"/>
  </g>
 </g>
</svg>
