<?xml version="1.0" encoding="UTF-8"?>
<!DOCTYPE svg PUBLIC "-//W3C//DTD SVG 1.1//EN" "http://www.w3.org/Graphics/SVG/1.1/DTD/svg11.dtd">
<!-- Creator: CorelDRAW X7 -->
<svg xmlns="http://www.w3.org/2000/svg" xml:space="preserve" width="47px" height="47px" version="1.1" style="shape-rendering:geometricPrecision; text-rendering:geometricPrecision; image-rendering:optimizeQuality; fill-rule:evenodd; clip-rule:evenodd"
viewBox="0 0 47 47"
 xmlns:xlink="http://www.w3.org/1999/xlink">
 <defs>
  <style type="text/css">
   <![CDATA[
    .str0 {stroke:#FEFEFE;stroke-width:0.89535}
    .fil1 {fill:#FEFEFE}
    .fil0 {fill:none}
   ]]>
  </style>
 </defs>
 <g id="Layer_x0020_1">
  <metadata id="CorelCorpID_0Corel-Layer"/>
  <path class="fil0" d="M14 0l33 0 0 33c0,8 -6,14 -14,14l-33 0 0 -33c0,-8 6,-14 14,-14z"/>
  <path class="fil1 str0" d="M13 30l0 -3 2 0 0 3 -2 0zm6 -15l0 -3 2 0 0 3 -2 0zm-3 19l1 -1c0,0 1,0 1,0 0,0 1,0 1,-1 0,0 0,-1 0,-2l0 -13 2 0 0 13c0,2 0,3 0,3 -1,1 -2,2 -3,2 0,0 -1,-1 -2,-1zm8 -8l2 -1c0,1 0,2 1,2 0,1 1,1 2,1 1,0 2,0 2,-1 1,0 1,0 1,-1 0,0 0,-1 -1,-1 0,0 -1,0 -2,-1 -2,0 -3,-1 -3,-1 -1,0 -1,0 -2,-1 0,0 0,-1 0,-2 0,0 0,-1 0,-1 1,-1 1,-1 1,-1 1,-1 1,-1 2,-1 0,0 1,0 2,0 1,0 1,0 2,0 1,0 1,1 2,1 0,1 0,1 1,2l-3 1c0,-1 0,-2 0,-2 -1,0 -1,0 -2,0 -1,0 -2,0 -2,0 -1,0 -1,1 -1,1 0,0 0,1 0,1 0,0 1,0 1,0 0,0 1,1 2,1 1,0 2,1 3,1 1,0 1,1 1,1 1,1 1,1 1,2 0,1 0,1 -1,2 0,0 -1,1 -1,1 -1,1 -2,1 -3,1 -2,0 -3,-1 -4,-1 -1,-1 -1,-2 -1,-3z"/>
 </g>
</svg>
