<?xml version="1.0" encoding="UTF-8"?>
<!DOCTYPE svg PUBLIC "-//W3C//DTD SVG 1.1//EN" "http://www.w3.org/Graphics/SVG/1.1/DTD/svg11.dtd">
<!-- Creator: CorelDRAW X7 -->
<svg xmlns="http://www.w3.org/2000/svg" xml:space="preserve" width="47px" height="47px" version="1.1" style="shape-rendering:geometricPrecision; text-rendering:geometricPrecision; image-rendering:optimizeQuality; fill-rule:evenodd; clip-rule:evenodd"
viewBox="0 0 47 47"
 xmlns:xlink="http://www.w3.org/1999/xlink">
 <defs>
  <style type="text/css">
   <![CDATA[
    .fil0 {fill:none}
    .fil1 {fill:#FEFEFE;fill-rule:nonzero}
   ]]>
  </style>
 </defs>
 <g id="Layer_x0020_1">
  <metadata id="CorelCorpID_0Corel-Layer"/>
  <path class="fil0" d="M14 0l33 0 0 33c0,8 -6,14 -14,14l-33 0 0 -33c0,-8 6,-14 14,-14z"/>
  <g id="_902060352">
  </g>
  <g id="_902071360">
  </g>
  <g id="_902059520">
  </g>
  <g id="_902059808">
  </g>
  <g id="_974970128">
  </g>
  <g id="_974968400">
  </g>
  <g id="_974948752">
  </g>
  <g id="_974949488">
  </g>
  <g id="_974943504">
  </g>
  <g id="_974960784">
  </g>
  <g id="_974949040">
  </g>
  <g id="_974969648">
  </g>
  <g id="_974941520">
  </g>
  <g id="_974955152">
  </g>
  <g id="_974945488">
  </g>
  <g id="_974953968">
  </g>
  <g id="_974955280">
  </g>
  <g id="_974954160">
  </g>
  <g id="_974944432">
  </g>
  <g id="_974938064">
  </g>
  <g id="_974945680">
  </g>
  <g id="_974961264">
  </g>
  <g id="_974949680">
  </g>
  <g id="_974966544">
  </g>
  <g id="_974941040">
  </g>
  <g id="_974970320">
  </g>
  <g id="_974955088">
  </g>
  <g id="_974938224">
  </g>
  <g id="_974960368">
  </g>
  <g id="_974966448">
  </g>
  <g id="_974950384">
  </g>
  <g id="_974959568">
  </g>
  <g id="_974940400">
  </g>
  <g id="_974951632">
  </g>
  <g id="_974970352">
  </g>
  <g id="_974941744">
  </g>
  <g id="_974940464">
  </g>
  <g id="_974938416">
  </g>
  <g id="_974952112">
  </g>
  <g id="_974944048">
  </g>
  <g id="_974944336">
  </g>
  <g id="_974949328">
  </g>
  <g id="_974951952">
  </g>
  <g id="_974948336">
  </g>
  <g id="_974938608">
  </g>
  <g>
   <path id="path3375" class="fil1" d="M29 29c0,0 0,0 0,0 1,0 1,0 1,0 0,-1 0,-1 -1,-1 0,0 0,0 0,1l0 0zm-11 -13l-4 3c-1,0 -1,0 -1,0l0 0 0 5c0,0 0,0 1,0l0 0 4 3c0,0 0,0 0,0l0 0 4 -3c0,0 0,0 0,0l0 0 0 -5c0,0 0,0 0,0l0 0 -4 -3c0,0 0,0 0,0l0 0c0,0 0,0 0,0l0 0zm5 21c0,0 0,0 0,0l-1 -1c-1,0 -1,0 0,0 0,-1 0,-1 0,-1 0,0 0,0 0,0l1 1c0,0 0,0 0,0l4 -2c0,0 0,0 0,0l0 -5c0,0 0,0 0,0l-4 -2c0,0 0,0 0,0l-4 2c0,0 0,0 0,0l0 5c0,0 0,0 0,0l1 0c1,1 1,0 1,0l0 -5c0,0 0,0 0,0l1 0c0,0 0,0 0,0l0 5c0,1 0,1 -1,1 0,0 0,0 -1,0l-1 -1c0,0 0,0 0,0l0 -5c0,0 0,0 0,-1l4 -2c0,0 0,0 1,0l4 2c0,1 0,1 0,1l0 5c0,0 0,0 0,0l-4 3c0,0 -1,0 -1,0zm-5 -21l0 0 0 0zm22 4c0,0 0,0 1,0l0 1c0,0 0,0 0,0l0 1c0,0 0,0 0,0l0 0c-1,0 -1,0 -1,0l0 0c0,0 0,0 0,0l0 -1c0,0 0,0 0,0l0 -1zm5 1c0,0 0,-1 0,-1l0 -1c0,0 0,0 0,0l-4 -3c0,0 -1,0 -1,0l-4 3c0,0 0,0 0,0l0 5c0,0 0,0 0,0l4 3c0,0 1,0 1,0l2 -2c0,0 0,0 0,0 0,0 0,0 0,0l-4 -3c0,0 0,0 0,0l0 -1c0,0 0,0 0,0l1 -1c0,0 0,0 1,0l1 1c0,0 0,0 0,0l0 1c0,0 0,0 0,0 0,0 0,0 0,0l3 -1zm-14 1c0,0 0,0 0,0l-2 1c0,0 0,0 0,0l-1 -1c0,0 0,0 0,0l0 -1c0,0 0,0 0,0l1 -1c0,0 0,0 0,0l2 1c0,0 0,0 0,0l0 1zm0 -12c0,0 0,0 0,0 0,0 0,0 0,0l0 7c0,0 0,0 0,0 0,0 0,0 -1,0l-1 -1c0,0 0,0 0,0l-4 3c0,0 0,0 0,0l0 5c0,0 0,0 0,0l4 3c0,0 0,0 0,0l5 -3c0,0 0,0 0,0l0 -12c0,0 0,0 0,0l-3 -2zm-20 9c0,0 0,0 0,0l-4 -3c0,0 0,0 0,0l0 0c0,0 -1,0 -1,0l-4 3c0,0 0,0 0,0l0 6c0,1 0,1 0,1 0,0 0,0 0,0l3 -2c0,0 0,0 0,0l0 -3c0,0 0,-1 0,-1l1 0c0,0 1,0 1,0 0,0 0,0 0,0l1 0c0,0 0,1 0,1l0 3c0,0 0,0 0,0l3 2c0,0 0,0 0,0 0,0 0,0 0,-1l0 -6zm18 10l0 0c0,0 0,0 0,0 0,0 0,0 0,0l0 0 0 0zm0 -1l0 0c0,0 1,0 1,1 0,0 0,0 -1,0 1,0 1,0 1,0 0,0 0,0 0,0l-1 0c0,0 0,0 0,0 0,0 0,0 0,0l0 0 0 0 0 0 0 -1zm1 1c0,0 0,1 -1,1 0,0 0,-1 0,-1 0,-1 0,-1 0,-1 1,0 1,0 1,1zm-6 5c-1,0 -2,-1 -2,-2 0,0 0,0 1,0l0 0c0,0 0,0 0,0 0,1 0,1 1,1 1,0 2,0 2,-1 0,0 0,0 -2,0 -1,0 -1,-1 -1,-2 0,0 0,-1 1,-1 2,0 2,1 2,2 0,0 0,0 0,0 0,0 0,0 0,0l0 0c0,0 0,0 0,0 -1,-1 -1,-1 -2,-1 -1,0 -1,0 -1,0 0,1 0,1 2,1 1,0 1,0 1,1 0,1 0,2 -2,2z"/>
  </g>
 </g>
</svg>
