<?xml version="1.0" encoding="UTF-8"?>
<!DOCTYPE svg PUBLIC "-//W3C//DTD SVG 1.1//EN" "http://www.w3.org/Graphics/SVG/1.1/DTD/svg11.dtd">
<!-- Creator: CorelDRAW X7 -->
<svg xmlns="http://www.w3.org/2000/svg" xml:space="preserve" width="47px" height="47px" version="1.1" style="shape-rendering:geometricPrecision; text-rendering:geometricPrecision; image-rendering:optimizeQuality; fill-rule:evenodd; clip-rule:evenodd"
viewBox="0 0 47 47"
 xmlns:xlink="http://www.w3.org/1999/xlink">
 <defs>
  <style type="text/css">
   <![CDATA[
    .fil1 {fill:#FEFEFE}
    .fil0 {fill:none}
   ]]>
  </style>
 </defs>
 <g id="Layer_x0020_1">
  <metadata id="CorelCorpID_0Corel-Layer"/>
  <path class="fil0" d="M14 0l33 0 0 33c0,8 -6,14 -14,14l-33 0 0 -33c0,-8 6,-14 14,-14z"/>
  <path class="fil1" d="M37 26c-1,0 -2,0 -3,0 -1,0 -1,-1 -1,-1 0,-1 0,-1 0,-2 0,-1 0,-1 0,-2 0,0 0,0 0,0 -1,0 -2,0 -2,0 0,1 0,1 0,2 0,0 -2,3 -3,4 0,-1 0,-1 0,-1 0,-1 0,-1 0,-2 0,0 0,-1 0,-1 0,0 0,-1 -1,-1 0,0 -1,0 -1,1 0,0 0,0 0,1 -1,0 -2,4 -3,5 0,1 0,1 0,2 -1,0 0,0 -1,0 0,0 0,0 0,0l0 0c0,0 0,0 0,0 0,0 0,0 0,-1 0,-1 1,-3 1,-4 0,0 0,0 0,0 -1,0 -1,0 -1,0 0,0 0,0 0,0 0,0 0,-2 -1,-2 -2,0 -3,1 -4,2 0,0 -1,1 -2,1 -1,1 -1,1 -2,1l0 0c-2,-2 -6,-4 -6,-7 0,-1 1,-4 8,-8 6,-3 10,-2 11,0 1,3 -2,7 -8,8 -3,0 -4,-1 -4,-1 0,0 0,0 -1,0 0,0 0,0 0,0 1,1 1,2 3,2 1,0 3,1 7,-1 3,-1 6,-5 5,-8 -1,-4 -6,-5 -11,-3 -3,1 -7,3 -9,5 -3,3 -4,5 -3,6 0,4 5,6 7,8 0,0 0,0 0,0 -1,0 -5,2 -6,4 -1,3 0,4 1,4 3,1 5,0 7,-2 1,-2 1,-5 0,-6l0 0 1 0c0,-1 1,-1 1,-1 0,0 0,1 0,2 0,2 0,3 1,4 0,0 1,0 1,0 1,0 1,0 1,-1 1,-1 1,-2 1,-2 0,0 0,3 1,3 1,0 1,-1 2,-1l0 0c0,0 0,0 0,0 0,-1 0,-1 0,-1l0 0c0,0 1,-1 1,-2 1,-2 2,-5 2,-5 0,0 0,1 0,2 1,0 1,1 1,2 0,0 0,0 0,0l0 0c0,0 0,1 -1,1 0,1 -1,2 -1,2 -1,1 -1,1 0,1 0,0 0,0 1,0 0,0 1,0 1,0 0,0 1,-1 1,-1 1,0 1,-1 1,-2 0,-1 0,-1 0,-2 0,0 0,0 0,0 1,-2 2,-4 2,-4 0,0 0,1 1,2 0,0 0,1 0,1 -1,1 -1,2 -2,3 0,1 0,2 1,2 0,0 1,0 1,0 0,0 1,-1 1,-1 1,-1 2,-1 2,-2 0,-1 -1,-1 -1,-2 1,0 2,0 4,0 3,0 4,2 4,3 0,1 -1,2 -1,2 -1,0 -1,0 -1,0 0,0 1,0 1,0 0,0 1,-1 2,-2 0,-2 -2,-4 -6,-4l0 0zm-25 8c-1,1 -3,2 -4,1 0,0 0,-2 1,-3 1,-1 2,-2 3,-2 0,0 0,0 1,0 0,0 0,0 0,0 0,0 0,0 0,-1 0,2 0,4 -1,5l0 0zm8 -5c-1,1 -1,3 -2,3 0,0 -1,-2 0,-4 0,-1 1,-2 1,-2 1,-1 2,-1 2,-1 0,1 -1,3 -1,4l0 0zm6 3c0,0 0,0 0,0 0,0 0,0 0,0 0,0 1,-1 1,-1 0,-1 1,-1 1,-1l0 0c0,1 -1,2 -2,2l0 0zm5 -1c0,0 0,-1 1,-2 0,0 0,0 1,-1 0,0 0,0 0,1 0,1 -1,1 -2,2z"/>
 </g>
</svg>
